<mxfile host="65bd71144e" modified="2021-03-07T14:25:34.577Z" agent="5.0 (Windows NT 10.0; Win64; x64) AppleWebKit/537.36 (KHTML, like Gecko) Code/1.54.1 Chrome/87.0.4280.141 Electron/11.3.0 Safari/537.36" etag="zfm8ByvcTfrIt1PS5Zfd" version="14.2.4" type="embed">
    <diagram id="dSjrW_dhtsfgXSlPdKLc" name="第 1 页">
        <mxGraphModel dx="669" dy="863" grid="0" gridSize="10" guides="1" tooltips="1" connect="1" arrows="1" fold="1" page="1" pageScale="1" pageWidth="827" pageHeight="1169" math="0" shadow="0">
            <root>
                <mxCell id="0"/>
                <mxCell id="1" parent="0"/>
                <mxCell id="qsJm1ij4FR5lF7uQDItI-2" value="40" style="ellipse;whiteSpace=wrap;html=1;aspect=fixed;fillColor=#FF3333;" parent="1" vertex="1">
                    <mxGeometry x="140" y="115" width="20" height="20" as="geometry"/>
                </mxCell>
                <mxCell id="qsJm1ij4FR5lF7uQDItI-3" value="120" style="ellipse;whiteSpace=wrap;html=1;aspect=fixed;fillColor=#FFFFFF;" parent="1" vertex="1">
                    <mxGeometry x="260" y="115" width="20" height="20" as="geometry"/>
                </mxCell>
                <mxCell id="qsJm1ij4FR5lF7uQDItI-10" value="70" style="ellipse;whiteSpace=wrap;html=1;aspect=fixed;fillColor=#FF3333;" parent="1" vertex="1">
                    <mxGeometry x="200" y="190" width="20" height="20" as="geometry"/>
                </mxCell>
                <mxCell id="qsJm1ij4FR5lF7uQDItI-11" value="50" style="ellipse;whiteSpace=wrap;html=1;aspect=fixed;fillColor=#FF3333;" parent="1" vertex="1">
                    <mxGeometry x="150" y="190" width="20" height="20" as="geometry"/>
                </mxCell>
                <mxCell id="qsJm1ij4FR5lF7uQDItI-12" value="52" style="ellipse;whiteSpace=wrap;html=1;aspect=fixed;fillColor=#FF3333;" parent="1" vertex="1">
                    <mxGeometry x="130" y="230" width="20" height="20" as="geometry"/>
                </mxCell>
                <mxCell id="qsJm1ij4FR5lF7uQDItI-13" value="" style="endArrow=none;html=1;exitX=1;exitY=0;exitDx=0;exitDy=0;entryX=0;entryY=0.5;entryDx=0;entryDy=0;" parent="1" source="qsJm1ij4FR5lF7uQDItI-2" target="qsJm1ij4FR5lF7uQDItI-1" edge="1">
                    <mxGeometry width="50" height="50" relative="1" as="geometry">
                        <mxPoint x="180" y="140" as="sourcePoint"/>
                        <mxPoint x="210" y="100" as="targetPoint"/>
                    </mxGeometry>
                </mxCell>
                <mxCell id="qsJm1ij4FR5lF7uQDItI-14" value="" style="endArrow=none;html=1;exitX=1;exitY=0.5;exitDx=0;exitDy=0;entryX=0;entryY=0;entryDx=0;entryDy=0;" parent="1" source="qsJm1ij4FR5lF7uQDItI-1" target="qsJm1ij4FR5lF7uQDItI-3" edge="1">
                    <mxGeometry width="50" height="50" relative="1" as="geometry">
                        <mxPoint x="250" y="140" as="sourcePoint"/>
                        <mxPoint x="300" y="90" as="targetPoint"/>
                    </mxGeometry>
                </mxCell>
                <mxCell id="qsJm1ij4FR5lF7uQDItI-15" value="" style="endArrow=none;html=1;exitX=0.5;exitY=0;exitDx=0;exitDy=0;entryX=0;entryY=1;entryDx=0;entryDy=0;" parent="1" source="qsJm1ij4FR5lF7uQDItI-4" target="qsJm1ij4FR5lF7uQDItI-2" edge="1">
                    <mxGeometry width="50" height="50" relative="1" as="geometry">
                        <mxPoint x="130" y="180" as="sourcePoint"/>
                        <mxPoint x="180" y="130" as="targetPoint"/>
                    </mxGeometry>
                </mxCell>
                <mxCell id="qsJm1ij4FR5lF7uQDItI-16" value="" style="endArrow=none;html=1;exitX=1;exitY=1;exitDx=0;exitDy=0;entryX=0.5;entryY=0;entryDx=0;entryDy=0;" parent="1" source="qsJm1ij4FR5lF7uQDItI-2" target="qsJm1ij4FR5lF7uQDItI-5" edge="1">
                    <mxGeometry width="50" height="50" relative="1" as="geometry">
                        <mxPoint x="210" y="200" as="sourcePoint"/>
                        <mxPoint x="260" y="150" as="targetPoint"/>
                    </mxGeometry>
                </mxCell>
                <mxCell id="qsJm1ij4FR5lF7uQDItI-18" value="" style="endArrow=none;html=1;exitX=0.5;exitY=0;exitDx=0;exitDy=0;entryX=0;entryY=1;entryDx=0;entryDy=0;" parent="1" source="qsJm1ij4FR5lF7uQDItI-11" target="qsJm1ij4FR5lF7uQDItI-5" edge="1">
                    <mxGeometry width="50" height="50" relative="1" as="geometry">
                        <mxPoint x="200" y="200" as="sourcePoint"/>
                        <mxPoint x="250" y="150" as="targetPoint"/>
                    </mxGeometry>
                </mxCell>
                <mxCell id="qsJm1ij4FR5lF7uQDItI-19" value="" style="endArrow=none;html=1;exitX=1;exitY=1;exitDx=0;exitDy=0;entryX=0.5;entryY=0;entryDx=0;entryDy=0;" parent="1" source="qsJm1ij4FR5lF7uQDItI-5" target="qsJm1ij4FR5lF7uQDItI-10" edge="1">
                    <mxGeometry width="50" height="50" relative="1" as="geometry">
                        <mxPoint x="240" y="220" as="sourcePoint"/>
                        <mxPoint x="290" y="170" as="targetPoint"/>
                    </mxGeometry>
                </mxCell>
                <mxCell id="qsJm1ij4FR5lF7uQDItI-20" value="" style="endArrow=none;html=1;exitX=0.5;exitY=0;exitDx=0;exitDy=0;entryX=0;entryY=1;entryDx=0;entryDy=0;" parent="1" source="qsJm1ij4FR5lF7uQDItI-12" target="qsJm1ij4FR5lF7uQDItI-11" edge="1">
                    <mxGeometry width="50" height="50" relative="1" as="geometry">
                        <mxPoint x="160" y="280" as="sourcePoint"/>
                        <mxPoint x="210" y="230" as="targetPoint"/>
                    </mxGeometry>
                </mxCell>
                <mxCell id="qsJm1ij4FR5lF7uQDItI-21" value="" style="endArrow=none;html=1;entryX=1;entryY=1;entryDx=0;entryDy=0;exitX=0.5;exitY=0;exitDx=0;exitDy=0;" parent="1" source="qsJm1ij4FR5lF7uQDItI-9" target="qsJm1ij4FR5lF7uQDItI-3" edge="1">
                    <mxGeometry width="50" height="50" relative="1" as="geometry">
                        <mxPoint x="270" y="230" as="sourcePoint"/>
                        <mxPoint x="320" y="180" as="targetPoint"/>
                    </mxGeometry>
                </mxCell>
                <mxCell id="qsJm1ij4FR5lF7uQDItI-27" value="" style="endArrow=none;html=1;entryX=0;entryY=1;entryDx=0;entryDy=0;" parent="1" target="qsJm1ij4FR5lF7uQDItI-4" edge="1">
                    <mxGeometry width="50" height="50" relative="1" as="geometry">
                        <mxPoint x="100" y="190" as="sourcePoint"/>
                        <mxPoint x="140" y="170" as="targetPoint"/>
                    </mxGeometry>
                </mxCell>
                <mxCell id="qsJm1ij4FR5lF7uQDItI-28" value="" style="endArrow=none;html=1;exitX=1;exitY=1;exitDx=0;exitDy=0;entryX=0.5;entryY=0;entryDx=0;entryDy=0;" parent="1" source="qsJm1ij4FR5lF7uQDItI-4" target="qsJm1ij4FR5lF7uQDItI-24" edge="1">
                    <mxGeometry width="50" height="50" relative="1" as="geometry">
                        <mxPoint x="140" y="210" as="sourcePoint"/>
                        <mxPoint x="190" y="160" as="targetPoint"/>
                    </mxGeometry>
                </mxCell>
                <mxCell id="qsJm1ij4FR5lF7uQDItI-30" value="" style="endArrow=none;html=1;exitX=1;exitY=1;exitDx=0;exitDy=0;entryX=0.5;entryY=0;entryDx=0;entryDy=0;" parent="1" source="qsJm1ij4FR5lF7uQDItI-11" target="qsJm1ij4FR5lF7uQDItI-29" edge="1">
                    <mxGeometry width="50" height="50" relative="1" as="geometry">
                        <mxPoint x="200" y="310" as="sourcePoint"/>
                        <mxPoint x="250" y="260" as="targetPoint"/>
                    </mxGeometry>
                </mxCell>
                <mxCell id="qsJm1ij4FR5lF7uQDItI-33" value="" style="endArrow=none;html=1;exitX=0.25;exitY=0;exitDx=0;exitDy=0;entryX=0;entryY=1;entryDx=0;entryDy=0;" parent="1" source="qsJm1ij4FR5lF7uQDItI-32" target="qsJm1ij4FR5lF7uQDItI-10" edge="1">
                    <mxGeometry width="50" height="50" relative="1" as="geometry">
                        <mxPoint x="240" y="250" as="sourcePoint"/>
                        <mxPoint x="204" y="207" as="targetPoint"/>
                    </mxGeometry>
                </mxCell>
                <mxCell id="qsJm1ij4FR5lF7uQDItI-34" value="" style="endArrow=none;html=1;exitX=1;exitY=1;exitDx=0;exitDy=0;entryX=0.25;entryY=0;entryDx=0;entryDy=0;" parent="1" source="qsJm1ij4FR5lF7uQDItI-10" target="qsJm1ij4FR5lF7uQDItI-31" edge="1">
                    <mxGeometry width="50" height="50" relative="1" as="geometry">
                        <mxPoint x="260" y="240" as="sourcePoint"/>
                        <mxPoint x="240" y="230" as="targetPoint"/>
                    </mxGeometry>
                </mxCell>
                <mxCell id="qsJm1ij4FR5lF7uQDItI-38" value="" style="endArrow=none;html=1;entryX=0;entryY=1;entryDx=0;entryDy=0;exitX=0.25;exitY=0;exitDx=0;exitDy=0;" parent="1" source="qsJm1ij4FR5lF7uQDItI-35" target="qsJm1ij4FR5lF7uQDItI-3" edge="1">
                    <mxGeometry width="50" height="50" relative="1" as="geometry">
                        <mxPoint x="210" y="170" as="sourcePoint"/>
                        <mxPoint x="260" y="120" as="targetPoint"/>
                    </mxGeometry>
                </mxCell>
                <mxCell id="qsJm1ij4FR5lF7uQDItI-42" value="" style="endArrow=none;html=1;entryX=0;entryY=1;entryDx=0;entryDy=0;exitX=0.25;exitY=0;exitDx=0;exitDy=0;" parent="1" source="qsJm1ij4FR5lF7uQDItI-36" target="qsJm1ij4FR5lF7uQDItI-9" edge="1">
                    <mxGeometry width="50" height="50" relative="1" as="geometry">
                        <mxPoint x="260" y="280" as="sourcePoint"/>
                        <mxPoint x="310" y="230" as="targetPoint"/>
                    </mxGeometry>
                </mxCell>
                <mxCell id="qsJm1ij4FR5lF7uQDItI-43" value="" style="endArrow=none;html=1;entryX=1;entryY=1;entryDx=0;entryDy=0;exitX=0.5;exitY=0;exitDx=0;exitDy=0;" parent="1" source="qsJm1ij4FR5lF7uQDItI-37" target="qsJm1ij4FR5lF7uQDItI-9" edge="1">
                    <mxGeometry width="50" height="50" relative="1" as="geometry">
                        <mxPoint x="300" y="300" as="sourcePoint"/>
                        <mxPoint x="350" y="250" as="targetPoint"/>
                    </mxGeometry>
                </mxCell>
                <mxCell id="qsJm1ij4FR5lF7uQDItI-47" value="" style="endArrow=none;html=1;entryX=0;entryY=1;entryDx=0;entryDy=0;exitX=0.5;exitY=0;exitDx=0;exitDy=0;" parent="1" source="qsJm1ij4FR5lF7uQDItI-45" target="qsJm1ij4FR5lF7uQDItI-12" edge="1">
                    <mxGeometry width="50" height="50" relative="1" as="geometry">
                        <mxPoint x="110" y="290" as="sourcePoint"/>
                        <mxPoint x="160" y="240" as="targetPoint"/>
                    </mxGeometry>
                </mxCell>
                <mxCell id="qsJm1ij4FR5lF7uQDItI-48" value="" style="endArrow=none;html=1;entryX=1;entryY=1;entryDx=0;entryDy=0;exitX=0.5;exitY=0;exitDx=0;exitDy=0;" parent="1" source="qsJm1ij4FR5lF7uQDItI-46" target="qsJm1ij4FR5lF7uQDItI-12" edge="1">
                    <mxGeometry width="50" height="50" relative="1" as="geometry">
                        <mxPoint x="90" y="350" as="sourcePoint"/>
                        <mxPoint x="140" y="300" as="targetPoint"/>
                    </mxGeometry>
                </mxCell>
                <mxCell id="qsJm1ij4FR5lF7uQDItI-1" value="80" style="ellipse;whiteSpace=wrap;html=1;aspect=fixed;fillColor=#FFFFFF;" parent="1" vertex="1">
                    <mxGeometry x="200" y="80" width="20" height="20" as="geometry"/>
                </mxCell>
                <mxCell id="qsJm1ij4FR5lF7uQDItI-4" value="20" style="ellipse;whiteSpace=wrap;html=1;aspect=fixed;fillColor=#FFFFFF;" parent="1" vertex="1">
                    <mxGeometry x="110" y="150" width="20" height="20" as="geometry"/>
                </mxCell>
                <mxCell id="qsJm1ij4FR5lF7uQDItI-5" value="60" style="ellipse;whiteSpace=wrap;html=1;aspect=fixed;fillColor=#FFFFFF;" parent="1" vertex="1">
                    <mxGeometry x="170" y="150" width="20" height="20" as="geometry"/>
                </mxCell>
                <mxCell id="qsJm1ij4FR5lF7uQDItI-9" value="140" style="ellipse;whiteSpace=wrap;html=1;aspect=fixed;fillColor=#FF3333;" parent="1" vertex="1">
                    <mxGeometry x="290" y="150" width="20" height="20" as="geometry"/>
                </mxCell>
                <mxCell id="qsJm1ij4FR5lF7uQDItI-22" value="NIL" style="rounded=0;whiteSpace=wrap;html=1;fillColor=#FFFFFF;" parent="1" vertex="1">
                    <mxGeometry x="90" y="190" width="20" height="10" as="geometry"/>
                </mxCell>
                <mxCell id="qsJm1ij4FR5lF7uQDItI-24" value="NIL" style="rounded=0;whiteSpace=wrap;html=1;fillColor=#FFFFFF;" parent="1" vertex="1">
                    <mxGeometry x="125" y="190" width="20" height="10" as="geometry"/>
                </mxCell>
                <mxCell id="qsJm1ij4FR5lF7uQDItI-29" value="NIL" style="rounded=0;whiteSpace=wrap;html=1;fillColor=#FFFFFF;" parent="1" vertex="1">
                    <mxGeometry x="166" y="235" width="20" height="10" as="geometry"/>
                </mxCell>
                <mxCell id="qsJm1ij4FR5lF7uQDItI-31" value="NIL" style="rounded=0;whiteSpace=wrap;html=1;fillColor=#FFFFFF;" parent="1" vertex="1">
                    <mxGeometry x="221" y="235" width="20" height="10" as="geometry"/>
                </mxCell>
                <mxCell id="qsJm1ij4FR5lF7uQDItI-32" value="NIL" style="rounded=0;whiteSpace=wrap;html=1;fillColor=#FFFFFF;" parent="1" vertex="1">
                    <mxGeometry x="191" y="235" width="20" height="10" as="geometry"/>
                </mxCell>
                <mxCell id="qsJm1ij4FR5lF7uQDItI-35" value="NIL" style="rounded=0;whiteSpace=wrap;html=1;fillColor=#FFFFFF;" parent="1" vertex="1">
                    <mxGeometry x="240" y="155" width="20" height="10" as="geometry"/>
                </mxCell>
                <mxCell id="qsJm1ij4FR5lF7uQDItI-36" value="NIL" style="rounded=0;whiteSpace=wrap;html=1;fillColor=#FFFFFF;" parent="1" vertex="1">
                    <mxGeometry x="280" y="190" width="20" height="10" as="geometry"/>
                </mxCell>
                <mxCell id="qsJm1ij4FR5lF7uQDItI-37" value="NIL" style="rounded=0;whiteSpace=wrap;html=1;fillColor=#FFFFFF;" parent="1" vertex="1">
                    <mxGeometry x="310" y="190" width="20" height="10" as="geometry"/>
                </mxCell>
                <mxCell id="qsJm1ij4FR5lF7uQDItI-45" value="NIL" style="rounded=0;whiteSpace=wrap;html=1;fillColor=#FFFFFF;" parent="1" vertex="1">
                    <mxGeometry x="105" y="270" width="20" height="10" as="geometry"/>
                </mxCell>
                <mxCell id="qsJm1ij4FR5lF7uQDItI-46" value="NIL" style="rounded=0;whiteSpace=wrap;html=1;fillColor=#FFFFFF;" parent="1" vertex="1">
                    <mxGeometry x="150" y="270" width="20" height="10" as="geometry"/>
                </mxCell>
                <mxCell id="qsJm1ij4FR5lF7uQDItI-50" value="40" style="ellipse;whiteSpace=wrap;html=1;aspect=fixed;fillColor=#FF3333;" parent="1" vertex="1">
                    <mxGeometry x="440" y="115" width="20" height="20" as="geometry"/>
                </mxCell>
                <mxCell id="qsJm1ij4FR5lF7uQDItI-51" value="120" style="ellipse;whiteSpace=wrap;html=1;aspect=fixed;fillColor=#FFFFFF;" parent="1" vertex="1">
                    <mxGeometry x="560" y="115" width="20" height="20" as="geometry"/>
                </mxCell>
                <mxCell id="qsJm1ij4FR5lF7uQDItI-52" value="70" style="ellipse;whiteSpace=wrap;html=1;aspect=fixed;fillColor=#FFFFFF;" parent="1" vertex="1">
                    <mxGeometry x="500" y="190" width="20" height="20" as="geometry"/>
                </mxCell>
                <mxCell id="qsJm1ij4FR5lF7uQDItI-53" value="50" style="ellipse;whiteSpace=wrap;html=1;aspect=fixed;fillColor=#FFFFFF;" parent="1" vertex="1">
                    <mxGeometry x="450" y="190" width="20" height="20" as="geometry"/>
                </mxCell>
                <mxCell id="qsJm1ij4FR5lF7uQDItI-54" value="52" style="ellipse;whiteSpace=wrap;html=1;aspect=fixed;fillColor=#FF3333;" parent="1" vertex="1">
                    <mxGeometry x="430" y="230" width="20" height="20" as="geometry"/>
                </mxCell>
                <mxCell id="qsJm1ij4FR5lF7uQDItI-55" value="" style="endArrow=none;html=1;exitX=1;exitY=0;exitDx=0;exitDy=0;entryX=0;entryY=0.5;entryDx=0;entryDy=0;" parent="1" source="qsJm1ij4FR5lF7uQDItI-50" target="qsJm1ij4FR5lF7uQDItI-73" edge="1">
                    <mxGeometry width="50" height="50" relative="1" as="geometry">
                        <mxPoint x="480" y="140" as="sourcePoint"/>
                        <mxPoint x="510" y="100" as="targetPoint"/>
                    </mxGeometry>
                </mxCell>
                <mxCell id="qsJm1ij4FR5lF7uQDItI-56" value="" style="endArrow=none;html=1;exitX=1;exitY=0.5;exitDx=0;exitDy=0;entryX=0;entryY=0;entryDx=0;entryDy=0;" parent="1" source="qsJm1ij4FR5lF7uQDItI-73" target="qsJm1ij4FR5lF7uQDItI-51" edge="1">
                    <mxGeometry width="50" height="50" relative="1" as="geometry">
                        <mxPoint x="550" y="140" as="sourcePoint"/>
                        <mxPoint x="600" y="90" as="targetPoint"/>
                    </mxGeometry>
                </mxCell>
                <mxCell id="qsJm1ij4FR5lF7uQDItI-57" value="" style="endArrow=none;html=1;exitX=0.5;exitY=0;exitDx=0;exitDy=0;entryX=0;entryY=1;entryDx=0;entryDy=0;" parent="1" source="qsJm1ij4FR5lF7uQDItI-74" target="qsJm1ij4FR5lF7uQDItI-50" edge="1">
                    <mxGeometry width="50" height="50" relative="1" as="geometry">
                        <mxPoint x="430" y="180" as="sourcePoint"/>
                        <mxPoint x="480" y="130" as="targetPoint"/>
                    </mxGeometry>
                </mxCell>
                <mxCell id="qsJm1ij4FR5lF7uQDItI-58" value="" style="endArrow=none;html=1;exitX=1;exitY=1;exitDx=0;exitDy=0;entryX=0.5;entryY=0;entryDx=0;entryDy=0;" parent="1" source="qsJm1ij4FR5lF7uQDItI-50" target="qsJm1ij4FR5lF7uQDItI-75" edge="1">
                    <mxGeometry width="50" height="50" relative="1" as="geometry">
                        <mxPoint x="510" y="200" as="sourcePoint"/>
                        <mxPoint x="560" y="150" as="targetPoint"/>
                    </mxGeometry>
                </mxCell>
                <mxCell id="qsJm1ij4FR5lF7uQDItI-59" value="" style="endArrow=none;html=1;exitX=0.5;exitY=0;exitDx=0;exitDy=0;entryX=0;entryY=1;entryDx=0;entryDy=0;" parent="1" source="qsJm1ij4FR5lF7uQDItI-53" target="qsJm1ij4FR5lF7uQDItI-75" edge="1">
                    <mxGeometry width="50" height="50" relative="1" as="geometry">
                        <mxPoint x="500" y="200" as="sourcePoint"/>
                        <mxPoint x="550" y="150" as="targetPoint"/>
                    </mxGeometry>
                </mxCell>
                <mxCell id="qsJm1ij4FR5lF7uQDItI-60" value="" style="endArrow=none;html=1;exitX=1;exitY=1;exitDx=0;exitDy=0;entryX=0.5;entryY=0;entryDx=0;entryDy=0;" parent="1" source="qsJm1ij4FR5lF7uQDItI-75" target="qsJm1ij4FR5lF7uQDItI-52" edge="1">
                    <mxGeometry width="50" height="50" relative="1" as="geometry">
                        <mxPoint x="540" y="220" as="sourcePoint"/>
                        <mxPoint x="590" y="170" as="targetPoint"/>
                    </mxGeometry>
                </mxCell>
                <mxCell id="qsJm1ij4FR5lF7uQDItI-61" value="" style="endArrow=none;html=1;exitX=0.5;exitY=0;exitDx=0;exitDy=0;entryX=0;entryY=1;entryDx=0;entryDy=0;" parent="1" source="qsJm1ij4FR5lF7uQDItI-54" target="qsJm1ij4FR5lF7uQDItI-53" edge="1">
                    <mxGeometry width="50" height="50" relative="1" as="geometry">
                        <mxPoint x="460" y="280" as="sourcePoint"/>
                        <mxPoint x="510" y="230" as="targetPoint"/>
                    </mxGeometry>
                </mxCell>
                <mxCell id="qsJm1ij4FR5lF7uQDItI-62" value="" style="endArrow=none;html=1;entryX=1;entryY=1;entryDx=0;entryDy=0;exitX=0.5;exitY=0;exitDx=0;exitDy=0;" parent="1" source="qsJm1ij4FR5lF7uQDItI-76" target="qsJm1ij4FR5lF7uQDItI-51" edge="1">
                    <mxGeometry width="50" height="50" relative="1" as="geometry">
                        <mxPoint x="570" y="230" as="sourcePoint"/>
                        <mxPoint x="620" y="180" as="targetPoint"/>
                    </mxGeometry>
                </mxCell>
                <mxCell id="qsJm1ij4FR5lF7uQDItI-63" value="" style="endArrow=none;html=1;entryX=0;entryY=1;entryDx=0;entryDy=0;" parent="1" target="qsJm1ij4FR5lF7uQDItI-74" edge="1">
                    <mxGeometry width="50" height="50" relative="1" as="geometry">
                        <mxPoint x="399.9999999999999" y="190" as="sourcePoint"/>
                        <mxPoint x="440" y="170" as="targetPoint"/>
                    </mxGeometry>
                </mxCell>
                <mxCell id="qsJm1ij4FR5lF7uQDItI-64" value="" style="endArrow=none;html=1;exitX=1;exitY=1;exitDx=0;exitDy=0;entryX=0.5;entryY=0;entryDx=0;entryDy=0;" parent="1" source="qsJm1ij4FR5lF7uQDItI-74" target="qsJm1ij4FR5lF7uQDItI-78" edge="1">
                    <mxGeometry width="50" height="50" relative="1" as="geometry">
                        <mxPoint x="440" y="210" as="sourcePoint"/>
                        <mxPoint x="490" y="160" as="targetPoint"/>
                    </mxGeometry>
                </mxCell>
                <mxCell id="qsJm1ij4FR5lF7uQDItI-65" value="" style="endArrow=none;html=1;exitX=1;exitY=1;exitDx=0;exitDy=0;entryX=0.5;entryY=0;entryDx=0;entryDy=0;" parent="1" source="qsJm1ij4FR5lF7uQDItI-53" target="qsJm1ij4FR5lF7uQDItI-79" edge="1">
                    <mxGeometry width="50" height="50" relative="1" as="geometry">
                        <mxPoint x="500" y="310" as="sourcePoint"/>
                        <mxPoint x="550" y="260" as="targetPoint"/>
                    </mxGeometry>
                </mxCell>
                <mxCell id="qsJm1ij4FR5lF7uQDItI-66" value="" style="endArrow=none;html=1;exitX=0.25;exitY=0;exitDx=0;exitDy=0;entryX=0;entryY=1;entryDx=0;entryDy=0;" parent="1" source="qsJm1ij4FR5lF7uQDItI-81" target="qsJm1ij4FR5lF7uQDItI-52" edge="1">
                    <mxGeometry width="50" height="50" relative="1" as="geometry">
                        <mxPoint x="540" y="250" as="sourcePoint"/>
                        <mxPoint x="504" y="207" as="targetPoint"/>
                    </mxGeometry>
                </mxCell>
                <mxCell id="qsJm1ij4FR5lF7uQDItI-67" value="" style="endArrow=none;html=1;exitX=1;exitY=1;exitDx=0;exitDy=0;entryX=0.25;entryY=0;entryDx=0;entryDy=0;" parent="1" source="qsJm1ij4FR5lF7uQDItI-52" target="qsJm1ij4FR5lF7uQDItI-80" edge="1">
                    <mxGeometry width="50" height="50" relative="1" as="geometry">
                        <mxPoint x="560" y="240" as="sourcePoint"/>
                        <mxPoint x="540" y="230" as="targetPoint"/>
                    </mxGeometry>
                </mxCell>
                <mxCell id="qsJm1ij4FR5lF7uQDItI-68" value="" style="endArrow=none;html=1;entryX=0;entryY=1;entryDx=0;entryDy=0;exitX=0.25;exitY=0;exitDx=0;exitDy=0;" parent="1" source="qsJm1ij4FR5lF7uQDItI-82" target="qsJm1ij4FR5lF7uQDItI-51" edge="1">
                    <mxGeometry width="50" height="50" relative="1" as="geometry">
                        <mxPoint x="510" y="170" as="sourcePoint"/>
                        <mxPoint x="560" y="120" as="targetPoint"/>
                    </mxGeometry>
                </mxCell>
                <mxCell id="qsJm1ij4FR5lF7uQDItI-69" value="" style="endArrow=none;html=1;entryX=0;entryY=1;entryDx=0;entryDy=0;exitX=0.25;exitY=0;exitDx=0;exitDy=0;" parent="1" source="qsJm1ij4FR5lF7uQDItI-83" target="qsJm1ij4FR5lF7uQDItI-76" edge="1">
                    <mxGeometry width="50" height="50" relative="1" as="geometry">
                        <mxPoint x="560" y="280" as="sourcePoint"/>
                        <mxPoint x="610" y="230" as="targetPoint"/>
                    </mxGeometry>
                </mxCell>
                <mxCell id="qsJm1ij4FR5lF7uQDItI-70" value="" style="endArrow=none;html=1;entryX=1;entryY=1;entryDx=0;entryDy=0;exitX=0.5;exitY=0;exitDx=0;exitDy=0;" parent="1" source="qsJm1ij4FR5lF7uQDItI-84" target="qsJm1ij4FR5lF7uQDItI-76" edge="1">
                    <mxGeometry width="50" height="50" relative="1" as="geometry">
                        <mxPoint x="600" y="300" as="sourcePoint"/>
                        <mxPoint x="650" y="250" as="targetPoint"/>
                    </mxGeometry>
                </mxCell>
                <mxCell id="qsJm1ij4FR5lF7uQDItI-71" value="" style="endArrow=none;html=1;entryX=0;entryY=1;entryDx=0;entryDy=0;exitX=0.5;exitY=0;exitDx=0;exitDy=0;" parent="1" source="qsJm1ij4FR5lF7uQDItI-85" target="qsJm1ij4FR5lF7uQDItI-54" edge="1">
                    <mxGeometry width="50" height="50" relative="1" as="geometry">
                        <mxPoint x="410" y="290" as="sourcePoint"/>
                        <mxPoint x="460" y="240" as="targetPoint"/>
                    </mxGeometry>
                </mxCell>
                <mxCell id="qsJm1ij4FR5lF7uQDItI-72" value="" style="endArrow=none;html=1;entryX=1;entryY=1;entryDx=0;entryDy=0;exitX=0.5;exitY=0;exitDx=0;exitDy=0;" parent="1" source="qsJm1ij4FR5lF7uQDItI-86" target="qsJm1ij4FR5lF7uQDItI-54" edge="1">
                    <mxGeometry width="50" height="50" relative="1" as="geometry">
                        <mxPoint x="390" y="350" as="sourcePoint"/>
                        <mxPoint x="440" y="300" as="targetPoint"/>
                    </mxGeometry>
                </mxCell>
                <mxCell id="qsJm1ij4FR5lF7uQDItI-73" value="80" style="ellipse;whiteSpace=wrap;html=1;aspect=fixed;fillColor=#FFFFFF;" parent="1" vertex="1">
                    <mxGeometry x="500" y="80" width="20" height="20" as="geometry"/>
                </mxCell>
                <mxCell id="qsJm1ij4FR5lF7uQDItI-74" value="20" style="ellipse;whiteSpace=wrap;html=1;aspect=fixed;fillColor=#FFFFFF;" parent="1" vertex="1">
                    <mxGeometry x="410" y="150" width="20" height="20" as="geometry"/>
                </mxCell>
                <mxCell id="qsJm1ij4FR5lF7uQDItI-75" value="60" style="ellipse;whiteSpace=wrap;html=1;aspect=fixed;fillColor=#FF3333;" parent="1" vertex="1">
                    <mxGeometry x="470" y="150" width="20" height="20" as="geometry"/>
                </mxCell>
                <mxCell id="qsJm1ij4FR5lF7uQDItI-76" value="140" style="ellipse;whiteSpace=wrap;html=1;aspect=fixed;fillColor=#FF3333;" parent="1" vertex="1">
                    <mxGeometry x="590" y="150" width="20" height="20" as="geometry"/>
                </mxCell>
                <mxCell id="qsJm1ij4FR5lF7uQDItI-77" value="NIL" style="rounded=0;whiteSpace=wrap;html=1;fillColor=#FFFFFF;" parent="1" vertex="1">
                    <mxGeometry x="390" y="190" width="20" height="10" as="geometry"/>
                </mxCell>
                <mxCell id="qsJm1ij4FR5lF7uQDItI-78" value="NIL" style="rounded=0;whiteSpace=wrap;html=1;fillColor=#FFFFFF;" parent="1" vertex="1">
                    <mxGeometry x="425" y="190" width="20" height="10" as="geometry"/>
                </mxCell>
                <mxCell id="qsJm1ij4FR5lF7uQDItI-79" value="NIL" style="rounded=0;whiteSpace=wrap;html=1;fillColor=#FFFFFF;" parent="1" vertex="1">
                    <mxGeometry x="466" y="235" width="20" height="10" as="geometry"/>
                </mxCell>
                <mxCell id="qsJm1ij4FR5lF7uQDItI-80" value="NIL" style="rounded=0;whiteSpace=wrap;html=1;fillColor=#FFFFFF;" parent="1" vertex="1">
                    <mxGeometry x="521" y="235" width="20" height="10" as="geometry"/>
                </mxCell>
                <mxCell id="qsJm1ij4FR5lF7uQDItI-81" value="NIL" style="rounded=0;whiteSpace=wrap;html=1;fillColor=#FFFFFF;" parent="1" vertex="1">
                    <mxGeometry x="491" y="235" width="20" height="10" as="geometry"/>
                </mxCell>
                <mxCell id="qsJm1ij4FR5lF7uQDItI-82" value="NIL" style="rounded=0;whiteSpace=wrap;html=1;fillColor=#FFFFFF;" parent="1" vertex="1">
                    <mxGeometry x="540" y="155" width="20" height="10" as="geometry"/>
                </mxCell>
                <mxCell id="qsJm1ij4FR5lF7uQDItI-83" value="NIL" style="rounded=0;whiteSpace=wrap;html=1;fillColor=#FFFFFF;" parent="1" vertex="1">
                    <mxGeometry x="580" y="190" width="20" height="10" as="geometry"/>
                </mxCell>
                <mxCell id="qsJm1ij4FR5lF7uQDItI-84" value="NIL" style="rounded=0;whiteSpace=wrap;html=1;fillColor=#FFFFFF;" parent="1" vertex="1">
                    <mxGeometry x="610" y="190" width="20" height="10" as="geometry"/>
                </mxCell>
                <mxCell id="qsJm1ij4FR5lF7uQDItI-85" value="NIL" style="rounded=0;whiteSpace=wrap;html=1;fillColor=#FFFFFF;" parent="1" vertex="1">
                    <mxGeometry x="405" y="270" width="20" height="10" as="geometry"/>
                </mxCell>
                <mxCell id="qsJm1ij4FR5lF7uQDItI-86" value="NIL" style="rounded=0;whiteSpace=wrap;html=1;fillColor=#FFFFFF;" parent="1" vertex="1">
                    <mxGeometry x="450" y="270" width="20" height="10" as="geometry"/>
                </mxCell>
                <mxCell id="qsJm1ij4FR5lF7uQDItI-87" value="40" style="ellipse;whiteSpace=wrap;html=1;aspect=fixed;fillColor=#FF3333;" parent="1" vertex="1">
                    <mxGeometry x="140" y="355" width="20" height="20" as="geometry"/>
                </mxCell>
                <mxCell id="qsJm1ij4FR5lF7uQDItI-88" value="120" style="ellipse;whiteSpace=wrap;html=1;aspect=fixed;fillColor=#FFFFFF;" parent="1" vertex="1">
                    <mxGeometry x="260" y="355" width="20" height="20" as="geometry"/>
                </mxCell>
                <mxCell id="qsJm1ij4FR5lF7uQDItI-89" value="70" style="ellipse;whiteSpace=wrap;html=1;aspect=fixed;fillColor=#FFFFFF;" parent="1" vertex="1">
                    <mxGeometry x="200" y="430" width="20" height="20" as="geometry"/>
                </mxCell>
                <mxCell id="qsJm1ij4FR5lF7uQDItI-90" value="50" style="ellipse;whiteSpace=wrap;html=1;aspect=fixed;fillColor=#FFFFFF;" parent="1" vertex="1">
                    <mxGeometry x="150" y="430" width="20" height="20" as="geometry"/>
                </mxCell>
                <mxCell id="qsJm1ij4FR5lF7uQDItI-91" value="52" style="ellipse;whiteSpace=wrap;html=1;aspect=fixed;fillColor=#FF3333;" parent="1" vertex="1">
                    <mxGeometry x="130" y="470" width="20" height="20" as="geometry"/>
                </mxCell>
                <mxCell id="qsJm1ij4FR5lF7uQDItI-92" value="" style="endArrow=none;html=1;exitX=1;exitY=0;exitDx=0;exitDy=0;entryX=0;entryY=0.5;entryDx=0;entryDy=0;" parent="1" source="qsJm1ij4FR5lF7uQDItI-87" target="qsJm1ij4FR5lF7uQDItI-110" edge="1">
                    <mxGeometry width="50" height="50" relative="1" as="geometry">
                        <mxPoint x="180" y="380" as="sourcePoint"/>
                        <mxPoint x="210" y="340" as="targetPoint"/>
                    </mxGeometry>
                </mxCell>
                <mxCell id="qsJm1ij4FR5lF7uQDItI-93" value="" style="endArrow=none;html=1;exitX=1;exitY=0.5;exitDx=0;exitDy=0;entryX=0;entryY=0;entryDx=0;entryDy=0;" parent="1" source="qsJm1ij4FR5lF7uQDItI-110" target="qsJm1ij4FR5lF7uQDItI-88" edge="1">
                    <mxGeometry width="50" height="50" relative="1" as="geometry">
                        <mxPoint x="250" y="380" as="sourcePoint"/>
                        <mxPoint x="300" y="330" as="targetPoint"/>
                    </mxGeometry>
                </mxCell>
                <mxCell id="qsJm1ij4FR5lF7uQDItI-94" value="" style="endArrow=none;html=1;exitX=0.5;exitY=0;exitDx=0;exitDy=0;entryX=0;entryY=1;entryDx=0;entryDy=0;" parent="1" source="qsJm1ij4FR5lF7uQDItI-111" target="qsJm1ij4FR5lF7uQDItI-87" edge="1">
                    <mxGeometry width="50" height="50" relative="1" as="geometry">
                        <mxPoint x="130" y="420" as="sourcePoint"/>
                        <mxPoint x="180" y="370" as="targetPoint"/>
                    </mxGeometry>
                </mxCell>
                <mxCell id="qsJm1ij4FR5lF7uQDItI-95" value="" style="endArrow=none;html=1;exitX=1;exitY=1;exitDx=0;exitDy=0;entryX=0.5;entryY=0;entryDx=0;entryDy=0;" parent="1" source="qsJm1ij4FR5lF7uQDItI-87" target="qsJm1ij4FR5lF7uQDItI-112" edge="1">
                    <mxGeometry width="50" height="50" relative="1" as="geometry">
                        <mxPoint x="210" y="440" as="sourcePoint"/>
                        <mxPoint x="260" y="390" as="targetPoint"/>
                    </mxGeometry>
                </mxCell>
                <mxCell id="qsJm1ij4FR5lF7uQDItI-96" value="" style="endArrow=none;html=1;exitX=0.5;exitY=0;exitDx=0;exitDy=0;entryX=0;entryY=1;entryDx=0;entryDy=0;" parent="1" source="qsJm1ij4FR5lF7uQDItI-90" target="qsJm1ij4FR5lF7uQDItI-112" edge="1">
                    <mxGeometry width="50" height="50" relative="1" as="geometry">
                        <mxPoint x="200" y="440" as="sourcePoint"/>
                        <mxPoint x="250" y="390" as="targetPoint"/>
                    </mxGeometry>
                </mxCell>
                <mxCell id="qsJm1ij4FR5lF7uQDItI-97" value="" style="endArrow=none;html=1;exitX=1;exitY=1;exitDx=0;exitDy=0;entryX=0.5;entryY=0;entryDx=0;entryDy=0;" parent="1" source="qsJm1ij4FR5lF7uQDItI-112" target="qsJm1ij4FR5lF7uQDItI-89" edge="1">
                    <mxGeometry width="50" height="50" relative="1" as="geometry">
                        <mxPoint x="240" y="460" as="sourcePoint"/>
                        <mxPoint x="290" y="410" as="targetPoint"/>
                    </mxGeometry>
                </mxCell>
                <mxCell id="qsJm1ij4FR5lF7uQDItI-98" value="" style="endArrow=none;html=1;exitX=0.5;exitY=0;exitDx=0;exitDy=0;entryX=0;entryY=1;entryDx=0;entryDy=0;" parent="1" source="qsJm1ij4FR5lF7uQDItI-91" target="qsJm1ij4FR5lF7uQDItI-90" edge="1">
                    <mxGeometry width="50" height="50" relative="1" as="geometry">
                        <mxPoint x="160" y="520" as="sourcePoint"/>
                        <mxPoint x="210" y="470" as="targetPoint"/>
                    </mxGeometry>
                </mxCell>
                <mxCell id="qsJm1ij4FR5lF7uQDItI-99" value="" style="endArrow=none;html=1;entryX=1;entryY=1;entryDx=0;entryDy=0;exitX=0.5;exitY=0;exitDx=0;exitDy=0;" parent="1" source="qsJm1ij4FR5lF7uQDItI-113" target="qsJm1ij4FR5lF7uQDItI-88" edge="1">
                    <mxGeometry width="50" height="50" relative="1" as="geometry">
                        <mxPoint x="270" y="470" as="sourcePoint"/>
                        <mxPoint x="320" y="420" as="targetPoint"/>
                    </mxGeometry>
                </mxCell>
                <mxCell id="qsJm1ij4FR5lF7uQDItI-100" value="" style="endArrow=none;html=1;entryX=0;entryY=1;entryDx=0;entryDy=0;" parent="1" target="qsJm1ij4FR5lF7uQDItI-111" edge="1">
                    <mxGeometry width="50" height="50" relative="1" as="geometry">
                        <mxPoint x="100" y="430" as="sourcePoint"/>
                        <mxPoint x="140" y="410" as="targetPoint"/>
                    </mxGeometry>
                </mxCell>
                <mxCell id="qsJm1ij4FR5lF7uQDItI-101" value="" style="endArrow=none;html=1;exitX=1;exitY=1;exitDx=0;exitDy=0;entryX=0.5;entryY=0;entryDx=0;entryDy=0;" parent="1" source="qsJm1ij4FR5lF7uQDItI-111" target="qsJm1ij4FR5lF7uQDItI-115" edge="1">
                    <mxGeometry width="50" height="50" relative="1" as="geometry">
                        <mxPoint x="140" y="450" as="sourcePoint"/>
                        <mxPoint x="190" y="400" as="targetPoint"/>
                    </mxGeometry>
                </mxCell>
                <mxCell id="qsJm1ij4FR5lF7uQDItI-102" value="" style="endArrow=none;html=1;exitX=1;exitY=1;exitDx=0;exitDy=0;entryX=0.5;entryY=0;entryDx=0;entryDy=0;" parent="1" source="qsJm1ij4FR5lF7uQDItI-90" target="qsJm1ij4FR5lF7uQDItI-116" edge="1">
                    <mxGeometry width="50" height="50" relative="1" as="geometry">
                        <mxPoint x="200" y="550" as="sourcePoint"/>
                        <mxPoint x="250" y="500" as="targetPoint"/>
                    </mxGeometry>
                </mxCell>
                <mxCell id="qsJm1ij4FR5lF7uQDItI-103" value="" style="endArrow=none;html=1;exitX=0.25;exitY=0;exitDx=0;exitDy=0;entryX=0;entryY=1;entryDx=0;entryDy=0;" parent="1" source="qsJm1ij4FR5lF7uQDItI-118" target="qsJm1ij4FR5lF7uQDItI-89" edge="1">
                    <mxGeometry width="50" height="50" relative="1" as="geometry">
                        <mxPoint x="240" y="490" as="sourcePoint"/>
                        <mxPoint x="204" y="447" as="targetPoint"/>
                    </mxGeometry>
                </mxCell>
                <mxCell id="qsJm1ij4FR5lF7uQDItI-104" value="" style="endArrow=none;html=1;exitX=1;exitY=1;exitDx=0;exitDy=0;entryX=0.25;entryY=0;entryDx=0;entryDy=0;" parent="1" source="qsJm1ij4FR5lF7uQDItI-89" target="qsJm1ij4FR5lF7uQDItI-117" edge="1">
                    <mxGeometry width="50" height="50" relative="1" as="geometry">
                        <mxPoint x="260" y="480" as="sourcePoint"/>
                        <mxPoint x="240" y="470" as="targetPoint"/>
                    </mxGeometry>
                </mxCell>
                <mxCell id="qsJm1ij4FR5lF7uQDItI-105" value="" style="endArrow=none;html=1;entryX=0;entryY=1;entryDx=0;entryDy=0;exitX=0.25;exitY=0;exitDx=0;exitDy=0;" parent="1" source="qsJm1ij4FR5lF7uQDItI-119" target="qsJm1ij4FR5lF7uQDItI-88" edge="1">
                    <mxGeometry width="50" height="50" relative="1" as="geometry">
                        <mxPoint x="210" y="410" as="sourcePoint"/>
                        <mxPoint x="260" y="360" as="targetPoint"/>
                    </mxGeometry>
                </mxCell>
                <mxCell id="qsJm1ij4FR5lF7uQDItI-106" value="" style="endArrow=none;html=1;entryX=0;entryY=1;entryDx=0;entryDy=0;exitX=0.25;exitY=0;exitDx=0;exitDy=0;" parent="1" source="qsJm1ij4FR5lF7uQDItI-120" target="qsJm1ij4FR5lF7uQDItI-113" edge="1">
                    <mxGeometry width="50" height="50" relative="1" as="geometry">
                        <mxPoint x="260" y="520" as="sourcePoint"/>
                        <mxPoint x="310" y="470" as="targetPoint"/>
                    </mxGeometry>
                </mxCell>
                <mxCell id="qsJm1ij4FR5lF7uQDItI-107" value="" style="endArrow=none;html=1;entryX=1;entryY=1;entryDx=0;entryDy=0;exitX=0.5;exitY=0;exitDx=0;exitDy=0;" parent="1" source="qsJm1ij4FR5lF7uQDItI-121" target="qsJm1ij4FR5lF7uQDItI-113" edge="1">
                    <mxGeometry width="50" height="50" relative="1" as="geometry">
                        <mxPoint x="300" y="540" as="sourcePoint"/>
                        <mxPoint x="350" y="490" as="targetPoint"/>
                    </mxGeometry>
                </mxCell>
                <mxCell id="qsJm1ij4FR5lF7uQDItI-108" value="" style="endArrow=none;html=1;entryX=0;entryY=1;entryDx=0;entryDy=0;exitX=0.5;exitY=0;exitDx=0;exitDy=0;" parent="1" source="qsJm1ij4FR5lF7uQDItI-122" target="qsJm1ij4FR5lF7uQDItI-91" edge="1">
                    <mxGeometry width="50" height="50" relative="1" as="geometry">
                        <mxPoint x="110" y="530" as="sourcePoint"/>
                        <mxPoint x="160" y="480" as="targetPoint"/>
                    </mxGeometry>
                </mxCell>
                <mxCell id="qsJm1ij4FR5lF7uQDItI-109" value="" style="endArrow=none;html=1;entryX=1;entryY=1;entryDx=0;entryDy=0;exitX=0.5;exitY=0;exitDx=0;exitDy=0;" parent="1" source="qsJm1ij4FR5lF7uQDItI-123" target="qsJm1ij4FR5lF7uQDItI-91" edge="1">
                    <mxGeometry width="50" height="50" relative="1" as="geometry">
                        <mxPoint x="90" y="590" as="sourcePoint"/>
                        <mxPoint x="140" y="540" as="targetPoint"/>
                    </mxGeometry>
                </mxCell>
                <mxCell id="qsJm1ij4FR5lF7uQDItI-110" value="80" style="ellipse;whiteSpace=wrap;html=1;aspect=fixed;fillColor=#FFFFFF;" parent="1" vertex="1">
                    <mxGeometry x="200" y="320" width="20" height="20" as="geometry"/>
                </mxCell>
                <mxCell id="qsJm1ij4FR5lF7uQDItI-111" value="20" style="ellipse;whiteSpace=wrap;html=1;aspect=fixed;fillColor=#FFFFFF;" parent="1" vertex="1">
                    <mxGeometry x="110" y="390" width="20" height="20" as="geometry"/>
                </mxCell>
                <mxCell id="qsJm1ij4FR5lF7uQDItI-112" value="60" style="ellipse;whiteSpace=wrap;html=1;aspect=fixed;fillColor=#FF3333;" parent="1" vertex="1">
                    <mxGeometry x="170" y="390" width="20" height="20" as="geometry"/>
                </mxCell>
                <mxCell id="qsJm1ij4FR5lF7uQDItI-113" value="140" style="ellipse;whiteSpace=wrap;html=1;aspect=fixed;fillColor=#FFFFFF;" parent="1" vertex="1">
                    <mxGeometry x="290" y="390" width="20" height="20" as="geometry"/>
                </mxCell>
                <mxCell id="qsJm1ij4FR5lF7uQDItI-114" value="NIL" style="rounded=0;whiteSpace=wrap;html=1;fillColor=#FFFFFF;" parent="1" vertex="1">
                    <mxGeometry x="90" y="430" width="20" height="10" as="geometry"/>
                </mxCell>
                <mxCell id="qsJm1ij4FR5lF7uQDItI-115" value="NIL" style="rounded=0;whiteSpace=wrap;html=1;fillColor=#FFFFFF;" parent="1" vertex="1">
                    <mxGeometry x="125" y="430" width="20" height="10" as="geometry"/>
                </mxCell>
                <mxCell id="qsJm1ij4FR5lF7uQDItI-116" value="NIL" style="rounded=0;whiteSpace=wrap;html=1;fillColor=#FFFFFF;" parent="1" vertex="1">
                    <mxGeometry x="166" y="475" width="20" height="10" as="geometry"/>
                </mxCell>
                <mxCell id="qsJm1ij4FR5lF7uQDItI-117" value="NIL" style="rounded=0;whiteSpace=wrap;html=1;fillColor=#FFFFFF;" parent="1" vertex="1">
                    <mxGeometry x="221" y="475" width="20" height="10" as="geometry"/>
                </mxCell>
                <mxCell id="qsJm1ij4FR5lF7uQDItI-118" value="NIL" style="rounded=0;whiteSpace=wrap;html=1;fillColor=#FFFFFF;" parent="1" vertex="1">
                    <mxGeometry x="191" y="475" width="20" height="10" as="geometry"/>
                </mxCell>
                <mxCell id="qsJm1ij4FR5lF7uQDItI-119" value="NIL" style="rounded=0;whiteSpace=wrap;html=1;fillColor=#FFFFFF;" parent="1" vertex="1">
                    <mxGeometry x="240" y="395" width="20" height="10" as="geometry"/>
                </mxCell>
                <mxCell id="qsJm1ij4FR5lF7uQDItI-120" value="NIL" style="rounded=0;whiteSpace=wrap;html=1;fillColor=#FFFFFF;" parent="1" vertex="1">
                    <mxGeometry x="280" y="430" width="20" height="10" as="geometry"/>
                </mxCell>
                <mxCell id="qsJm1ij4FR5lF7uQDItI-121" value="NIL" style="rounded=0;whiteSpace=wrap;html=1;fillColor=#FFFFFF;" parent="1" vertex="1">
                    <mxGeometry x="310" y="430" width="20" height="10" as="geometry"/>
                </mxCell>
                <mxCell id="qsJm1ij4FR5lF7uQDItI-122" value="NIL" style="rounded=0;whiteSpace=wrap;html=1;fillColor=#FFFFFF;" parent="1" vertex="1">
                    <mxGeometry x="105" y="510" width="20" height="10" as="geometry"/>
                </mxCell>
                <mxCell id="qsJm1ij4FR5lF7uQDItI-123" value="NIL" style="rounded=0;whiteSpace=wrap;html=1;fillColor=#FFFFFF;" parent="1" vertex="1">
                    <mxGeometry x="150" y="510" width="20" height="10" as="geometry"/>
                </mxCell>
                <mxCell id="qsJm1ij4FR5lF7uQDItI-124" value="&lt;div style=&quot;color: rgb(212 , 212 , 212) ; background-color: rgb(30 , 30 , 30) ; font-family: &amp;#34;consolas&amp;#34; , &amp;#34;courier new&amp;#34; , monospace ; font-size: 14px ; line-height: 19px ; white-space: pre&quot;&gt;&lt;br&gt;&lt;/div&gt;" style="text;html=1;align=center;verticalAlign=middle;resizable=0;points=[];autosize=1;" parent="1" vertex="1">
                    <mxGeometry x="351" y="70" width="20" height="20" as="geometry"/>
                </mxCell>
                <mxCell id="qsJm1ij4FR5lF7uQDItI-125" value="" style="endArrow=classic;html=1;" parent="1" edge="1">
                    <mxGeometry width="50" height="50" relative="1" as="geometry">
                        <mxPoint x="255" y="99.31" as="sourcePoint"/>
                        <mxPoint x="470" y="99" as="targetPoint"/>
                    </mxGeometry>
                </mxCell>
                <mxCell id="qsJm1ij4FR5lF7uQDItI-126" value="当前结点的父结点和叔叔结点都为红色" style="text;html=1;align=center;verticalAlign=middle;resizable=0;points=[];autosize=1;" parent="1" vertex="1">
                    <mxGeometry x="245" y="80" width="220" height="20" as="geometry"/>
                </mxCell>
                <mxCell id="qsJm1ij4FR5lF7uQDItI-128" value="60" style="ellipse;whiteSpace=wrap;html=1;aspect=fixed;fillColor=#FF3333;" parent="1" vertex="1">
                    <mxGeometry x="455" y="355" width="20" height="20" as="geometry"/>
                </mxCell>
                <mxCell id="qsJm1ij4FR5lF7uQDItI-129" value="120" style="ellipse;whiteSpace=wrap;html=1;aspect=fixed;fillColor=#FFFFFF;" parent="1" vertex="1">
                    <mxGeometry x="575" y="355" width="20" height="20" as="geometry"/>
                </mxCell>
                <mxCell id="qsJm1ij4FR5lF7uQDItI-130" value="70" style="ellipse;whiteSpace=wrap;html=1;aspect=fixed;fillColor=#FFFFFF;" parent="1" vertex="1">
                    <mxGeometry x="500" y="390" width="20" height="20" as="geometry"/>
                </mxCell>
                <mxCell id="qsJm1ij4FR5lF7uQDItI-131" value="50" style="ellipse;whiteSpace=wrap;html=1;aspect=fixed;fillColor=#FFFFFF;" parent="1" vertex="1">
                    <mxGeometry x="465" y="430" width="20" height="20" as="geometry"/>
                </mxCell>
                <mxCell id="qsJm1ij4FR5lF7uQDItI-132" value="52" style="ellipse;whiteSpace=wrap;html=1;aspect=fixed;fillColor=#FF3333;" parent="1" vertex="1">
                    <mxGeometry x="445" y="470" width="20" height="20" as="geometry"/>
                </mxCell>
                <mxCell id="qsJm1ij4FR5lF7uQDItI-133" value="" style="endArrow=none;html=1;exitX=1;exitY=0;exitDx=0;exitDy=0;entryX=0;entryY=0.5;entryDx=0;entryDy=0;" parent="1" source="qsJm1ij4FR5lF7uQDItI-128" target="qsJm1ij4FR5lF7uQDItI-151" edge="1">
                    <mxGeometry width="50" height="50" relative="1" as="geometry">
                        <mxPoint x="495" y="380" as="sourcePoint"/>
                        <mxPoint x="525" y="340" as="targetPoint"/>
                    </mxGeometry>
                </mxCell>
                <mxCell id="qsJm1ij4FR5lF7uQDItI-134" value="" style="endArrow=none;html=1;exitX=1;exitY=0.5;exitDx=0;exitDy=0;entryX=0;entryY=0;entryDx=0;entryDy=0;" parent="1" source="qsJm1ij4FR5lF7uQDItI-151" target="qsJm1ij4FR5lF7uQDItI-129" edge="1">
                    <mxGeometry width="50" height="50" relative="1" as="geometry">
                        <mxPoint x="565" y="380" as="sourcePoint"/>
                        <mxPoint x="615" y="330" as="targetPoint"/>
                    </mxGeometry>
                </mxCell>
                <mxCell id="qsJm1ij4FR5lF7uQDItI-139" value="" style="endArrow=none;html=1;exitX=0.5;exitY=0;exitDx=0;exitDy=0;entryX=0;entryY=1;entryDx=0;entryDy=0;" parent="1" source="qsJm1ij4FR5lF7uQDItI-132" target="qsJm1ij4FR5lF7uQDItI-131" edge="1">
                    <mxGeometry width="50" height="50" relative="1" as="geometry">
                        <mxPoint x="475" y="520" as="sourcePoint"/>
                        <mxPoint x="525" y="470" as="targetPoint"/>
                    </mxGeometry>
                </mxCell>
                <mxCell id="qsJm1ij4FR5lF7uQDItI-140" value="" style="endArrow=none;html=1;entryX=1;entryY=1;entryDx=0;entryDy=0;exitX=0.5;exitY=0;exitDx=0;exitDy=0;" parent="1" source="qsJm1ij4FR5lF7uQDItI-154" target="qsJm1ij4FR5lF7uQDItI-129" edge="1">
                    <mxGeometry width="50" height="50" relative="1" as="geometry">
                        <mxPoint x="585" y="470" as="sourcePoint"/>
                        <mxPoint x="635" y="420" as="targetPoint"/>
                    </mxGeometry>
                </mxCell>
                <mxCell id="qsJm1ij4FR5lF7uQDItI-141" value="" style="endArrow=none;html=1;entryX=0;entryY=1;entryDx=0;entryDy=0;" parent="1" target="qsJm1ij4FR5lF7uQDItI-152" edge="1">
                    <mxGeometry width="50" height="50" relative="1" as="geometry">
                        <mxPoint x="390.9999999999999" y="470" as="sourcePoint"/>
                        <mxPoint x="431" y="450" as="targetPoint"/>
                    </mxGeometry>
                </mxCell>
                <mxCell id="qsJm1ij4FR5lF7uQDItI-142" value="" style="endArrow=none;html=1;exitX=1;exitY=1;exitDx=0;exitDy=0;entryX=0.5;entryY=0;entryDx=0;entryDy=0;" parent="1" source="qsJm1ij4FR5lF7uQDItI-152" target="qsJm1ij4FR5lF7uQDItI-156" edge="1">
                    <mxGeometry width="50" height="50" relative="1" as="geometry">
                        <mxPoint x="431" y="490" as="sourcePoint"/>
                        <mxPoint x="481" y="440" as="targetPoint"/>
                    </mxGeometry>
                </mxCell>
                <mxCell id="qsJm1ij4FR5lF7uQDItI-143" value="" style="endArrow=none;html=1;exitX=1;exitY=1;exitDx=0;exitDy=0;entryX=0.5;entryY=0;entryDx=0;entryDy=0;" parent="1" source="qsJm1ij4FR5lF7uQDItI-131" target="qsJm1ij4FR5lF7uQDItI-157" edge="1">
                    <mxGeometry width="50" height="50" relative="1" as="geometry">
                        <mxPoint x="515" y="550" as="sourcePoint"/>
                        <mxPoint x="565" y="500" as="targetPoint"/>
                    </mxGeometry>
                </mxCell>
                <mxCell id="qsJm1ij4FR5lF7uQDItI-144" value="" style="endArrow=none;html=1;exitX=0.25;exitY=0;exitDx=0;exitDy=0;entryX=0;entryY=1;entryDx=0;entryDy=0;" parent="1" source="qsJm1ij4FR5lF7uQDItI-159" target="qsJm1ij4FR5lF7uQDItI-130" edge="1">
                    <mxGeometry width="50" height="50" relative="1" as="geometry">
                        <mxPoint x="540" y="450" as="sourcePoint"/>
                        <mxPoint x="504" y="407" as="targetPoint"/>
                    </mxGeometry>
                </mxCell>
                <mxCell id="qsJm1ij4FR5lF7uQDItI-145" value="" style="endArrow=none;html=1;exitX=1;exitY=1;exitDx=0;exitDy=0;entryX=0.25;entryY=0;entryDx=0;entryDy=0;" parent="1" source="qsJm1ij4FR5lF7uQDItI-130" target="qsJm1ij4FR5lF7uQDItI-158" edge="1">
                    <mxGeometry width="50" height="50" relative="1" as="geometry">
                        <mxPoint x="560" y="440" as="sourcePoint"/>
                        <mxPoint x="540" y="430" as="targetPoint"/>
                    </mxGeometry>
                </mxCell>
                <mxCell id="qsJm1ij4FR5lF7uQDItI-146" value="" style="endArrow=none;html=1;entryX=0;entryY=1;entryDx=0;entryDy=0;exitX=0.25;exitY=0;exitDx=0;exitDy=0;" parent="1" source="qsJm1ij4FR5lF7uQDItI-160" target="qsJm1ij4FR5lF7uQDItI-129" edge="1">
                    <mxGeometry width="50" height="50" relative="1" as="geometry">
                        <mxPoint x="525" y="410" as="sourcePoint"/>
                        <mxPoint x="575" y="360" as="targetPoint"/>
                    </mxGeometry>
                </mxCell>
                <mxCell id="qsJm1ij4FR5lF7uQDItI-147" value="" style="endArrow=none;html=1;entryX=0;entryY=1;entryDx=0;entryDy=0;exitX=0.25;exitY=0;exitDx=0;exitDy=0;" parent="1" source="qsJm1ij4FR5lF7uQDItI-161" target="qsJm1ij4FR5lF7uQDItI-154" edge="1">
                    <mxGeometry width="50" height="50" relative="1" as="geometry">
                        <mxPoint x="575" y="520" as="sourcePoint"/>
                        <mxPoint x="625" y="470" as="targetPoint"/>
                    </mxGeometry>
                </mxCell>
                <mxCell id="qsJm1ij4FR5lF7uQDItI-148" value="" style="endArrow=none;html=1;entryX=1;entryY=1;entryDx=0;entryDy=0;exitX=0.5;exitY=0;exitDx=0;exitDy=0;" parent="1" source="qsJm1ij4FR5lF7uQDItI-162" target="qsJm1ij4FR5lF7uQDItI-154" edge="1">
                    <mxGeometry width="50" height="50" relative="1" as="geometry">
                        <mxPoint x="615" y="540" as="sourcePoint"/>
                        <mxPoint x="665" y="490" as="targetPoint"/>
                    </mxGeometry>
                </mxCell>
                <mxCell id="qsJm1ij4FR5lF7uQDItI-149" value="" style="endArrow=none;html=1;entryX=0;entryY=1;entryDx=0;entryDy=0;exitX=0.5;exitY=0;exitDx=0;exitDy=0;" parent="1" source="qsJm1ij4FR5lF7uQDItI-163" target="qsJm1ij4FR5lF7uQDItI-132" edge="1">
                    <mxGeometry width="50" height="50" relative="1" as="geometry">
                        <mxPoint x="425" y="530" as="sourcePoint"/>
                        <mxPoint x="475" y="480" as="targetPoint"/>
                    </mxGeometry>
                </mxCell>
                <mxCell id="qsJm1ij4FR5lF7uQDItI-150" value="" style="endArrow=none;html=1;entryX=1;entryY=1;entryDx=0;entryDy=0;exitX=0.5;exitY=0;exitDx=0;exitDy=0;" parent="1" source="qsJm1ij4FR5lF7uQDItI-164" target="qsJm1ij4FR5lF7uQDItI-132" edge="1">
                    <mxGeometry width="50" height="50" relative="1" as="geometry">
                        <mxPoint x="405" y="590" as="sourcePoint"/>
                        <mxPoint x="455" y="540" as="targetPoint"/>
                    </mxGeometry>
                </mxCell>
                <mxCell id="qsJm1ij4FR5lF7uQDItI-151" value="80" style="ellipse;whiteSpace=wrap;html=1;aspect=fixed;fillColor=#FFFFFF;" parent="1" vertex="1">
                    <mxGeometry x="515" y="320" width="20" height="20" as="geometry"/>
                </mxCell>
                <mxCell id="qsJm1ij4FR5lF7uQDItI-152" value="20" style="ellipse;whiteSpace=wrap;html=1;aspect=fixed;fillColor=#FFFFFF;" parent="1" vertex="1">
                    <mxGeometry x="401" y="430" width="20" height="20" as="geometry"/>
                </mxCell>
                <mxCell id="qsJm1ij4FR5lF7uQDItI-153" value="40" style="ellipse;whiteSpace=wrap;html=1;aspect=fixed;fillColor=#FF3333;" parent="1" vertex="1">
                    <mxGeometry x="430" y="390" width="20" height="20" as="geometry"/>
                </mxCell>
                <mxCell id="qsJm1ij4FR5lF7uQDItI-154" value="140" style="ellipse;whiteSpace=wrap;html=1;aspect=fixed;fillColor=#FF3333;" parent="1" vertex="1">
                    <mxGeometry x="605" y="390" width="20" height="20" as="geometry"/>
                </mxCell>
                <mxCell id="qsJm1ij4FR5lF7uQDItI-155" value="NIL" style="rounded=0;whiteSpace=wrap;html=1;fillColor=#FFFFFF;" parent="1" vertex="1">
                    <mxGeometry x="381" y="470" width="20" height="10" as="geometry"/>
                </mxCell>
                <mxCell id="qsJm1ij4FR5lF7uQDItI-156" value="NIL" style="rounded=0;whiteSpace=wrap;html=1;fillColor=#FFFFFF;" parent="1" vertex="1">
                    <mxGeometry x="416" y="470" width="20" height="10" as="geometry"/>
                </mxCell>
                <mxCell id="qsJm1ij4FR5lF7uQDItI-157" value="NIL" style="rounded=0;whiteSpace=wrap;html=1;fillColor=#FFFFFF;" parent="1" vertex="1">
                    <mxGeometry x="481" y="475" width="20" height="10" as="geometry"/>
                </mxCell>
                <mxCell id="qsJm1ij4FR5lF7uQDItI-158" value="NIL" style="rounded=0;whiteSpace=wrap;html=1;fillColor=#FFFFFF;" parent="1" vertex="1">
                    <mxGeometry x="521" y="435" width="20" height="10" as="geometry"/>
                </mxCell>
                <mxCell id="qsJm1ij4FR5lF7uQDItI-159" value="NIL" style="rounded=0;whiteSpace=wrap;html=1;fillColor=#FFFFFF;" parent="1" vertex="1">
                    <mxGeometry x="491" y="435" width="20" height="10" as="geometry"/>
                </mxCell>
                <mxCell id="qsJm1ij4FR5lF7uQDItI-160" value="NIL" style="rounded=0;whiteSpace=wrap;html=1;fillColor=#FFFFFF;" parent="1" vertex="1">
                    <mxGeometry x="555" y="395" width="20" height="10" as="geometry"/>
                </mxCell>
                <mxCell id="qsJm1ij4FR5lF7uQDItI-161" value="NIL" style="rounded=0;whiteSpace=wrap;html=1;fillColor=#FFFFFF;" parent="1" vertex="1">
                    <mxGeometry x="595" y="430" width="20" height="10" as="geometry"/>
                </mxCell>
                <mxCell id="qsJm1ij4FR5lF7uQDItI-162" value="NIL" style="rounded=0;whiteSpace=wrap;html=1;fillColor=#FFFFFF;" parent="1" vertex="1">
                    <mxGeometry x="625" y="430" width="20" height="10" as="geometry"/>
                </mxCell>
                <mxCell id="qsJm1ij4FR5lF7uQDItI-163" value="NIL" style="rounded=0;whiteSpace=wrap;html=1;fillColor=#FFFFFF;" parent="1" vertex="1">
                    <mxGeometry x="420" y="510" width="20" height="10" as="geometry"/>
                </mxCell>
                <mxCell id="qsJm1ij4FR5lF7uQDItI-164" value="NIL" style="rounded=0;whiteSpace=wrap;html=1;fillColor=#FFFFFF;" parent="1" vertex="1">
                    <mxGeometry x="465" y="510" width="20" height="10" as="geometry"/>
                </mxCell>
                <mxCell id="qsJm1ij4FR5lF7uQDItI-165" value="" style="endArrow=classic;html=1;" parent="1" edge="1">
                    <mxGeometry width="50" height="50" relative="1" as="geometry">
                        <mxPoint x="270" y="340" as="sourcePoint"/>
                        <mxPoint x="490" y="340" as="targetPoint"/>
                    </mxGeometry>
                </mxCell>
                <mxCell id="qsJm1ij4FR5lF7uQDItI-167" value="父结点为红色，叔结点为黑色，cur是父结点的右孩子" style="text;html=1;align=center;verticalAlign=middle;resizable=0;points=[];autosize=1;" parent="1" vertex="1">
                    <mxGeometry x="221" y="310" width="300" height="20" as="geometry"/>
                </mxCell>
                <mxCell id="qsJm1ij4FR5lF7uQDItI-169" value="" style="endArrow=classic;html=1;" parent="1" edge="1">
                    <mxGeometry width="50" height="50" relative="1" as="geometry">
                        <mxPoint x="90" y="250" as="sourcePoint"/>
                        <mxPoint x="130" y="240" as="targetPoint"/>
                    </mxGeometry>
                </mxCell>
                <mxCell id="qsJm1ij4FR5lF7uQDItI-170" value="cur" style="text;html=1;align=center;verticalAlign=middle;resizable=0;points=[];autosize=1;" parent="1" vertex="1">
                    <mxGeometry x="85" y="230" width="30" height="20" as="geometry"/>
                </mxCell>
                <mxCell id="qsJm1ij4FR5lF7uQDItI-173" value="左旋" style="text;html=1;align=center;verticalAlign=middle;resizable=0;points=[];autosize=1;" parent="1" vertex="1">
                    <mxGeometry x="342" y="340" width="40" height="20" as="geometry"/>
                </mxCell>
                <mxCell id="qsJm1ij4FR5lF7uQDItI-174" value="" style="endArrow=none;html=1;exitX=0.5;exitY=0;exitDx=0;exitDy=0;entryX=0;entryY=0.5;entryDx=0;entryDy=0;" parent="1" source="qsJm1ij4FR5lF7uQDItI-152" target="qsJm1ij4FR5lF7uQDItI-153" edge="1">
                    <mxGeometry width="50" height="50" relative="1" as="geometry">
                        <mxPoint x="380" y="460" as="sourcePoint"/>
                        <mxPoint x="430" y="410" as="targetPoint"/>
                    </mxGeometry>
                </mxCell>
                <mxCell id="qsJm1ij4FR5lF7uQDItI-175" value="" style="endArrow=none;html=1;entryX=1;entryY=0.5;entryDx=0;entryDy=0;exitX=0;exitY=0;exitDx=0;exitDy=0;" parent="1" source="qsJm1ij4FR5lF7uQDItI-131" target="qsJm1ij4FR5lF7uQDItI-153" edge="1">
                    <mxGeometry width="50" height="50" relative="1" as="geometry">
                        <mxPoint x="440" y="450" as="sourcePoint"/>
                        <mxPoint x="490" y="400" as="targetPoint"/>
                    </mxGeometry>
                </mxCell>
                <mxCell id="qsJm1ij4FR5lF7uQDItI-176" value="" style="endArrow=none;html=1;exitX=1;exitY=1;exitDx=0;exitDy=0;entryX=0;entryY=0;entryDx=0;entryDy=0;" parent="1" source="qsJm1ij4FR5lF7uQDItI-128" target="qsJm1ij4FR5lF7uQDItI-130" edge="1">
                    <mxGeometry width="50" height="50" relative="1" as="geometry">
                        <mxPoint x="530" y="400" as="sourcePoint"/>
                        <mxPoint x="580" y="350" as="targetPoint"/>
                    </mxGeometry>
                </mxCell>
                <mxCell id="qsJm1ij4FR5lF7uQDItI-177" value="" style="endArrow=none;html=1;entryX=0;entryY=1;entryDx=0;entryDy=0;exitX=0.5;exitY=0;exitDx=0;exitDy=0;exitPerimeter=0;" parent="1" source="qsJm1ij4FR5lF7uQDItI-153" target="qsJm1ij4FR5lF7uQDItI-128" edge="1">
                    <mxGeometry width="50" height="50" relative="1" as="geometry">
                        <mxPoint x="430" y="420" as="sourcePoint"/>
                        <mxPoint x="480" y="370" as="targetPoint"/>
                    </mxGeometry>
                </mxCell>
                <mxCell id="qsJm1ij4FR5lF7uQDItI-178" value="60" style="ellipse;whiteSpace=wrap;html=1;aspect=fixed;fillColor=#FF3333;" parent="1" vertex="1">
                    <mxGeometry x="84" y="640.83" width="20" height="20" as="geometry"/>
                </mxCell>
                <mxCell id="qsJm1ij4FR5lF7uQDItI-179" value="120" style="ellipse;whiteSpace=wrap;html=1;aspect=fixed;fillColor=#FFFFFF;" parent="1" vertex="1">
                    <mxGeometry x="204" y="640.83" width="20" height="20" as="geometry"/>
                </mxCell>
                <mxCell id="qsJm1ij4FR5lF7uQDItI-180" value="70" style="ellipse;whiteSpace=wrap;html=1;aspect=fixed;fillColor=#FFFFFF;" parent="1" vertex="1">
                    <mxGeometry x="129" y="675.83" width="20" height="20" as="geometry"/>
                </mxCell>
                <mxCell id="qsJm1ij4FR5lF7uQDItI-181" value="50" style="ellipse;whiteSpace=wrap;html=1;aspect=fixed;fillColor=#FFFFFF;" parent="1" vertex="1">
                    <mxGeometry x="94" y="715.83" width="20" height="20" as="geometry"/>
                </mxCell>
                <mxCell id="qsJm1ij4FR5lF7uQDItI-182" value="52" style="ellipse;whiteSpace=wrap;html=1;aspect=fixed;fillColor=#FF3333;" parent="1" vertex="1">
                    <mxGeometry x="74" y="755.83" width="20" height="20" as="geometry"/>
                </mxCell>
                <mxCell id="qsJm1ij4FR5lF7uQDItI-183" value="" style="endArrow=none;html=1;exitX=1;exitY=0;exitDx=0;exitDy=0;entryX=0;entryY=0.5;entryDx=0;entryDy=0;" parent="1" source="qsJm1ij4FR5lF7uQDItI-178" target="qsJm1ij4FR5lF7uQDItI-197" edge="1">
                    <mxGeometry width="50" height="50" relative="1" as="geometry">
                        <mxPoint x="124" y="665.83" as="sourcePoint"/>
                        <mxPoint x="154" y="625.83" as="targetPoint"/>
                    </mxGeometry>
                </mxCell>
                <mxCell id="qsJm1ij4FR5lF7uQDItI-184" value="" style="endArrow=none;html=1;exitX=1;exitY=0.5;exitDx=0;exitDy=0;entryX=0;entryY=0;entryDx=0;entryDy=0;" parent="1" source="qsJm1ij4FR5lF7uQDItI-197" target="qsJm1ij4FR5lF7uQDItI-179" edge="1">
                    <mxGeometry width="50" height="50" relative="1" as="geometry">
                        <mxPoint x="194" y="665.83" as="sourcePoint"/>
                        <mxPoint x="244" y="615.83" as="targetPoint"/>
                    </mxGeometry>
                </mxCell>
                <mxCell id="qsJm1ij4FR5lF7uQDItI-185" value="" style="endArrow=none;html=1;exitX=0.5;exitY=0;exitDx=0;exitDy=0;entryX=0;entryY=1;entryDx=0;entryDy=0;" parent="1" source="qsJm1ij4FR5lF7uQDItI-182" target="qsJm1ij4FR5lF7uQDItI-181" edge="1">
                    <mxGeometry width="50" height="50" relative="1" as="geometry">
                        <mxPoint x="104" y="805.83" as="sourcePoint"/>
                        <mxPoint x="154" y="755.83" as="targetPoint"/>
                    </mxGeometry>
                </mxCell>
                <mxCell id="qsJm1ij4FR5lF7uQDItI-186" value="" style="endArrow=none;html=1;entryX=1;entryY=1;entryDx=0;entryDy=0;exitX=0.5;exitY=0;exitDx=0;exitDy=0;" parent="1" source="qsJm1ij4FR5lF7uQDItI-200" target="qsJm1ij4FR5lF7uQDItI-179" edge="1">
                    <mxGeometry width="50" height="50" relative="1" as="geometry">
                        <mxPoint x="214" y="755.83" as="sourcePoint"/>
                        <mxPoint x="264" y="705.83" as="targetPoint"/>
                    </mxGeometry>
                </mxCell>
                <mxCell id="qsJm1ij4FR5lF7uQDItI-187" value="" style="endArrow=none;html=1;entryX=0;entryY=1;entryDx=0;entryDy=0;" parent="1" target="qsJm1ij4FR5lF7uQDItI-198" edge="1">
                    <mxGeometry width="50" height="50" relative="1" as="geometry">
                        <mxPoint x="20" y="755.83" as="sourcePoint"/>
                        <mxPoint x="60" y="735.83" as="targetPoint"/>
                    </mxGeometry>
                </mxCell>
                <mxCell id="qsJm1ij4FR5lF7uQDItI-188" value="" style="endArrow=none;html=1;exitX=1;exitY=1;exitDx=0;exitDy=0;entryX=0.5;entryY=0;entryDx=0;entryDy=0;" parent="1" source="qsJm1ij4FR5lF7uQDItI-198" target="qsJm1ij4FR5lF7uQDItI-201" edge="1">
                    <mxGeometry width="50" height="50" relative="1" as="geometry">
                        <mxPoint x="60" y="775.83" as="sourcePoint"/>
                        <mxPoint x="110" y="725.83" as="targetPoint"/>
                    </mxGeometry>
                </mxCell>
                <mxCell id="qsJm1ij4FR5lF7uQDItI-189" value="" style="endArrow=none;html=1;exitX=1;exitY=1;exitDx=0;exitDy=0;entryX=0.5;entryY=0;entryDx=0;entryDy=0;" parent="1" source="qsJm1ij4FR5lF7uQDItI-181" target="qsJm1ij4FR5lF7uQDItI-202" edge="1">
                    <mxGeometry width="50" height="50" relative="1" as="geometry">
                        <mxPoint x="144" y="835.83" as="sourcePoint"/>
                        <mxPoint x="194" y="785.83" as="targetPoint"/>
                    </mxGeometry>
                </mxCell>
                <mxCell id="qsJm1ij4FR5lF7uQDItI-190" value="" style="endArrow=none;html=1;exitX=0.25;exitY=0;exitDx=0;exitDy=0;entryX=0;entryY=1;entryDx=0;entryDy=0;" parent="1" source="qsJm1ij4FR5lF7uQDItI-204" target="qsJm1ij4FR5lF7uQDItI-180" edge="1">
                    <mxGeometry width="50" height="50" relative="1" as="geometry">
                        <mxPoint x="169" y="735.83" as="sourcePoint"/>
                        <mxPoint x="133" y="692.83" as="targetPoint"/>
                    </mxGeometry>
                </mxCell>
                <mxCell id="qsJm1ij4FR5lF7uQDItI-191" value="" style="endArrow=none;html=1;exitX=1;exitY=1;exitDx=0;exitDy=0;entryX=0.25;entryY=0;entryDx=0;entryDy=0;" parent="1" source="qsJm1ij4FR5lF7uQDItI-180" target="qsJm1ij4FR5lF7uQDItI-203" edge="1">
                    <mxGeometry width="50" height="50" relative="1" as="geometry">
                        <mxPoint x="189" y="725.83" as="sourcePoint"/>
                        <mxPoint x="169" y="715.83" as="targetPoint"/>
                    </mxGeometry>
                </mxCell>
                <mxCell id="qsJm1ij4FR5lF7uQDItI-192" value="" style="endArrow=none;html=1;entryX=0;entryY=1;entryDx=0;entryDy=0;exitX=0.25;exitY=0;exitDx=0;exitDy=0;" parent="1" source="qsJm1ij4FR5lF7uQDItI-205" target="qsJm1ij4FR5lF7uQDItI-179" edge="1">
                    <mxGeometry width="50" height="50" relative="1" as="geometry">
                        <mxPoint x="154" y="695.83" as="sourcePoint"/>
                        <mxPoint x="204" y="645.83" as="targetPoint"/>
                    </mxGeometry>
                </mxCell>
                <mxCell id="qsJm1ij4FR5lF7uQDItI-193" value="" style="endArrow=none;html=1;entryX=0;entryY=1;entryDx=0;entryDy=0;exitX=0.25;exitY=0;exitDx=0;exitDy=0;" parent="1" source="qsJm1ij4FR5lF7uQDItI-206" target="qsJm1ij4FR5lF7uQDItI-200" edge="1">
                    <mxGeometry width="50" height="50" relative="1" as="geometry">
                        <mxPoint x="204" y="805.83" as="sourcePoint"/>
                        <mxPoint x="254" y="755.83" as="targetPoint"/>
                    </mxGeometry>
                </mxCell>
                <mxCell id="qsJm1ij4FR5lF7uQDItI-194" value="" style="endArrow=none;html=1;entryX=1;entryY=1;entryDx=0;entryDy=0;exitX=0.5;exitY=0;exitDx=0;exitDy=0;" parent="1" source="qsJm1ij4FR5lF7uQDItI-207" target="qsJm1ij4FR5lF7uQDItI-200" edge="1">
                    <mxGeometry width="50" height="50" relative="1" as="geometry">
                        <mxPoint x="244" y="825.83" as="sourcePoint"/>
                        <mxPoint x="294" y="775.83" as="targetPoint"/>
                    </mxGeometry>
                </mxCell>
                <mxCell id="qsJm1ij4FR5lF7uQDItI-195" value="" style="endArrow=none;html=1;entryX=0;entryY=1;entryDx=0;entryDy=0;exitX=0.5;exitY=0;exitDx=0;exitDy=0;" parent="1" source="qsJm1ij4FR5lF7uQDItI-208" target="qsJm1ij4FR5lF7uQDItI-182" edge="1">
                    <mxGeometry width="50" height="50" relative="1" as="geometry">
                        <mxPoint x="54" y="815.83" as="sourcePoint"/>
                        <mxPoint x="104" y="765.83" as="targetPoint"/>
                    </mxGeometry>
                </mxCell>
                <mxCell id="qsJm1ij4FR5lF7uQDItI-196" value="" style="endArrow=none;html=1;entryX=1;entryY=1;entryDx=0;entryDy=0;exitX=0.5;exitY=0;exitDx=0;exitDy=0;" parent="1" source="qsJm1ij4FR5lF7uQDItI-209" target="qsJm1ij4FR5lF7uQDItI-182" edge="1">
                    <mxGeometry width="50" height="50" relative="1" as="geometry">
                        <mxPoint x="34" y="875.83" as="sourcePoint"/>
                        <mxPoint x="84" y="825.83" as="targetPoint"/>
                    </mxGeometry>
                </mxCell>
                <mxCell id="qsJm1ij4FR5lF7uQDItI-197" value="80" style="ellipse;whiteSpace=wrap;html=1;aspect=fixed;fillColor=#FFFFFF;" parent="1" vertex="1">
                    <mxGeometry x="144" y="605.83" width="20" height="20" as="geometry"/>
                </mxCell>
                <mxCell id="qsJm1ij4FR5lF7uQDItI-198" value="20" style="ellipse;whiteSpace=wrap;html=1;aspect=fixed;fillColor=#FFFFFF;" parent="1" vertex="1">
                    <mxGeometry x="30" y="715.83" width="20" height="20" as="geometry"/>
                </mxCell>
                <mxCell id="qsJm1ij4FR5lF7uQDItI-199" value="40" style="ellipse;whiteSpace=wrap;html=1;aspect=fixed;fillColor=#FF3333;" parent="1" vertex="1">
                    <mxGeometry x="59" y="675.83" width="20" height="20" as="geometry"/>
                </mxCell>
                <mxCell id="qsJm1ij4FR5lF7uQDItI-200" value="140" style="ellipse;whiteSpace=wrap;html=1;aspect=fixed;fillColor=#FF3333;" parent="1" vertex="1">
                    <mxGeometry x="234" y="675.83" width="20" height="20" as="geometry"/>
                </mxCell>
                <mxCell id="qsJm1ij4FR5lF7uQDItI-201" value="NIL" style="rounded=0;whiteSpace=wrap;html=1;fillColor=#FFFFFF;" parent="1" vertex="1">
                    <mxGeometry x="45" y="755.83" width="20" height="10" as="geometry"/>
                </mxCell>
                <mxCell id="qsJm1ij4FR5lF7uQDItI-202" value="NIL" style="rounded=0;whiteSpace=wrap;html=1;fillColor=#FFFFFF;" parent="1" vertex="1">
                    <mxGeometry x="110" y="760.83" width="20" height="10" as="geometry"/>
                </mxCell>
                <mxCell id="qsJm1ij4FR5lF7uQDItI-203" value="NIL" style="rounded=0;whiteSpace=wrap;html=1;fillColor=#FFFFFF;" parent="1" vertex="1">
                    <mxGeometry x="150" y="720.83" width="20" height="10" as="geometry"/>
                </mxCell>
                <mxCell id="qsJm1ij4FR5lF7uQDItI-204" value="NIL" style="rounded=0;whiteSpace=wrap;html=1;fillColor=#FFFFFF;" parent="1" vertex="1">
                    <mxGeometry x="120" y="720.83" width="20" height="10" as="geometry"/>
                </mxCell>
                <mxCell id="qsJm1ij4FR5lF7uQDItI-205" value="NIL" style="rounded=0;whiteSpace=wrap;html=1;fillColor=#FFFFFF;" parent="1" vertex="1">
                    <mxGeometry x="184" y="680.83" width="20" height="10" as="geometry"/>
                </mxCell>
                <mxCell id="qsJm1ij4FR5lF7uQDItI-206" value="NIL" style="rounded=0;whiteSpace=wrap;html=1;fillColor=#FFFFFF;" parent="1" vertex="1">
                    <mxGeometry x="224" y="715.83" width="20" height="10" as="geometry"/>
                </mxCell>
                <mxCell id="qsJm1ij4FR5lF7uQDItI-207" value="NIL" style="rounded=0;whiteSpace=wrap;html=1;fillColor=#FFFFFF;" parent="1" vertex="1">
                    <mxGeometry x="254" y="715.83" width="20" height="10" as="geometry"/>
                </mxCell>
                <mxCell id="qsJm1ij4FR5lF7uQDItI-208" value="NIL" style="rounded=0;whiteSpace=wrap;html=1;fillColor=#FFFFFF;" parent="1" vertex="1">
                    <mxGeometry x="49" y="795.83" width="20" height="10" as="geometry"/>
                </mxCell>
                <mxCell id="qsJm1ij4FR5lF7uQDItI-209" value="NIL" style="rounded=0;whiteSpace=wrap;html=1;fillColor=#FFFFFF;" parent="1" vertex="1">
                    <mxGeometry x="94" y="795.83" width="20" height="10" as="geometry"/>
                </mxCell>
                <mxCell id="qsJm1ij4FR5lF7uQDItI-210" value="" style="endArrow=none;html=1;exitX=0.5;exitY=0;exitDx=0;exitDy=0;entryX=0;entryY=0.5;entryDx=0;entryDy=0;" parent="1" source="qsJm1ij4FR5lF7uQDItI-198" target="qsJm1ij4FR5lF7uQDItI-199" edge="1">
                    <mxGeometry width="50" height="50" relative="1" as="geometry">
                        <mxPoint x="9" y="745.83" as="sourcePoint"/>
                        <mxPoint x="59" y="695.83" as="targetPoint"/>
                    </mxGeometry>
                </mxCell>
                <mxCell id="qsJm1ij4FR5lF7uQDItI-211" value="" style="endArrow=none;html=1;entryX=1;entryY=0.5;entryDx=0;entryDy=0;exitX=0;exitY=0;exitDx=0;exitDy=0;" parent="1" source="qsJm1ij4FR5lF7uQDItI-181" target="qsJm1ij4FR5lF7uQDItI-199" edge="1">
                    <mxGeometry width="50" height="50" relative="1" as="geometry">
                        <mxPoint x="69" y="735.83" as="sourcePoint"/>
                        <mxPoint x="119" y="685.83" as="targetPoint"/>
                    </mxGeometry>
                </mxCell>
                <mxCell id="qsJm1ij4FR5lF7uQDItI-212" value="" style="endArrow=none;html=1;exitX=1;exitY=1;exitDx=0;exitDy=0;entryX=0;entryY=0;entryDx=0;entryDy=0;" parent="1" source="qsJm1ij4FR5lF7uQDItI-178" target="qsJm1ij4FR5lF7uQDItI-180" edge="1">
                    <mxGeometry width="50" height="50" relative="1" as="geometry">
                        <mxPoint x="159" y="685.83" as="sourcePoint"/>
                        <mxPoint x="209" y="635.83" as="targetPoint"/>
                    </mxGeometry>
                </mxCell>
                <mxCell id="qsJm1ij4FR5lF7uQDItI-213" value="" style="endArrow=none;html=1;entryX=0;entryY=1;entryDx=0;entryDy=0;exitX=0.5;exitY=0;exitDx=0;exitDy=0;exitPerimeter=0;" parent="1" source="qsJm1ij4FR5lF7uQDItI-199" target="qsJm1ij4FR5lF7uQDItI-178" edge="1">
                    <mxGeometry width="50" height="50" relative="1" as="geometry">
                        <mxPoint x="59" y="705.83" as="sourcePoint"/>
                        <mxPoint x="109" y="655.83" as="targetPoint"/>
                    </mxGeometry>
                </mxCell>
                <mxCell id="qsJm1ij4FR5lF7uQDItI-214" value="NIL" style="rounded=0;whiteSpace=wrap;html=1;fillColor=#FFFFFF;" parent="1" vertex="1">
                    <mxGeometry x="10" y="755.83" width="20" height="10" as="geometry"/>
                </mxCell>
                <mxCell id="qsJm1ij4FR5lF7uQDItI-215" value="60" style="ellipse;whiteSpace=wrap;html=1;aspect=fixed;fillColor=#FFFFFF;" parent="1" vertex="1">
                    <mxGeometry x="385" y="640.83" width="20" height="20" as="geometry"/>
                </mxCell>
                <mxCell id="qsJm1ij4FR5lF7uQDItI-216" value="120" style="ellipse;whiteSpace=wrap;html=1;aspect=fixed;fillColor=#FFFFFF;" parent="1" vertex="1">
                    <mxGeometry x="505" y="640.83" width="20" height="20" as="geometry"/>
                </mxCell>
                <mxCell id="qsJm1ij4FR5lF7uQDItI-217" value="70" style="ellipse;whiteSpace=wrap;html=1;aspect=fixed;fillColor=#FFFFFF;" parent="1" vertex="1">
                    <mxGeometry x="430" y="675.83" width="20" height="20" as="geometry"/>
                </mxCell>
                <mxCell id="qsJm1ij4FR5lF7uQDItI-218" value="50" style="ellipse;whiteSpace=wrap;html=1;aspect=fixed;fillColor=#FFFFFF;" parent="1" vertex="1">
                    <mxGeometry x="395" y="715.83" width="20" height="20" as="geometry"/>
                </mxCell>
                <mxCell id="qsJm1ij4FR5lF7uQDItI-219" value="52" style="ellipse;whiteSpace=wrap;html=1;aspect=fixed;fillColor=#FF3333;" parent="1" vertex="1">
                    <mxGeometry x="375" y="755.83" width="20" height="20" as="geometry"/>
                </mxCell>
                <mxCell id="qsJm1ij4FR5lF7uQDItI-220" value="" style="endArrow=none;html=1;exitX=1;exitY=0;exitDx=0;exitDy=0;entryX=0;entryY=0.5;entryDx=0;entryDy=0;" parent="1" source="qsJm1ij4FR5lF7uQDItI-215" target="qsJm1ij4FR5lF7uQDItI-234" edge="1">
                    <mxGeometry width="50" height="50" relative="1" as="geometry">
                        <mxPoint x="425" y="665.83" as="sourcePoint"/>
                        <mxPoint x="455" y="625.83" as="targetPoint"/>
                    </mxGeometry>
                </mxCell>
                <mxCell id="qsJm1ij4FR5lF7uQDItI-221" value="" style="endArrow=none;html=1;exitX=1;exitY=0.5;exitDx=0;exitDy=0;entryX=0;entryY=0;entryDx=0;entryDy=0;" parent="1" source="qsJm1ij4FR5lF7uQDItI-234" target="qsJm1ij4FR5lF7uQDItI-216" edge="1">
                    <mxGeometry width="50" height="50" relative="1" as="geometry">
                        <mxPoint x="495" y="665.83" as="sourcePoint"/>
                        <mxPoint x="545" y="615.83" as="targetPoint"/>
                    </mxGeometry>
                </mxCell>
                <mxCell id="qsJm1ij4FR5lF7uQDItI-222" value="" style="endArrow=none;html=1;exitX=0.5;exitY=0;exitDx=0;exitDy=0;entryX=0;entryY=1;entryDx=0;entryDy=0;" parent="1" source="qsJm1ij4FR5lF7uQDItI-219" target="qsJm1ij4FR5lF7uQDItI-218" edge="1">
                    <mxGeometry width="50" height="50" relative="1" as="geometry">
                        <mxPoint x="405" y="805.83" as="sourcePoint"/>
                        <mxPoint x="455" y="755.83" as="targetPoint"/>
                    </mxGeometry>
                </mxCell>
                <mxCell id="qsJm1ij4FR5lF7uQDItI-223" value="" style="endArrow=none;html=1;entryX=1;entryY=1;entryDx=0;entryDy=0;exitX=0.5;exitY=0;exitDx=0;exitDy=0;" parent="1" source="qsJm1ij4FR5lF7uQDItI-237" target="qsJm1ij4FR5lF7uQDItI-216" edge="1">
                    <mxGeometry width="50" height="50" relative="1" as="geometry">
                        <mxPoint x="515" y="755.83" as="sourcePoint"/>
                        <mxPoint x="565" y="705.83" as="targetPoint"/>
                    </mxGeometry>
                </mxCell>
                <mxCell id="qsJm1ij4FR5lF7uQDItI-224" value="" style="endArrow=none;html=1;entryX=0;entryY=1;entryDx=0;entryDy=0;" parent="1" target="qsJm1ij4FR5lF7uQDItI-235" edge="1">
                    <mxGeometry width="50" height="50" relative="1" as="geometry">
                        <mxPoint x="321" y="755.83" as="sourcePoint"/>
                        <mxPoint x="361" y="735.83" as="targetPoint"/>
                    </mxGeometry>
                </mxCell>
                <mxCell id="qsJm1ij4FR5lF7uQDItI-225" value="" style="endArrow=none;html=1;exitX=1;exitY=1;exitDx=0;exitDy=0;entryX=0.5;entryY=0;entryDx=0;entryDy=0;" parent="1" source="qsJm1ij4FR5lF7uQDItI-235" target="qsJm1ij4FR5lF7uQDItI-238" edge="1">
                    <mxGeometry width="50" height="50" relative="1" as="geometry">
                        <mxPoint x="361" y="775.83" as="sourcePoint"/>
                        <mxPoint x="411" y="725.83" as="targetPoint"/>
                    </mxGeometry>
                </mxCell>
                <mxCell id="qsJm1ij4FR5lF7uQDItI-226" value="" style="endArrow=none;html=1;exitX=1;exitY=1;exitDx=0;exitDy=0;entryX=0.5;entryY=0;entryDx=0;entryDy=0;" parent="1" source="qsJm1ij4FR5lF7uQDItI-218" target="qsJm1ij4FR5lF7uQDItI-239" edge="1">
                    <mxGeometry width="50" height="50" relative="1" as="geometry">
                        <mxPoint x="445" y="835.83" as="sourcePoint"/>
                        <mxPoint x="495" y="785.83" as="targetPoint"/>
                    </mxGeometry>
                </mxCell>
                <mxCell id="qsJm1ij4FR5lF7uQDItI-227" value="" style="endArrow=none;html=1;exitX=0.25;exitY=0;exitDx=0;exitDy=0;entryX=0;entryY=1;entryDx=0;entryDy=0;" parent="1" source="qsJm1ij4FR5lF7uQDItI-241" target="qsJm1ij4FR5lF7uQDItI-217" edge="1">
                    <mxGeometry width="50" height="50" relative="1" as="geometry">
                        <mxPoint x="470" y="735.83" as="sourcePoint"/>
                        <mxPoint x="434" y="692.83" as="targetPoint"/>
                    </mxGeometry>
                </mxCell>
                <mxCell id="qsJm1ij4FR5lF7uQDItI-228" value="" style="endArrow=none;html=1;exitX=1;exitY=1;exitDx=0;exitDy=0;entryX=0.25;entryY=0;entryDx=0;entryDy=0;" parent="1" source="qsJm1ij4FR5lF7uQDItI-217" target="qsJm1ij4FR5lF7uQDItI-240" edge="1">
                    <mxGeometry width="50" height="50" relative="1" as="geometry">
                        <mxPoint x="490" y="725.83" as="sourcePoint"/>
                        <mxPoint x="470" y="715.83" as="targetPoint"/>
                    </mxGeometry>
                </mxCell>
                <mxCell id="qsJm1ij4FR5lF7uQDItI-229" value="" style="endArrow=none;html=1;entryX=0;entryY=1;entryDx=0;entryDy=0;exitX=0.25;exitY=0;exitDx=0;exitDy=0;" parent="1" source="qsJm1ij4FR5lF7uQDItI-242" target="qsJm1ij4FR5lF7uQDItI-216" edge="1">
                    <mxGeometry width="50" height="50" relative="1" as="geometry">
                        <mxPoint x="455" y="695.83" as="sourcePoint"/>
                        <mxPoint x="505" y="645.83" as="targetPoint"/>
                    </mxGeometry>
                </mxCell>
                <mxCell id="qsJm1ij4FR5lF7uQDItI-230" value="" style="endArrow=none;html=1;entryX=0;entryY=1;entryDx=0;entryDy=0;exitX=0.25;exitY=0;exitDx=0;exitDy=0;" parent="1" source="qsJm1ij4FR5lF7uQDItI-243" target="qsJm1ij4FR5lF7uQDItI-237" edge="1">
                    <mxGeometry width="50" height="50" relative="1" as="geometry">
                        <mxPoint x="505" y="805.83" as="sourcePoint"/>
                        <mxPoint x="555" y="755.83" as="targetPoint"/>
                    </mxGeometry>
                </mxCell>
                <mxCell id="qsJm1ij4FR5lF7uQDItI-231" value="" style="endArrow=none;html=1;entryX=1;entryY=1;entryDx=0;entryDy=0;exitX=0.5;exitY=0;exitDx=0;exitDy=0;" parent="1" source="qsJm1ij4FR5lF7uQDItI-244" target="qsJm1ij4FR5lF7uQDItI-237" edge="1">
                    <mxGeometry width="50" height="50" relative="1" as="geometry">
                        <mxPoint x="545" y="825.83" as="sourcePoint"/>
                        <mxPoint x="595" y="775.83" as="targetPoint"/>
                    </mxGeometry>
                </mxCell>
                <mxCell id="qsJm1ij4FR5lF7uQDItI-232" value="" style="endArrow=none;html=1;entryX=0;entryY=1;entryDx=0;entryDy=0;exitX=0.5;exitY=0;exitDx=0;exitDy=0;" parent="1" source="qsJm1ij4FR5lF7uQDItI-245" target="qsJm1ij4FR5lF7uQDItI-219" edge="1">
                    <mxGeometry width="50" height="50" relative="1" as="geometry">
                        <mxPoint x="355" y="815.83" as="sourcePoint"/>
                        <mxPoint x="405" y="765.83" as="targetPoint"/>
                    </mxGeometry>
                </mxCell>
                <mxCell id="qsJm1ij4FR5lF7uQDItI-233" value="" style="endArrow=none;html=1;entryX=1;entryY=1;entryDx=0;entryDy=0;exitX=0.5;exitY=0;exitDx=0;exitDy=0;" parent="1" source="qsJm1ij4FR5lF7uQDItI-246" target="qsJm1ij4FR5lF7uQDItI-219" edge="1">
                    <mxGeometry width="50" height="50" relative="1" as="geometry">
                        <mxPoint x="335" y="875.83" as="sourcePoint"/>
                        <mxPoint x="385" y="825.83" as="targetPoint"/>
                    </mxGeometry>
                </mxCell>
                <mxCell id="qsJm1ij4FR5lF7uQDItI-234" value="80" style="ellipse;whiteSpace=wrap;html=1;aspect=fixed;fillColor=#FF3333;" parent="1" vertex="1">
                    <mxGeometry x="445" y="605.83" width="20" height="20" as="geometry"/>
                </mxCell>
                <mxCell id="qsJm1ij4FR5lF7uQDItI-235" value="20" style="ellipse;whiteSpace=wrap;html=1;aspect=fixed;fillColor=#FFFFFF;" parent="1" vertex="1">
                    <mxGeometry x="331" y="715.83" width="20" height="20" as="geometry"/>
                </mxCell>
                <mxCell id="qsJm1ij4FR5lF7uQDItI-236" value="40" style="ellipse;whiteSpace=wrap;html=1;aspect=fixed;fillColor=#FF3333;" parent="1" vertex="1">
                    <mxGeometry x="360" y="675.83" width="20" height="20" as="geometry"/>
                </mxCell>
                <mxCell id="qsJm1ij4FR5lF7uQDItI-237" value="140" style="ellipse;whiteSpace=wrap;html=1;aspect=fixed;fillColor=#FF3333;" parent="1" vertex="1">
                    <mxGeometry x="535" y="675.83" width="20" height="20" as="geometry"/>
                </mxCell>
                <mxCell id="qsJm1ij4FR5lF7uQDItI-238" value="NIL" style="rounded=0;whiteSpace=wrap;html=1;fillColor=#FFFFFF;" parent="1" vertex="1">
                    <mxGeometry x="346" y="755.83" width="20" height="10" as="geometry"/>
                </mxCell>
                <mxCell id="qsJm1ij4FR5lF7uQDItI-239" value="NIL" style="rounded=0;whiteSpace=wrap;html=1;fillColor=#FFFFFF;" parent="1" vertex="1">
                    <mxGeometry x="411" y="760.83" width="20" height="10" as="geometry"/>
                </mxCell>
                <mxCell id="qsJm1ij4FR5lF7uQDItI-240" value="NIL" style="rounded=0;whiteSpace=wrap;html=1;fillColor=#FFFFFF;" parent="1" vertex="1">
                    <mxGeometry x="451" y="720.83" width="20" height="10" as="geometry"/>
                </mxCell>
                <mxCell id="qsJm1ij4FR5lF7uQDItI-241" value="NIL" style="rounded=0;whiteSpace=wrap;html=1;fillColor=#FFFFFF;" parent="1" vertex="1">
                    <mxGeometry x="421" y="720.83" width="20" height="10" as="geometry"/>
                </mxCell>
                <mxCell id="qsJm1ij4FR5lF7uQDItI-242" value="NIL" style="rounded=0;whiteSpace=wrap;html=1;fillColor=#FFFFFF;" parent="1" vertex="1">
                    <mxGeometry x="485" y="680.83" width="20" height="10" as="geometry"/>
                </mxCell>
                <mxCell id="qsJm1ij4FR5lF7uQDItI-243" value="NIL" style="rounded=0;whiteSpace=wrap;html=1;fillColor=#FFFFFF;" parent="1" vertex="1">
                    <mxGeometry x="525" y="715.83" width="20" height="10" as="geometry"/>
                </mxCell>
                <mxCell id="qsJm1ij4FR5lF7uQDItI-244" value="NIL" style="rounded=0;whiteSpace=wrap;html=1;fillColor=#FFFFFF;" parent="1" vertex="1">
                    <mxGeometry x="555" y="715.83" width="20" height="10" as="geometry"/>
                </mxCell>
                <mxCell id="qsJm1ij4FR5lF7uQDItI-245" value="NIL" style="rounded=0;whiteSpace=wrap;html=1;fillColor=#FFFFFF;" parent="1" vertex="1">
                    <mxGeometry x="350" y="795.83" width="20" height="10" as="geometry"/>
                </mxCell>
                <mxCell id="qsJm1ij4FR5lF7uQDItI-246" value="NIL" style="rounded=0;whiteSpace=wrap;html=1;fillColor=#FFFFFF;" parent="1" vertex="1">
                    <mxGeometry x="395" y="795.83" width="20" height="10" as="geometry"/>
                </mxCell>
                <mxCell id="qsJm1ij4FR5lF7uQDItI-247" value="" style="endArrow=none;html=1;exitX=0.5;exitY=0;exitDx=0;exitDy=0;entryX=0;entryY=0.5;entryDx=0;entryDy=0;" parent="1" source="qsJm1ij4FR5lF7uQDItI-235" target="qsJm1ij4FR5lF7uQDItI-236" edge="1">
                    <mxGeometry width="50" height="50" relative="1" as="geometry">
                        <mxPoint x="310" y="745.83" as="sourcePoint"/>
                        <mxPoint x="360" y="695.83" as="targetPoint"/>
                    </mxGeometry>
                </mxCell>
                <mxCell id="qsJm1ij4FR5lF7uQDItI-248" value="" style="endArrow=none;html=1;entryX=1;entryY=0.5;entryDx=0;entryDy=0;exitX=0;exitY=0;exitDx=0;exitDy=0;" parent="1" source="qsJm1ij4FR5lF7uQDItI-218" target="qsJm1ij4FR5lF7uQDItI-236" edge="1">
                    <mxGeometry width="50" height="50" relative="1" as="geometry">
                        <mxPoint x="370" y="735.83" as="sourcePoint"/>
                        <mxPoint x="420" y="685.83" as="targetPoint"/>
                    </mxGeometry>
                </mxCell>
                <mxCell id="qsJm1ij4FR5lF7uQDItI-249" value="" style="endArrow=none;html=1;exitX=1;exitY=1;exitDx=0;exitDy=0;entryX=0;entryY=0;entryDx=0;entryDy=0;" parent="1" source="qsJm1ij4FR5lF7uQDItI-215" target="qsJm1ij4FR5lF7uQDItI-217" edge="1">
                    <mxGeometry width="50" height="50" relative="1" as="geometry">
                        <mxPoint x="460" y="685.83" as="sourcePoint"/>
                        <mxPoint x="510" y="635.83" as="targetPoint"/>
                    </mxGeometry>
                </mxCell>
                <mxCell id="qsJm1ij4FR5lF7uQDItI-250" value="" style="endArrow=none;html=1;entryX=0;entryY=1;entryDx=0;entryDy=0;exitX=0.5;exitY=0;exitDx=0;exitDy=0;exitPerimeter=0;" parent="1" source="qsJm1ij4FR5lF7uQDItI-236" target="qsJm1ij4FR5lF7uQDItI-215" edge="1">
                    <mxGeometry width="50" height="50" relative="1" as="geometry">
                        <mxPoint x="360" y="705.83" as="sourcePoint"/>
                        <mxPoint x="410" y="655.83" as="targetPoint"/>
                    </mxGeometry>
                </mxCell>
                <mxCell id="qsJm1ij4FR5lF7uQDItI-251" value="NIL" style="rounded=0;whiteSpace=wrap;html=1;fillColor=#FFFFFF;" parent="1" vertex="1">
                    <mxGeometry x="311" y="755.83" width="20" height="10" as="geometry"/>
                </mxCell>
                <mxCell id="qsJm1ij4FR5lF7uQDItI-252" value="父结点为红色，叔结点为黑色，cur是父结点的左孩子" style="text;html=1;align=center;verticalAlign=middle;resizable=0;points=[];autosize=1;" parent="1" vertex="1">
                    <mxGeometry x="164" y="580" width="300" height="20" as="geometry"/>
                </mxCell>
                <mxCell id="qsJm1ij4FR5lF7uQDItI-253" value="" style="endArrow=classic;html=1;entryX=1;entryY=0;entryDx=0;entryDy=0;" parent="1" target="qsJm1ij4FR5lF7uQDItI-75" edge="1">
                    <mxGeometry width="50" height="50" relative="1" as="geometry">
                        <mxPoint x="510" y="140" as="sourcePoint"/>
                        <mxPoint x="550" y="130" as="targetPoint"/>
                    </mxGeometry>
                </mxCell>
                <mxCell id="qsJm1ij4FR5lF7uQDItI-254" value="cur" style="text;html=1;align=center;verticalAlign=middle;resizable=0;points=[];autosize=1;" parent="1" vertex="1">
                    <mxGeometry x="485" y="124" width="30" height="20" as="geometry"/>
                </mxCell>
                <mxCell id="qsJm1ij4FR5lF7uQDItI-255" value="" style="endArrow=classic;html=1;entryX=0;entryY=0;entryDx=0;entryDy=0;" parent="1" target="qsJm1ij4FR5lF7uQDItI-153" edge="1">
                    <mxGeometry width="50" height="50" relative="1" as="geometry">
                        <mxPoint x="410" y="370" as="sourcePoint"/>
                        <mxPoint x="420" y="390" as="targetPoint"/>
                    </mxGeometry>
                </mxCell>
                <mxCell id="qsJm1ij4FR5lF7uQDItI-256" value="cur" style="text;html=1;align=center;verticalAlign=middle;resizable=0;points=[];autosize=1;" parent="1" vertex="1">
                    <mxGeometry x="397.83000000000004" y="375" width="30" height="20" as="geometry"/>
                </mxCell>
                <mxCell id="qsJm1ij4FR5lF7uQDItI-257" value="" style="endArrow=classic;html=1;entryX=0;entryY=0;entryDx=0;entryDy=0;" parent="1" target="qsJm1ij4FR5lF7uQDItI-199" edge="1">
                    <mxGeometry width="50" height="50" relative="1" as="geometry">
                        <mxPoint x="40" y="655.83" as="sourcePoint"/>
                        <mxPoint x="80" y="635.83" as="targetPoint"/>
                    </mxGeometry>
                </mxCell>
                <mxCell id="qsJm1ij4FR5lF7uQDItI-258" value="cur" style="text;html=1;align=center;verticalAlign=middle;resizable=0;points=[];autosize=1;" parent="1" vertex="1">
                    <mxGeometry x="19" y="660.83" width="30" height="20" as="geometry"/>
                </mxCell>
                <mxCell id="qsJm1ij4FR5lF7uQDItI-259" value="" style="endArrow=classic;html=1;" parent="1" edge="1">
                    <mxGeometry width="50" height="50" relative="1" as="geometry">
                        <mxPoint x="185" y="615.4100000000001" as="sourcePoint"/>
                        <mxPoint x="415" y="615.4100000000001" as="targetPoint"/>
                    </mxGeometry>
                </mxCell>
                <mxCell id="qsJm1ij4FR5lF7uQDItI-336" value="" style="endArrow=classic;html=1;" parent="1" edge="1">
                    <mxGeometry width="50" height="50" relative="1" as="geometry">
                        <mxPoint x="440" y="790" as="sourcePoint"/>
                        <mxPoint x="440" y="860" as="targetPoint"/>
                    </mxGeometry>
                </mxCell>
                <mxCell id="qsJm1ij4FR5lF7uQDItI-338" value="" style="endArrow=classic;html=1;entryX=1;entryY=0;entryDx=0;entryDy=0;" parent="1" target="qsJm1ij4FR5lF7uQDItI-234" edge="1">
                    <mxGeometry width="50" height="50" relative="1" as="geometry">
                        <mxPoint x="490" y="600" as="sourcePoint"/>
                        <mxPoint x="360" y="645.83" as="targetPoint"/>
                    </mxGeometry>
                </mxCell>
                <mxCell id="qsJm1ij4FR5lF7uQDItI-339" value="cur" style="text;html=1;align=center;verticalAlign=middle;resizable=0;points=[];autosize=1;" parent="1" vertex="1">
                    <mxGeometry x="466" y="600" width="30" height="20" as="geometry"/>
                </mxCell>
                <mxCell id="qsJm1ij4FR5lF7uQDItI-351" value="80" style="ellipse;whiteSpace=wrap;html=1;aspect=fixed;fillColor=#FF3333;" parent="1" vertex="1">
                    <mxGeometry x="480" y="905" width="20" height="20" as="geometry"/>
                </mxCell>
                <mxCell id="qsJm1ij4FR5lF7uQDItI-352" value="120" style="ellipse;whiteSpace=wrap;html=1;aspect=fixed;fillColor=#FFFFFF;" parent="1" vertex="1">
                    <mxGeometry x="520" y="950" width="20" height="20" as="geometry"/>
                </mxCell>
                <mxCell id="qsJm1ij4FR5lF7uQDItI-353" value="70" style="ellipse;whiteSpace=wrap;html=1;aspect=fixed;fillColor=#FFFFFF;" parent="1" vertex="1">
                    <mxGeometry x="459" y="950" width="20" height="20" as="geometry"/>
                </mxCell>
                <mxCell id="qsJm1ij4FR5lF7uQDItI-354" value="50" style="ellipse;whiteSpace=wrap;html=1;aspect=fixed;fillColor=#FFFFFF;" parent="1" vertex="1">
                    <mxGeometry x="407" y="950" width="20" height="20" as="geometry"/>
                </mxCell>
                <mxCell id="qsJm1ij4FR5lF7uQDItI-355" value="52" style="ellipse;whiteSpace=wrap;html=1;aspect=fixed;fillColor=#FF3333;" parent="1" vertex="1">
                    <mxGeometry x="387" y="990" width="20" height="20" as="geometry"/>
                </mxCell>
                <mxCell id="qsJm1ij4FR5lF7uQDItI-356" value="" style="endArrow=none;html=1;exitX=0.5;exitY=0;exitDx=0;exitDy=0;entryX=0;entryY=1;entryDx=0;entryDy=0;" parent="1" source="qsJm1ij4FR5lF7uQDItI-355" target="qsJm1ij4FR5lF7uQDItI-354" edge="1">
                    <mxGeometry width="50" height="50" relative="1" as="geometry">
                        <mxPoint x="417" y="1040" as="sourcePoint"/>
                        <mxPoint x="467" y="990" as="targetPoint"/>
                    </mxGeometry>
                </mxCell>
                <mxCell id="qsJm1ij4FR5lF7uQDItI-357" value="" style="endArrow=none;html=1;entryX=1;entryY=1;entryDx=0;entryDy=0;exitX=0.5;exitY=0;exitDx=0;exitDy=0;" parent="1" source="qsJm1ij4FR5lF7uQDItI-371" target="qsJm1ij4FR5lF7uQDItI-352" edge="1">
                    <mxGeometry width="50" height="50" relative="1" as="geometry">
                        <mxPoint x="530" y="1065" as="sourcePoint"/>
                        <mxPoint x="580" y="1015" as="targetPoint"/>
                    </mxGeometry>
                </mxCell>
                <mxCell id="qsJm1ij4FR5lF7uQDItI-358" value="" style="endArrow=none;html=1;entryX=0;entryY=1;entryDx=0;entryDy=0;" parent="1" target="qsJm1ij4FR5lF7uQDItI-369" edge="1">
                    <mxGeometry width="50" height="50" relative="1" as="geometry">
                        <mxPoint x="333" y="990" as="sourcePoint"/>
                        <mxPoint x="373" y="970" as="targetPoint"/>
                    </mxGeometry>
                </mxCell>
                <mxCell id="qsJm1ij4FR5lF7uQDItI-359" value="" style="endArrow=none;html=1;exitX=1;exitY=1;exitDx=0;exitDy=0;entryX=0.5;entryY=0;entryDx=0;entryDy=0;" parent="1" source="qsJm1ij4FR5lF7uQDItI-369" target="qsJm1ij4FR5lF7uQDItI-372" edge="1">
                    <mxGeometry width="50" height="50" relative="1" as="geometry">
                        <mxPoint x="373" y="1010" as="sourcePoint"/>
                        <mxPoint x="423" y="960" as="targetPoint"/>
                    </mxGeometry>
                </mxCell>
                <mxCell id="qsJm1ij4FR5lF7uQDItI-360" value="" style="endArrow=none;html=1;exitX=1;exitY=1;exitDx=0;exitDy=0;entryX=0.5;entryY=0;entryDx=0;entryDy=0;" parent="1" source="qsJm1ij4FR5lF7uQDItI-354" target="qsJm1ij4FR5lF7uQDItI-373" edge="1">
                    <mxGeometry width="50" height="50" relative="1" as="geometry">
                        <mxPoint x="457" y="1070" as="sourcePoint"/>
                        <mxPoint x="507" y="1020" as="targetPoint"/>
                    </mxGeometry>
                </mxCell>
                <mxCell id="qsJm1ij4FR5lF7uQDItI-361" value="" style="endArrow=none;html=1;exitX=0.25;exitY=0;exitDx=0;exitDy=0;entryX=0;entryY=1;entryDx=0;entryDy=0;" parent="1" source="qsJm1ij4FR5lF7uQDItI-375" target="qsJm1ij4FR5lF7uQDItI-353" edge="1">
                    <mxGeometry width="50" height="50" relative="1" as="geometry">
                        <mxPoint x="499" y="1010" as="sourcePoint"/>
                        <mxPoint x="463" y="967" as="targetPoint"/>
                    </mxGeometry>
                </mxCell>
                <mxCell id="qsJm1ij4FR5lF7uQDItI-362" value="" style="endArrow=none;html=1;exitX=1;exitY=1;exitDx=0;exitDy=0;entryX=0.25;entryY=0;entryDx=0;entryDy=0;" parent="1" source="qsJm1ij4FR5lF7uQDItI-353" target="qsJm1ij4FR5lF7uQDItI-374" edge="1">
                    <mxGeometry width="50" height="50" relative="1" as="geometry">
                        <mxPoint x="519" y="1000" as="sourcePoint"/>
                        <mxPoint x="499" y="990" as="targetPoint"/>
                    </mxGeometry>
                </mxCell>
                <mxCell id="qsJm1ij4FR5lF7uQDItI-363" value="" style="endArrow=none;html=1;entryX=0;entryY=1;entryDx=0;entryDy=0;exitX=0.25;exitY=0;exitDx=0;exitDy=0;" parent="1" source="qsJm1ij4FR5lF7uQDItI-376" target="qsJm1ij4FR5lF7uQDItI-352" edge="1">
                    <mxGeometry width="50" height="50" relative="1" as="geometry">
                        <mxPoint x="470" y="1005" as="sourcePoint"/>
                        <mxPoint x="520" y="955" as="targetPoint"/>
                    </mxGeometry>
                </mxCell>
                <mxCell id="qsJm1ij4FR5lF7uQDItI-364" value="" style="endArrow=none;html=1;entryX=0;entryY=1;entryDx=0;entryDy=0;exitX=0.25;exitY=0;exitDx=0;exitDy=0;" parent="1" source="qsJm1ij4FR5lF7uQDItI-377" target="qsJm1ij4FR5lF7uQDItI-371" edge="1">
                    <mxGeometry width="50" height="50" relative="1" as="geometry">
                        <mxPoint x="520" y="1115" as="sourcePoint"/>
                        <mxPoint x="570" y="1065" as="targetPoint"/>
                    </mxGeometry>
                </mxCell>
                <mxCell id="qsJm1ij4FR5lF7uQDItI-365" value="" style="endArrow=none;html=1;entryX=1;entryY=1;entryDx=0;entryDy=0;exitX=0.5;exitY=0;exitDx=0;exitDy=0;" parent="1" source="qsJm1ij4FR5lF7uQDItI-378" target="qsJm1ij4FR5lF7uQDItI-371" edge="1">
                    <mxGeometry width="50" height="50" relative="1" as="geometry">
                        <mxPoint x="560" y="1135" as="sourcePoint"/>
                        <mxPoint x="610" y="1085" as="targetPoint"/>
                    </mxGeometry>
                </mxCell>
                <mxCell id="qsJm1ij4FR5lF7uQDItI-366" value="" style="endArrow=none;html=1;entryX=0;entryY=1;entryDx=0;entryDy=0;exitX=0.5;exitY=0;exitDx=0;exitDy=0;" parent="1" source="qsJm1ij4FR5lF7uQDItI-379" target="qsJm1ij4FR5lF7uQDItI-355" edge="1">
                    <mxGeometry width="50" height="50" relative="1" as="geometry">
                        <mxPoint x="367" y="1050" as="sourcePoint"/>
                        <mxPoint x="417" y="1000" as="targetPoint"/>
                    </mxGeometry>
                </mxCell>
                <mxCell id="qsJm1ij4FR5lF7uQDItI-367" value="" style="endArrow=none;html=1;entryX=1;entryY=1;entryDx=0;entryDy=0;exitX=0.5;exitY=0;exitDx=0;exitDy=0;" parent="1" source="qsJm1ij4FR5lF7uQDItI-380" target="qsJm1ij4FR5lF7uQDItI-355" edge="1">
                    <mxGeometry width="50" height="50" relative="1" as="geometry">
                        <mxPoint x="347" y="1110" as="sourcePoint"/>
                        <mxPoint x="397" y="1060" as="targetPoint"/>
                    </mxGeometry>
                </mxCell>
                <mxCell id="qsJm1ij4FR5lF7uQDItI-368" value="60" style="ellipse;whiteSpace=wrap;html=1;aspect=fixed;fillColor=#FFFFFF;" parent="1" vertex="1">
                    <mxGeometry x="423" y="870" width="20" height="20" as="geometry"/>
                </mxCell>
                <mxCell id="qsJm1ij4FR5lF7uQDItI-369" value="20" style="ellipse;whiteSpace=wrap;html=1;aspect=fixed;fillColor=#FFFFFF;" parent="1" vertex="1">
                    <mxGeometry x="343" y="950" width="20" height="20" as="geometry"/>
                </mxCell>
                <mxCell id="qsJm1ij4FR5lF7uQDItI-370" value="40" style="ellipse;whiteSpace=wrap;html=1;aspect=fixed;fillColor=#FF3333;" parent="1" vertex="1">
                    <mxGeometry x="372" y="910" width="20" height="20" as="geometry"/>
                </mxCell>
                <mxCell id="qsJm1ij4FR5lF7uQDItI-371" value="140" style="ellipse;whiteSpace=wrap;html=1;aspect=fixed;fillColor=#FF3333;" parent="1" vertex="1">
                    <mxGeometry x="540" y="990" width="20" height="20" as="geometry"/>
                </mxCell>
                <mxCell id="qsJm1ij4FR5lF7uQDItI-372" value="NIL" style="rounded=0;whiteSpace=wrap;html=1;fillColor=#FFFFFF;" parent="1" vertex="1">
                    <mxGeometry x="358" y="990" width="20" height="10" as="geometry"/>
                </mxCell>
                <mxCell id="qsJm1ij4FR5lF7uQDItI-373" value="NIL" style="rounded=0;whiteSpace=wrap;html=1;fillColor=#FFFFFF;" parent="1" vertex="1">
                    <mxGeometry x="423" y="995" width="20" height="10" as="geometry"/>
                </mxCell>
                <mxCell id="qsJm1ij4FR5lF7uQDItI-374" value="NIL" style="rounded=0;whiteSpace=wrap;html=1;fillColor=#FFFFFF;" parent="1" vertex="1">
                    <mxGeometry x="480" y="995" width="20" height="10" as="geometry"/>
                </mxCell>
                <mxCell id="qsJm1ij4FR5lF7uQDItI-375" value="NIL" style="rounded=0;whiteSpace=wrap;html=1;fillColor=#FFFFFF;" parent="1" vertex="1">
                    <mxGeometry x="450" y="995" width="20" height="10" as="geometry"/>
                </mxCell>
                <mxCell id="qsJm1ij4FR5lF7uQDItI-376" value="NIL" style="rounded=0;whiteSpace=wrap;html=1;fillColor=#FFFFFF;" parent="1" vertex="1">
                    <mxGeometry x="510" y="995" width="20" height="10" as="geometry"/>
                </mxCell>
                <mxCell id="qsJm1ij4FR5lF7uQDItI-377" value="NIL" style="rounded=0;whiteSpace=wrap;html=1;fillColor=#FFFFFF;" parent="1" vertex="1">
                    <mxGeometry x="530" y="1030" width="20" height="10" as="geometry"/>
                </mxCell>
                <mxCell id="qsJm1ij4FR5lF7uQDItI-378" value="NIL" style="rounded=0;whiteSpace=wrap;html=1;fillColor=#FFFFFF;" parent="1" vertex="1">
                    <mxGeometry x="560" y="1030" width="20" height="10" as="geometry"/>
                </mxCell>
                <mxCell id="qsJm1ij4FR5lF7uQDItI-379" value="NIL" style="rounded=0;whiteSpace=wrap;html=1;fillColor=#FFFFFF;" parent="1" vertex="1">
                    <mxGeometry x="362" y="1030" width="20" height="10" as="geometry"/>
                </mxCell>
                <mxCell id="qsJm1ij4FR5lF7uQDItI-380" value="NIL" style="rounded=0;whiteSpace=wrap;html=1;fillColor=#FFFFFF;" parent="1" vertex="1">
                    <mxGeometry x="407" y="1030" width="20" height="10" as="geometry"/>
                </mxCell>
                <mxCell id="qsJm1ij4FR5lF7uQDItI-381" value="" style="endArrow=none;html=1;exitX=0.5;exitY=0;exitDx=0;exitDy=0;entryX=0;entryY=0.5;entryDx=0;entryDy=0;" parent="1" source="qsJm1ij4FR5lF7uQDItI-369" target="qsJm1ij4FR5lF7uQDItI-370" edge="1">
                    <mxGeometry width="50" height="50" relative="1" as="geometry">
                        <mxPoint x="322" y="980" as="sourcePoint"/>
                        <mxPoint x="372" y="930" as="targetPoint"/>
                    </mxGeometry>
                </mxCell>
                <mxCell id="qsJm1ij4FR5lF7uQDItI-382" value="" style="endArrow=none;html=1;entryX=1;entryY=0.5;entryDx=0;entryDy=0;exitX=0;exitY=0;exitDx=0;exitDy=0;" parent="1" edge="1">
                    <mxGeometry width="50" height="50" relative="1" as="geometry">
                        <mxPoint x="409.9289321881347" y="949.9989321881351" as="sourcePoint"/>
                        <mxPoint x="392" y="917.0700000000002" as="targetPoint"/>
                        <Array as="points">
                            <mxPoint x="402" y="934.5700000000002"/>
                        </Array>
                    </mxGeometry>
                </mxCell>
                <mxCell id="qsJm1ij4FR5lF7uQDItI-383" value="NIL" style="rounded=0;whiteSpace=wrap;html=1;fillColor=#FFFFFF;" parent="1" vertex="1">
                    <mxGeometry x="323" y="990" width="20" height="10" as="geometry"/>
                </mxCell>
                <mxCell id="qsJm1ij4FR5lF7uQDItI-384" value="" style="endArrow=none;html=1;entryX=0;entryY=1;entryDx=0;entryDy=0;exitX=0.5;exitY=0;exitDx=0;exitDy=0;" parent="1" source="qsJm1ij4FR5lF7uQDItI-353" target="qsJm1ij4FR5lF7uQDItI-351" edge="1">
                    <mxGeometry width="50" height="50" relative="1" as="geometry">
                        <mxPoint x="460" y="970" as="sourcePoint"/>
                        <mxPoint x="510" y="920" as="targetPoint"/>
                    </mxGeometry>
                </mxCell>
                <mxCell id="qsJm1ij4FR5lF7uQDItI-385" value="" style="endArrow=none;html=1;exitX=1;exitY=0.5;exitDx=0;exitDy=0;entryX=0;entryY=0;entryDx=0;entryDy=0;" parent="1" source="qsJm1ij4FR5lF7uQDItI-351" target="qsJm1ij4FR5lF7uQDItI-352" edge="1">
                    <mxGeometry width="50" height="50" relative="1" as="geometry">
                        <mxPoint x="510" y="950" as="sourcePoint"/>
                        <mxPoint x="560" y="900" as="targetPoint"/>
                    </mxGeometry>
                </mxCell>
                <mxCell id="qsJm1ij4FR5lF7uQDItI-386" value="" style="endArrow=none;html=1;exitX=0.5;exitY=0;exitDx=0;exitDy=0;entryX=0;entryY=0.5;entryDx=0;entryDy=0;" parent="1" source="qsJm1ij4FR5lF7uQDItI-370" target="qsJm1ij4FR5lF7uQDItI-368" edge="1">
                    <mxGeometry width="50" height="50" relative="1" as="geometry">
                        <mxPoint x="389" y="940" as="sourcePoint"/>
                        <mxPoint x="439" y="890" as="targetPoint"/>
                    </mxGeometry>
                </mxCell>
                <mxCell id="qsJm1ij4FR5lF7uQDItI-387" value="" style="endArrow=none;html=1;exitX=1;exitY=0.5;exitDx=0;exitDy=0;entryX=0;entryY=0;entryDx=0;entryDy=0;" parent="1" source="qsJm1ij4FR5lF7uQDItI-368" target="qsJm1ij4FR5lF7uQDItI-351" edge="1">
                    <mxGeometry width="50" height="50" relative="1" as="geometry">
                        <mxPoint x="479" y="910" as="sourcePoint"/>
                        <mxPoint x="479" y="910" as="targetPoint"/>
                    </mxGeometry>
                </mxCell>
                <mxCell id="qsJm1ij4FR5lF7uQDItI-388" value="" style="endArrow=classic;html=1;" parent="1" edge="1">
                    <mxGeometry width="50" height="50" relative="1" as="geometry">
                        <mxPoint x="401.5" y="860" as="sourcePoint"/>
                        <mxPoint x="421.5" y="874" as="targetPoint"/>
                    </mxGeometry>
                </mxCell>
                <mxCell id="qsJm1ij4FR5lF7uQDItI-389" value="cur" style="text;html=1;align=center;verticalAlign=middle;resizable=0;points=[];autosize=1;" parent="1" vertex="1">
                    <mxGeometry x="402.5" y="850" width="30" height="20" as="geometry"/>
                </mxCell>
                <mxCell id="qsJm1ij4FR5lF7uQDItI-552" value="祖父结点右旋" style="text;html=1;align=center;verticalAlign=middle;resizable=0;points=[];autosize=1;" parent="1" vertex="1">
                    <mxGeometry x="434" y="830" width="90" height="20" as="geometry"/>
                </mxCell>
                <mxCell id="qsJm1ij4FR5lF7uQDItI-557" value="变色" style="text;html=1;align=center;verticalAlign=middle;resizable=0;points=[];autosize=1;" parent="1" vertex="1">
                    <mxGeometry x="332" y="100" width="40" height="20" as="geometry"/>
                </mxCell>
                <mxCell id="qsJm1ij4FR5lF7uQDItI-559" value="uncle" style="text;html=1;align=center;verticalAlign=middle;resizable=0;points=[];autosize=1;" parent="1" vertex="1">
                    <mxGeometry x="287" y="350" width="40" height="20" as="geometry"/>
                </mxCell>
                <mxCell id="qsJm1ij4FR5lF7uQDItI-560" value="" style="endArrow=classic;html=1;entryX=1;entryY=0;entryDx=0;entryDy=0;" parent="1" target="qsJm1ij4FR5lF7uQDItI-112" edge="1">
                    <mxGeometry width="50" height="50" relative="1" as="geometry">
                        <mxPoint x="220" y="380" as="sourcePoint"/>
                        <mxPoint x="250" y="360" as="targetPoint"/>
                    </mxGeometry>
                </mxCell>
                <mxCell id="qsJm1ij4FR5lF7uQDItI-561" value="cur" style="text;html=1;align=center;verticalAlign=middle;resizable=0;points=[];autosize=1;" parent="1" vertex="1">
                    <mxGeometry x="186" y="370" width="30" height="20" as="geometry"/>
                </mxCell>
                <mxCell id="qsJm1ij4FR5lF7uQDItI-562" value="变色" style="text;html=1;align=center;verticalAlign=middle;resizable=0;points=[];autosize=1;" parent="1" vertex="1">
                    <mxGeometry x="271" y="615.83" width="40" height="20" as="geometry"/>
                </mxCell>
                <mxCell id="qsJm1ij4FR5lF7uQDItI-602" value="第一种情况" style="text;html=1;align=center;verticalAlign=middle;resizable=0;points=[];autosize=1;" parent="1" vertex="1">
                    <mxGeometry x="10" y="165" width="80" height="20" as="geometry"/>
                </mxCell>
                <mxCell id="qsJm1ij4FR5lF7uQDItI-603" value="第二种情况" style="text;html=1;align=center;verticalAlign=middle;resizable=0;points=[];autosize=1;" parent="1" vertex="1">
                    <mxGeometry y="415" width="80" height="20" as="geometry"/>
                </mxCell>
                <mxCell id="qsJm1ij4FR5lF7uQDItI-604" value="第三种情况：" style="text;html=1;align=center;verticalAlign=middle;resizable=0;points=[];autosize=1;" parent="1" vertex="1">
                    <mxGeometry x="95" y="580" width="90" height="20" as="geometry"/>
                </mxCell>
                <mxCell id="qsJm1ij4FR5lF7uQDItI-618" value="" style="endArrow=classic;html=1;entryX=1;entryY=0.5;entryDx=0;entryDy=0;" parent="1" target="qsJm1ij4FR5lF7uQDItI-88" edge="1">
                    <mxGeometry width="50" height="50" relative="1" as="geometry">
                        <mxPoint x="300" y="350" as="sourcePoint"/>
                        <mxPoint x="340" y="350" as="targetPoint"/>
                    </mxGeometry>
                </mxCell>
                <mxCell id="qsJm1ij4FR5lF7uQDItI-619" value="140" style="ellipse;whiteSpace=wrap;html=1;aspect=fixed;fillColor=#FF3333;" parent="1" vertex="1">
                    <mxGeometry x="291" y="390" width="20" height="20" as="geometry"/>
                </mxCell>
                <mxCell id="PLWnVdBnxbxf1y3KlK_t-1" value="D" style="ellipse;whiteSpace=wrap;html=1;aspect=fixed;fillColor=#FF3333;" parent="1" vertex="1">
                    <mxGeometry x="146" y="1300" width="20" height="20" as="geometry"/>
                </mxCell>
                <mxCell id="PLWnVdBnxbxf1y3KlK_t-2" value="A" style="ellipse;whiteSpace=wrap;html=1;aspect=fixed;fillColor=#FFFFFF;" parent="1" vertex="1">
                    <mxGeometry x="86" y="1300" width="20" height="20" as="geometry"/>
                </mxCell>
                <mxCell id="PLWnVdBnxbxf1y3KlK_t-3" value="B" style="ellipse;whiteSpace=wrap;html=1;aspect=fixed;fillColor=#FFFFFF;" parent="1" vertex="1">
                    <mxGeometry x="116" y="1260" width="20" height="20" as="geometry"/>
                </mxCell>
                <mxCell id="PLWnVdBnxbxf1y3KlK_t-4" value="E" style="ellipse;whiteSpace=wrap;html=1;aspect=fixed;fillColor=#FFFFFF;" parent="1" vertex="1">
                    <mxGeometry x="177" y="1340" width="20" height="20" as="geometry"/>
                </mxCell>
                <mxCell id="PLWnVdBnxbxf1y3KlK_t-5" value="C" style="ellipse;whiteSpace=wrap;html=1;aspect=fixed;fillColor=#FFFFFF;" parent="1" vertex="1">
                    <mxGeometry x="115" y="1340" width="20" height="20" as="geometry"/>
                </mxCell>
                <mxCell id="PLWnVdBnxbxf1y3KlK_t-14" value="" style="endArrow=none;html=1;entryX=0;entryY=1;entryDx=0;entryDy=0;exitX=0.5;exitY=0;exitDx=0;exitDy=0;" parent="1" source="PLWnVdBnxbxf1y3KlK_t-2" target="PLWnVdBnxbxf1y3KlK_t-3" edge="1">
                    <mxGeometry width="50" height="50" relative="1" as="geometry">
                        <mxPoint x="56" y="1370" as="sourcePoint"/>
                        <mxPoint x="106" y="1320" as="targetPoint"/>
                    </mxGeometry>
                </mxCell>
                <mxCell id="PLWnVdBnxbxf1y3KlK_t-15" value="" style="endArrow=none;html=1;exitX=1;exitY=1;exitDx=0;exitDy=0;entryX=0.5;entryY=0;entryDx=0;entryDy=0;" parent="1" source="PLWnVdBnxbxf1y3KlK_t-3" target="PLWnVdBnxbxf1y3KlK_t-1" edge="1">
                    <mxGeometry width="50" height="50" relative="1" as="geometry">
                        <mxPoint x="166" y="1330" as="sourcePoint"/>
                        <mxPoint x="216" y="1280" as="targetPoint"/>
                    </mxGeometry>
                </mxCell>
                <mxCell id="PLWnVdBnxbxf1y3KlK_t-16" value="" style="endArrow=none;html=1;entryX=0;entryY=1;entryDx=0;entryDy=0;exitX=0.5;exitY=0;exitDx=0;exitDy=0;" parent="1" source="PLWnVdBnxbxf1y3KlK_t-5" target="PLWnVdBnxbxf1y3KlK_t-1" edge="1">
                    <mxGeometry width="50" height="50" relative="1" as="geometry">
                        <mxPoint x="96" y="1430" as="sourcePoint"/>
                        <mxPoint x="146" y="1380" as="targetPoint"/>
                    </mxGeometry>
                </mxCell>
                <mxCell id="PLWnVdBnxbxf1y3KlK_t-17" value="" style="endArrow=none;html=1;exitX=1;exitY=1;exitDx=0;exitDy=0;entryX=0.5;entryY=0;entryDx=0;entryDy=0;" parent="1" source="PLWnVdBnxbxf1y3KlK_t-1" target="PLWnVdBnxbxf1y3KlK_t-4" edge="1">
                    <mxGeometry width="50" height="50" relative="1" as="geometry">
                        <mxPoint x="166" y="1420" as="sourcePoint"/>
                        <mxPoint x="216" y="1370" as="targetPoint"/>
                    </mxGeometry>
                </mxCell>
                <mxCell id="PLWnVdBnxbxf1y3KlK_t-18" value="D" style="ellipse;whiteSpace=wrap;html=1;aspect=fixed;fillColor=#FFFFFF;" parent="1" vertex="1">
                    <mxGeometry x="306" y="1300" width="20" height="20" as="geometry"/>
                </mxCell>
                <mxCell id="PLWnVdBnxbxf1y3KlK_t-19" value="A" style="ellipse;whiteSpace=wrap;html=1;aspect=fixed;fillColor=#FFFFFF;" parent="1" vertex="1">
                    <mxGeometry x="246" y="1300" width="20" height="20" as="geometry"/>
                </mxCell>
                <mxCell id="PLWnVdBnxbxf1y3KlK_t-20" value="B" style="ellipse;whiteSpace=wrap;html=1;aspect=fixed;fillColor=#FF3333;" parent="1" vertex="1">
                    <mxGeometry x="276" y="1260" width="20" height="20" as="geometry"/>
                </mxCell>
                <mxCell id="PLWnVdBnxbxf1y3KlK_t-21" value="E" style="ellipse;whiteSpace=wrap;html=1;aspect=fixed;fillColor=#FFFFFF;" parent="1" vertex="1">
                    <mxGeometry x="337" y="1340" width="20" height="20" as="geometry"/>
                </mxCell>
                <mxCell id="PLWnVdBnxbxf1y3KlK_t-22" value="C" style="ellipse;whiteSpace=wrap;html=1;aspect=fixed;fillColor=#FFFFFF;" parent="1" vertex="1">
                    <mxGeometry x="275" y="1340" width="20" height="20" as="geometry"/>
                </mxCell>
                <mxCell id="PLWnVdBnxbxf1y3KlK_t-23" value="" style="endArrow=none;html=1;entryX=0;entryY=1;entryDx=0;entryDy=0;exitX=0.5;exitY=0;exitDx=0;exitDy=0;" parent="1" source="PLWnVdBnxbxf1y3KlK_t-19" target="PLWnVdBnxbxf1y3KlK_t-20" edge="1">
                    <mxGeometry width="50" height="50" relative="1" as="geometry">
                        <mxPoint x="216" y="1370" as="sourcePoint"/>
                        <mxPoint x="266" y="1320" as="targetPoint"/>
                    </mxGeometry>
                </mxCell>
                <mxCell id="PLWnVdBnxbxf1y3KlK_t-24" value="" style="endArrow=none;html=1;exitX=1;exitY=1;exitDx=0;exitDy=0;entryX=0.5;entryY=0;entryDx=0;entryDy=0;" parent="1" source="PLWnVdBnxbxf1y3KlK_t-20" target="PLWnVdBnxbxf1y3KlK_t-18" edge="1">
                    <mxGeometry width="50" height="50" relative="1" as="geometry">
                        <mxPoint x="326" y="1330" as="sourcePoint"/>
                        <mxPoint x="376" y="1280" as="targetPoint"/>
                    </mxGeometry>
                </mxCell>
                <mxCell id="PLWnVdBnxbxf1y3KlK_t-25" value="" style="endArrow=none;html=1;entryX=0;entryY=1;entryDx=0;entryDy=0;exitX=0.5;exitY=0;exitDx=0;exitDy=0;" parent="1" source="PLWnVdBnxbxf1y3KlK_t-22" target="PLWnVdBnxbxf1y3KlK_t-18" edge="1">
                    <mxGeometry width="50" height="50" relative="1" as="geometry">
                        <mxPoint x="256" y="1430" as="sourcePoint"/>
                        <mxPoint x="306" y="1380" as="targetPoint"/>
                    </mxGeometry>
                </mxCell>
                <mxCell id="PLWnVdBnxbxf1y3KlK_t-26" value="" style="endArrow=none;html=1;exitX=1;exitY=1;exitDx=0;exitDy=0;entryX=0.5;entryY=0;entryDx=0;entryDy=0;" parent="1" source="PLWnVdBnxbxf1y3KlK_t-18" target="PLWnVdBnxbxf1y3KlK_t-21" edge="1">
                    <mxGeometry width="50" height="50" relative="1" as="geometry">
                        <mxPoint x="326" y="1420" as="sourcePoint"/>
                        <mxPoint x="376" y="1370" as="targetPoint"/>
                    </mxGeometry>
                </mxCell>
                <mxCell id="PLWnVdBnxbxf1y3KlK_t-27" value="D" style="ellipse;whiteSpace=wrap;html=1;aspect=fixed;fillColor=#FFFFFF;" parent="1" vertex="1">
                    <mxGeometry x="437.00000000000006" y="1260" width="20" height="20" as="geometry"/>
                </mxCell>
                <mxCell id="PLWnVdBnxbxf1y3KlK_t-28" value="A" style="ellipse;whiteSpace=wrap;html=1;aspect=fixed;fillColor=#FFFFFF;" parent="1" vertex="1">
                    <mxGeometry x="379.00000000000006" y="1340" width="20" height="20" as="geometry"/>
                </mxCell>
                <mxCell id="PLWnVdBnxbxf1y3KlK_t-29" value="B" style="ellipse;whiteSpace=wrap;html=1;aspect=fixed;fillColor=#FF3333;" parent="1" vertex="1">
                    <mxGeometry x="409.00000000000006" y="1300" width="20" height="20" as="geometry"/>
                </mxCell>
                <mxCell id="PLWnVdBnxbxf1y3KlK_t-30" value="E" style="ellipse;whiteSpace=wrap;html=1;aspect=fixed;fillColor=#FFFFFF;" parent="1" vertex="1">
                    <mxGeometry x="468.00000000000006" y="1300" width="20" height="20" as="geometry"/>
                </mxCell>
                <mxCell id="PLWnVdBnxbxf1y3KlK_t-31" value="C" style="ellipse;whiteSpace=wrap;html=1;aspect=fixed;fillColor=#FFFFFF;" parent="1" vertex="1">
                    <mxGeometry x="437" y="1340" width="20" height="20" as="geometry"/>
                </mxCell>
                <mxCell id="PLWnVdBnxbxf1y3KlK_t-32" value="" style="endArrow=none;html=1;entryX=0;entryY=1;entryDx=0;entryDy=0;exitX=1;exitY=0;exitDx=0;exitDy=0;" parent="1" source="PLWnVdBnxbxf1y3KlK_t-28" target="PLWnVdBnxbxf1y3KlK_t-29" edge="1">
                    <mxGeometry width="50" height="50" relative="1" as="geometry">
                        <mxPoint x="349.00000000000006" y="1410" as="sourcePoint"/>
                        <mxPoint x="399.00000000000006" y="1360" as="targetPoint"/>
                    </mxGeometry>
                </mxCell>
                <mxCell id="PLWnVdBnxbxf1y3KlK_t-35" value="" style="endArrow=none;html=1;exitX=1;exitY=1;exitDx=0;exitDy=0;entryX=0.5;entryY=0;entryDx=0;entryDy=0;" parent="1" source="PLWnVdBnxbxf1y3KlK_t-27" target="PLWnVdBnxbxf1y3KlK_t-30" edge="1">
                    <mxGeometry width="50" height="50" relative="1" as="geometry">
                        <mxPoint x="457.00000000000006" y="1380" as="sourcePoint"/>
                        <mxPoint x="507.00000000000006" y="1330" as="targetPoint"/>
                    </mxGeometry>
                </mxCell>
                <mxCell id="PLWnVdBnxbxf1y3KlK_t-36" value="" style="endArrow=none;html=1;entryX=0;entryY=1;entryDx=0;entryDy=0;exitX=0.802;exitY=-0.081;exitDx=0;exitDy=0;exitPerimeter=0;" parent="1" source="PLWnVdBnxbxf1y3KlK_t-29" target="PLWnVdBnxbxf1y3KlK_t-27" edge="1">
                    <mxGeometry width="50" height="50" relative="1" as="geometry">
                        <mxPoint x="376" y="1310" as="sourcePoint"/>
                        <mxPoint x="426" y="1260" as="targetPoint"/>
                    </mxGeometry>
                </mxCell>
                <mxCell id="PLWnVdBnxbxf1y3KlK_t-37" value="" style="endArrow=none;html=1;exitX=1;exitY=1;exitDx=0;exitDy=0;entryX=0.5;entryY=0;entryDx=0;entryDy=0;" parent="1" source="PLWnVdBnxbxf1y3KlK_t-29" target="PLWnVdBnxbxf1y3KlK_t-31" edge="1">
                    <mxGeometry width="50" height="50" relative="1" as="geometry">
                        <mxPoint x="366" y="1450" as="sourcePoint"/>
                        <mxPoint x="416" y="1400" as="targetPoint"/>
                    </mxGeometry>
                </mxCell>
                <mxCell id="PLWnVdBnxbxf1y3KlK_t-38" value="" style="endArrow=classic;html=1;" parent="1" edge="1">
                    <mxGeometry width="50" height="50" relative="1" as="geometry">
                        <mxPoint x="146" y="1280" as="sourcePoint"/>
                        <mxPoint x="266" y="1280" as="targetPoint"/>
                    </mxGeometry>
                </mxCell>
                <mxCell id="PLWnVdBnxbxf1y3KlK_t-39" value="" style="endArrow=classic;html=1;" parent="1" edge="1">
                    <mxGeometry width="50" height="50" relative="1" as="geometry">
                        <mxPoint x="316.9999999999999" y="1278" as="sourcePoint"/>
                        <mxPoint x="437" y="1278" as="targetPoint"/>
                    </mxGeometry>
                </mxCell>
                <mxCell id="PLWnVdBnxbxf1y3KlK_t-40" value="变色" style="text;html=1;align=center;verticalAlign=middle;resizable=0;points=[];autosize=1;" parent="1" vertex="1">
                    <mxGeometry x="180" y="1260" width="40" height="20" as="geometry"/>
                </mxCell>
                <mxCell id="PLWnVdBnxbxf1y3KlK_t-41" value="左旋" style="text;html=1;align=center;verticalAlign=middle;resizable=0;points=[];autosize=1;" parent="1" vertex="1">
                    <mxGeometry x="351" y="1260" width="40" height="20" as="geometry"/>
                </mxCell>
                <mxCell id="PLWnVdBnxbxf1y3KlK_t-43" value="" style="endArrow=classic;html=1;entryX=0;entryY=0;entryDx=0;entryDy=0;" parent="1" target="PLWnVdBnxbxf1y3KlK_t-2" edge="1">
                    <mxGeometry width="50" height="50" relative="1" as="geometry">
                        <mxPoint x="66" y="1290" as="sourcePoint"/>
                        <mxPoint x="86" y="1330" as="targetPoint"/>
                    </mxGeometry>
                </mxCell>
                <mxCell id="PLWnVdBnxbxf1y3KlK_t-44" value="cur" style="text;html=1;align=center;verticalAlign=middle;resizable=0;points=[];autosize=1;" parent="1" vertex="1">
                    <mxGeometry x="65" y="1280" width="30" height="20" as="geometry"/>
                </mxCell>
                <mxCell id="PLWnVdBnxbxf1y3KlK_t-45" value="cur" style="text;html=1;align=center;verticalAlign=middle;resizable=0;points=[];autosize=1;" parent="1" vertex="1">
                    <mxGeometry x="293" y="1240" width="30" height="20" as="geometry"/>
                </mxCell>
                <mxCell id="PLWnVdBnxbxf1y3KlK_t-46" value="" style="endArrow=classic;html=1;entryX=1;entryY=0.5;entryDx=0;entryDy=0;" parent="1" target="PLWnVdBnxbxf1y3KlK_t-20" edge="1">
                    <mxGeometry width="50" height="50" relative="1" as="geometry">
                        <mxPoint x="316" y="1260" as="sourcePoint"/>
                        <mxPoint x="346" y="1260" as="targetPoint"/>
                    </mxGeometry>
                </mxCell>
                <mxCell id="PLWnVdBnxbxf1y3KlK_t-49" value="&lt;span style=&quot;text-align: center&quot;&gt;case2：&lt;/span&gt;当前结点为黑色，兄弟结点为红色，父结点和兄弟结点的儿子结点都为黑色" style="text;html=1;" parent="1" vertex="1">
                    <mxGeometry x="79" y="1220" width="465" height="20" as="geometry"/>
                </mxCell>
                <mxCell id="PLWnVdBnxbxf1y3KlK_t-53" value="case3：当前结点为黑色，兄弟结点、兄弟结点的儿子结点、父结点全都为黑色" style="text;html=1;align=center;verticalAlign=middle;resizable=0;points=[];autosize=1;" parent="1" vertex="1">
                    <mxGeometry x="67" y="1420" width="430" height="20" as="geometry"/>
                </mxCell>
                <mxCell id="PLWnVdBnxbxf1y3KlK_t-54" value="D" style="ellipse;whiteSpace=wrap;html=1;aspect=fixed;fillColor=#FFFFFF;" parent="1" vertex="1">
                    <mxGeometry x="153" y="1500" width="20" height="20" as="geometry"/>
                </mxCell>
                <mxCell id="PLWnVdBnxbxf1y3KlK_t-55" value="A" style="ellipse;whiteSpace=wrap;html=1;aspect=fixed;fillColor=#FFFFFF;" parent="1" vertex="1">
                    <mxGeometry x="93" y="1500" width="20" height="20" as="geometry"/>
                </mxCell>
                <mxCell id="PLWnVdBnxbxf1y3KlK_t-56" value="B" style="ellipse;whiteSpace=wrap;html=1;aspect=fixed;fillColor=#FFFFFF;" parent="1" vertex="1">
                    <mxGeometry x="123" y="1460" width="20" height="20" as="geometry"/>
                </mxCell>
                <mxCell id="PLWnVdBnxbxf1y3KlK_t-57" value="E" style="ellipse;whiteSpace=wrap;html=1;aspect=fixed;fillColor=#FFFFFF;" parent="1" vertex="1">
                    <mxGeometry x="184" y="1540" width="20" height="20" as="geometry"/>
                </mxCell>
                <mxCell id="PLWnVdBnxbxf1y3KlK_t-58" value="C" style="ellipse;whiteSpace=wrap;html=1;aspect=fixed;fillColor=#FFFFFF;" parent="1" vertex="1">
                    <mxGeometry x="122" y="1540" width="20" height="20" as="geometry"/>
                </mxCell>
                <mxCell id="PLWnVdBnxbxf1y3KlK_t-59" value="" style="endArrow=none;html=1;entryX=0;entryY=1;entryDx=0;entryDy=0;exitX=0.5;exitY=0;exitDx=0;exitDy=0;" parent="1" source="PLWnVdBnxbxf1y3KlK_t-55" target="PLWnVdBnxbxf1y3KlK_t-56" edge="1">
                    <mxGeometry width="50" height="50" relative="1" as="geometry">
                        <mxPoint x="63" y="1570" as="sourcePoint"/>
                        <mxPoint x="113" y="1520" as="targetPoint"/>
                    </mxGeometry>
                </mxCell>
                <mxCell id="PLWnVdBnxbxf1y3KlK_t-60" value="" style="endArrow=none;html=1;exitX=1;exitY=1;exitDx=0;exitDy=0;entryX=0.5;entryY=0;entryDx=0;entryDy=0;" parent="1" source="PLWnVdBnxbxf1y3KlK_t-56" target="PLWnVdBnxbxf1y3KlK_t-54" edge="1">
                    <mxGeometry width="50" height="50" relative="1" as="geometry">
                        <mxPoint x="173" y="1530" as="sourcePoint"/>
                        <mxPoint x="223" y="1480" as="targetPoint"/>
                    </mxGeometry>
                </mxCell>
                <mxCell id="PLWnVdBnxbxf1y3KlK_t-61" value="" style="endArrow=none;html=1;entryX=0;entryY=1;entryDx=0;entryDy=0;exitX=0.5;exitY=0;exitDx=0;exitDy=0;" parent="1" source="PLWnVdBnxbxf1y3KlK_t-58" target="PLWnVdBnxbxf1y3KlK_t-54" edge="1">
                    <mxGeometry width="50" height="50" relative="1" as="geometry">
                        <mxPoint x="103" y="1630" as="sourcePoint"/>
                        <mxPoint x="153" y="1580" as="targetPoint"/>
                    </mxGeometry>
                </mxCell>
                <mxCell id="PLWnVdBnxbxf1y3KlK_t-62" value="" style="endArrow=none;html=1;exitX=1;exitY=1;exitDx=0;exitDy=0;entryX=0.5;entryY=0;entryDx=0;entryDy=0;" parent="1" source="PLWnVdBnxbxf1y3KlK_t-54" target="PLWnVdBnxbxf1y3KlK_t-57" edge="1">
                    <mxGeometry width="50" height="50" relative="1" as="geometry">
                        <mxPoint x="173" y="1620" as="sourcePoint"/>
                        <mxPoint x="223" y="1570" as="targetPoint"/>
                    </mxGeometry>
                </mxCell>
                <mxCell id="PLWnVdBnxbxf1y3KlK_t-63" value="" style="endArrow=classic;html=1;entryX=0;entryY=0;entryDx=0;entryDy=0;" parent="1" target="PLWnVdBnxbxf1y3KlK_t-55" edge="1">
                    <mxGeometry width="50" height="50" relative="1" as="geometry">
                        <mxPoint x="73" y="1490" as="sourcePoint"/>
                        <mxPoint x="93" y="1530" as="targetPoint"/>
                    </mxGeometry>
                </mxCell>
                <mxCell id="PLWnVdBnxbxf1y3KlK_t-64" value="cur" style="text;html=1;align=center;verticalAlign=middle;resizable=0;points=[];autosize=1;" parent="1" vertex="1">
                    <mxGeometry x="72" y="1480" width="30" height="20" as="geometry"/>
                </mxCell>
                <mxCell id="PLWnVdBnxbxf1y3KlK_t-65" value="case4：当前结点颜色是黑色，兄弟结点和它的儿子结点都为黑色，父结点为红色" style="text;html=1;" parent="1" vertex="1">
                    <mxGeometry x="77" y="1620" width="353" height="20" as="geometry"/>
                </mxCell>
                <mxCell id="PLWnVdBnxbxf1y3KlK_t-66" value="case6：当前结点颜色是黑色，兄弟结点是黑色，兄弟结点的右子结点是红色，兄弟结点的左子结点颜色是任意色" style="text;html=1;" parent="1" vertex="1">
                    <mxGeometry x="80.5" y="2060" width="583" height="20" as="geometry"/>
                </mxCell>
                <mxCell id="PLWnVdBnxbxf1y3KlK_t-68" value="D" style="ellipse;whiteSpace=wrap;html=1;aspect=fixed;fillColor=#FFFFFF;" parent="1" vertex="1">
                    <mxGeometry x="155" y="1700" width="20" height="20" as="geometry"/>
                </mxCell>
                <mxCell id="PLWnVdBnxbxf1y3KlK_t-69" value="A" style="ellipse;whiteSpace=wrap;html=1;aspect=fixed;fillColor=#FFFFFF;" parent="1" vertex="1">
                    <mxGeometry x="95" y="1700" width="20" height="20" as="geometry"/>
                </mxCell>
                <mxCell id="PLWnVdBnxbxf1y3KlK_t-70" value="B" style="ellipse;whiteSpace=wrap;html=1;aspect=fixed;fillColor=#FF3333;" parent="1" vertex="1">
                    <mxGeometry x="125" y="1660" width="20" height="20" as="geometry"/>
                </mxCell>
                <mxCell id="PLWnVdBnxbxf1y3KlK_t-71" value="E" style="ellipse;whiteSpace=wrap;html=1;aspect=fixed;fillColor=#FFFFFF;" parent="1" vertex="1">
                    <mxGeometry x="186" y="1740" width="20" height="20" as="geometry"/>
                </mxCell>
                <mxCell id="PLWnVdBnxbxf1y3KlK_t-72" value="C" style="ellipse;whiteSpace=wrap;html=1;aspect=fixed;fillColor=#FFFFFF;" parent="1" vertex="1">
                    <mxGeometry x="124" y="1740" width="20" height="20" as="geometry"/>
                </mxCell>
                <mxCell id="PLWnVdBnxbxf1y3KlK_t-73" value="" style="endArrow=none;html=1;entryX=0;entryY=1;entryDx=0;entryDy=0;exitX=0.5;exitY=0;exitDx=0;exitDy=0;" parent="1" source="PLWnVdBnxbxf1y3KlK_t-69" target="PLWnVdBnxbxf1y3KlK_t-70" edge="1">
                    <mxGeometry width="50" height="50" relative="1" as="geometry">
                        <mxPoint x="65" y="1770" as="sourcePoint"/>
                        <mxPoint x="115" y="1720" as="targetPoint"/>
                    </mxGeometry>
                </mxCell>
                <mxCell id="PLWnVdBnxbxf1y3KlK_t-74" value="" style="endArrow=none;html=1;exitX=1;exitY=1;exitDx=0;exitDy=0;entryX=0.5;entryY=0;entryDx=0;entryDy=0;" parent="1" source="PLWnVdBnxbxf1y3KlK_t-70" target="PLWnVdBnxbxf1y3KlK_t-68" edge="1">
                    <mxGeometry width="50" height="50" relative="1" as="geometry">
                        <mxPoint x="175" y="1730" as="sourcePoint"/>
                        <mxPoint x="225" y="1680" as="targetPoint"/>
                    </mxGeometry>
                </mxCell>
                <mxCell id="PLWnVdBnxbxf1y3KlK_t-75" value="" style="endArrow=none;html=1;entryX=0;entryY=1;entryDx=0;entryDy=0;exitX=0.5;exitY=0;exitDx=0;exitDy=0;" parent="1" source="PLWnVdBnxbxf1y3KlK_t-72" target="PLWnVdBnxbxf1y3KlK_t-68" edge="1">
                    <mxGeometry width="50" height="50" relative="1" as="geometry">
                        <mxPoint x="105" y="1830" as="sourcePoint"/>
                        <mxPoint x="155" y="1780" as="targetPoint"/>
                    </mxGeometry>
                </mxCell>
                <mxCell id="PLWnVdBnxbxf1y3KlK_t-76" value="" style="endArrow=none;html=1;exitX=1;exitY=1;exitDx=0;exitDy=0;entryX=0.5;entryY=0;entryDx=0;entryDy=0;" parent="1" source="PLWnVdBnxbxf1y3KlK_t-68" target="PLWnVdBnxbxf1y3KlK_t-71" edge="1">
                    <mxGeometry width="50" height="50" relative="1" as="geometry">
                        <mxPoint x="175" y="1820" as="sourcePoint"/>
                        <mxPoint x="225" y="1770" as="targetPoint"/>
                    </mxGeometry>
                </mxCell>
                <mxCell id="PLWnVdBnxbxf1y3KlK_t-77" value="" style="endArrow=classic;html=1;entryX=0;entryY=0;entryDx=0;entryDy=0;" parent="1" target="PLWnVdBnxbxf1y3KlK_t-69" edge="1">
                    <mxGeometry width="50" height="50" relative="1" as="geometry">
                        <mxPoint x="75" y="1690" as="sourcePoint"/>
                        <mxPoint x="95" y="1730" as="targetPoint"/>
                    </mxGeometry>
                </mxCell>
                <mxCell id="PLWnVdBnxbxf1y3KlK_t-78" value="cur" style="text;html=1;align=center;verticalAlign=middle;resizable=0;points=[];autosize=1;" parent="1" vertex="1">
                    <mxGeometry x="74" y="1680" width="30" height="20" as="geometry"/>
                </mxCell>
                <mxCell id="PLWnVdBnxbxf1y3KlK_t-79" value="D" style="ellipse;whiteSpace=wrap;html=1;aspect=fixed;fillColor=#FFFFFF;" parent="1" vertex="1">
                    <mxGeometry x="158" y="1900" width="20" height="20" as="geometry"/>
                </mxCell>
                <mxCell id="PLWnVdBnxbxf1y3KlK_t-80" value="A" style="ellipse;whiteSpace=wrap;html=1;aspect=fixed;fillColor=#FFFFFF;" parent="1" vertex="1">
                    <mxGeometry x="98" y="1900" width="20" height="20" as="geometry"/>
                </mxCell>
                <mxCell id="PLWnVdBnxbxf1y3KlK_t-81" value="B" style="ellipse;whiteSpace=wrap;html=1;aspect=fixed;fillColor=#FFFFFF;" parent="1" vertex="1">
                    <mxGeometry x="128" y="1860" width="20" height="20" as="geometry"/>
                </mxCell>
                <mxCell id="PLWnVdBnxbxf1y3KlK_t-82" value="E" style="ellipse;whiteSpace=wrap;html=1;aspect=fixed;fillColor=#FFFFFF;" parent="1" vertex="1">
                    <mxGeometry x="189" y="1940" width="20" height="20" as="geometry"/>
                </mxCell>
                <mxCell id="PLWnVdBnxbxf1y3KlK_t-83" value="C" style="ellipse;whiteSpace=wrap;html=1;aspect=fixed;fillColor=#FF3333;" parent="1" vertex="1">
                    <mxGeometry x="127" y="1940" width="20" height="20" as="geometry"/>
                </mxCell>
                <mxCell id="PLWnVdBnxbxf1y3KlK_t-84" value="" style="endArrow=none;html=1;entryX=0;entryY=1;entryDx=0;entryDy=0;exitX=0.5;exitY=0;exitDx=0;exitDy=0;" parent="1" source="PLWnVdBnxbxf1y3KlK_t-80" target="PLWnVdBnxbxf1y3KlK_t-81" edge="1">
                    <mxGeometry width="50" height="50" relative="1" as="geometry">
                        <mxPoint x="68" y="1970" as="sourcePoint"/>
                        <mxPoint x="118" y="1920" as="targetPoint"/>
                    </mxGeometry>
                </mxCell>
                <mxCell id="PLWnVdBnxbxf1y3KlK_t-85" value="" style="endArrow=none;html=1;exitX=1;exitY=1;exitDx=0;exitDy=0;" parent="1" source="PLWnVdBnxbxf1y3KlK_t-81" edge="1">
                    <mxGeometry width="50" height="50" relative="1" as="geometry">
                        <mxPoint x="178" y="1930" as="sourcePoint"/>
                        <mxPoint x="168" y="1900" as="targetPoint"/>
                    </mxGeometry>
                </mxCell>
                <mxCell id="PLWnVdBnxbxf1y3KlK_t-86" value="" style="endArrow=none;html=1;entryX=0;entryY=1;entryDx=0;entryDy=0;exitX=0.5;exitY=0;exitDx=0;exitDy=0;" parent="1" source="PLWnVdBnxbxf1y3KlK_t-83" target="PLWnVdBnxbxf1y3KlK_t-79" edge="1">
                    <mxGeometry width="50" height="50" relative="1" as="geometry">
                        <mxPoint x="108" y="2030" as="sourcePoint"/>
                        <mxPoint x="158" y="1980" as="targetPoint"/>
                    </mxGeometry>
                </mxCell>
                <mxCell id="PLWnVdBnxbxf1y3KlK_t-87" value="" style="endArrow=none;html=1;exitX=1;exitY=1;exitDx=0;exitDy=0;entryX=0.5;entryY=0;entryDx=0;entryDy=0;" parent="1" source="PLWnVdBnxbxf1y3KlK_t-79" target="PLWnVdBnxbxf1y3KlK_t-82" edge="1">
                    <mxGeometry width="50" height="50" relative="1" as="geometry">
                        <mxPoint x="178" y="2020" as="sourcePoint"/>
                        <mxPoint x="228" y="1970" as="targetPoint"/>
                    </mxGeometry>
                </mxCell>
                <mxCell id="PLWnVdBnxbxf1y3KlK_t-88" value="" style="endArrow=classic;html=1;entryX=0;entryY=0;entryDx=0;entryDy=0;" parent="1" target="PLWnVdBnxbxf1y3KlK_t-80" edge="1">
                    <mxGeometry width="50" height="50" relative="1" as="geometry">
                        <mxPoint x="78" y="1890" as="sourcePoint"/>
                        <mxPoint x="98" y="1930" as="targetPoint"/>
                    </mxGeometry>
                </mxCell>
                <mxCell id="PLWnVdBnxbxf1y3KlK_t-89" value="cur" style="text;html=1;align=center;verticalAlign=middle;resizable=0;points=[];autosize=1;" parent="1" vertex="1">
                    <mxGeometry x="77" y="1880" width="30" height="20" as="geometry"/>
                </mxCell>
                <mxCell id="PLWnVdBnxbxf1y3KlK_t-90" value="" style="endArrow=classic;html=1;entryX=1;entryY=0;entryDx=0;entryDy=0;" parent="1" target="PLWnVdBnxbxf1y3KlK_t-54" edge="1">
                    <mxGeometry width="50" height="50" relative="1" as="geometry">
                        <mxPoint x="190" y="1490" as="sourcePoint"/>
                        <mxPoint x="250" y="1470" as="targetPoint"/>
                    </mxGeometry>
                </mxCell>
                <mxCell id="PLWnVdBnxbxf1y3KlK_t-91" value="brother" style="text;html=1;align=center;verticalAlign=middle;resizable=0;points=[];autosize=1;" parent="1" vertex="1">
                    <mxGeometry x="159" y="1475" width="50" height="20" as="geometry"/>
                </mxCell>
                <mxCell id="PLWnVdBnxbxf1y3KlK_t-120" value="D" style="ellipse;whiteSpace=wrap;html=1;aspect=fixed;fillColor=#FF3333;" parent="1" vertex="1">
                    <mxGeometry x="349" y="1500" width="20" height="20" as="geometry"/>
                </mxCell>
                <mxCell id="PLWnVdBnxbxf1y3KlK_t-121" value="A" style="ellipse;whiteSpace=wrap;html=1;aspect=fixed;fillColor=#FFFFFF;" parent="1" vertex="1">
                    <mxGeometry x="289" y="1500" width="20" height="20" as="geometry"/>
                </mxCell>
                <mxCell id="PLWnVdBnxbxf1y3KlK_t-122" value="B" style="ellipse;whiteSpace=wrap;html=1;aspect=fixed;fillColor=#FFFFFF;" parent="1" vertex="1">
                    <mxGeometry x="319" y="1460" width="20" height="20" as="geometry"/>
                </mxCell>
                <mxCell id="PLWnVdBnxbxf1y3KlK_t-123" value="E" style="ellipse;whiteSpace=wrap;html=1;aspect=fixed;fillColor=#FFFFFF;" parent="1" vertex="1">
                    <mxGeometry x="380" y="1540" width="20" height="20" as="geometry"/>
                </mxCell>
                <mxCell id="PLWnVdBnxbxf1y3KlK_t-124" value="C" style="ellipse;whiteSpace=wrap;html=1;aspect=fixed;fillColor=#FFFFFF;" parent="1" vertex="1">
                    <mxGeometry x="318" y="1540" width="20" height="20" as="geometry"/>
                </mxCell>
                <mxCell id="PLWnVdBnxbxf1y3KlK_t-125" value="" style="endArrow=none;html=1;entryX=0;entryY=1;entryDx=0;entryDy=0;exitX=0.5;exitY=0;exitDx=0;exitDy=0;" parent="1" source="PLWnVdBnxbxf1y3KlK_t-121" target="PLWnVdBnxbxf1y3KlK_t-122" edge="1">
                    <mxGeometry width="50" height="50" relative="1" as="geometry">
                        <mxPoint x="259" y="1570" as="sourcePoint"/>
                        <mxPoint x="309" y="1520" as="targetPoint"/>
                    </mxGeometry>
                </mxCell>
                <mxCell id="PLWnVdBnxbxf1y3KlK_t-126" value="" style="endArrow=none;html=1;exitX=1;exitY=1;exitDx=0;exitDy=0;entryX=0.5;entryY=0;entryDx=0;entryDy=0;" parent="1" source="PLWnVdBnxbxf1y3KlK_t-122" target="PLWnVdBnxbxf1y3KlK_t-120" edge="1">
                    <mxGeometry width="50" height="50" relative="1" as="geometry">
                        <mxPoint x="369" y="1530" as="sourcePoint"/>
                        <mxPoint x="419" y="1480" as="targetPoint"/>
                    </mxGeometry>
                </mxCell>
                <mxCell id="PLWnVdBnxbxf1y3KlK_t-127" value="" style="endArrow=none;html=1;entryX=0;entryY=1;entryDx=0;entryDy=0;exitX=0.5;exitY=0;exitDx=0;exitDy=0;" parent="1" source="PLWnVdBnxbxf1y3KlK_t-124" target="PLWnVdBnxbxf1y3KlK_t-120" edge="1">
                    <mxGeometry width="50" height="50" relative="1" as="geometry">
                        <mxPoint x="299" y="1630" as="sourcePoint"/>
                        <mxPoint x="349" y="1580" as="targetPoint"/>
                    </mxGeometry>
                </mxCell>
                <mxCell id="PLWnVdBnxbxf1y3KlK_t-128" value="" style="endArrow=none;html=1;exitX=1;exitY=1;exitDx=0;exitDy=0;entryX=0.5;entryY=0;entryDx=0;entryDy=0;" parent="1" source="PLWnVdBnxbxf1y3KlK_t-120" target="PLWnVdBnxbxf1y3KlK_t-123" edge="1">
                    <mxGeometry width="50" height="50" relative="1" as="geometry">
                        <mxPoint x="369" y="1620" as="sourcePoint"/>
                        <mxPoint x="419" y="1570" as="targetPoint"/>
                    </mxGeometry>
                </mxCell>
                <mxCell id="PLWnVdBnxbxf1y3KlK_t-134" value="" style="endArrow=classic;html=1;" parent="1" edge="1">
                    <mxGeometry width="50" height="50" relative="1" as="geometry">
                        <mxPoint x="164" y="1475" as="sourcePoint"/>
                        <mxPoint x="284" y="1475" as="targetPoint"/>
                    </mxGeometry>
                </mxCell>
                <mxCell id="PLWnVdBnxbxf1y3KlK_t-135" value="变色" style="text;html=1;align=center;verticalAlign=middle;resizable=0;points=[];autosize=1;" parent="1" vertex="1">
                    <mxGeometry x="197" y="1455" width="40" height="20" as="geometry"/>
                </mxCell>
                <mxCell id="PLWnVdBnxbxf1y3KlK_t-136" value="" style="endArrow=classic;html=1;" parent="1" edge="1">
                    <mxGeometry width="50" height="50" relative="1" as="geometry">
                        <mxPoint x="340" y="1679.31" as="sourcePoint"/>
                        <mxPoint x="460" y="1679.31" as="targetPoint"/>
                    </mxGeometry>
                </mxCell>
                <mxCell id="PLWnVdBnxbxf1y3KlK_t-137" value="按照case2重新平衡处理" style="text;html=1;align=center;verticalAlign=middle;resizable=0;points=[];autosize=1;" parent="1" vertex="1">
                    <mxGeometry x="316" y="1660" width="140" height="20" as="geometry"/>
                </mxCell>
                <mxCell id="PLWnVdBnxbxf1y3KlK_t-138" value="case5：当前结点颜色是黑色，兄弟结点是黑色，兄弟的左子结点是红色，右子结点是黑色" style="text;html=1;" parent="1" vertex="1">
                    <mxGeometry x="75" y="1820" width="485" height="20" as="geometry"/>
                </mxCell>
                <mxCell id="PLWnVdBnxbxf1y3KlK_t-139" value="D" style="ellipse;whiteSpace=wrap;html=1;aspect=fixed;fillColor=#FFFFFF;" parent="1" vertex="1">
                    <mxGeometry x="161.5" y="2140" width="20" height="20" as="geometry"/>
                </mxCell>
                <mxCell id="PLWnVdBnxbxf1y3KlK_t-140" value="A" style="ellipse;whiteSpace=wrap;html=1;aspect=fixed;fillColor=#FFFFFF;" parent="1" vertex="1">
                    <mxGeometry x="101.5" y="2140" width="20" height="20" as="geometry"/>
                </mxCell>
                <mxCell id="PLWnVdBnxbxf1y3KlK_t-141" value="B" style="ellipse;whiteSpace=wrap;html=1;aspect=fixed;fillColor=#FFFFFF;" parent="1" vertex="1">
                    <mxGeometry x="131.5" y="2100" width="20" height="20" as="geometry"/>
                </mxCell>
                <mxCell id="PLWnVdBnxbxf1y3KlK_t-144" value="" style="endArrow=none;html=1;entryX=0;entryY=1;entryDx=0;entryDy=0;exitX=0.5;exitY=0;exitDx=0;exitDy=0;" parent="1" source="PLWnVdBnxbxf1y3KlK_t-140" target="PLWnVdBnxbxf1y3KlK_t-141" edge="1">
                    <mxGeometry width="50" height="50" relative="1" as="geometry">
                        <mxPoint x="71.5" y="2210" as="sourcePoint"/>
                        <mxPoint x="121.5" y="2160" as="targetPoint"/>
                    </mxGeometry>
                </mxCell>
                <mxCell id="PLWnVdBnxbxf1y3KlK_t-145" value="" style="endArrow=none;html=1;exitX=1;exitY=1;exitDx=0;exitDy=0;entryX=0.5;entryY=0;entryDx=0;entryDy=0;" parent="1" source="PLWnVdBnxbxf1y3KlK_t-141" target="PLWnVdBnxbxf1y3KlK_t-139" edge="1">
                    <mxGeometry width="50" height="50" relative="1" as="geometry">
                        <mxPoint x="181.5" y="2170" as="sourcePoint"/>
                        <mxPoint x="231.5" y="2120" as="targetPoint"/>
                    </mxGeometry>
                </mxCell>
                <mxCell id="PLWnVdBnxbxf1y3KlK_t-146" value="" style="endArrow=none;html=1;entryX=0;entryY=1;entryDx=0;entryDy=0;exitX=0.5;exitY=0;exitDx=0;exitDy=0;" parent="1" target="PLWnVdBnxbxf1y3KlK_t-139" edge="1">
                    <mxGeometry width="50" height="50" relative="1" as="geometry">
                        <mxPoint x="140.5" y="2180" as="sourcePoint"/>
                        <mxPoint x="161.5" y="2220" as="targetPoint"/>
                    </mxGeometry>
                </mxCell>
                <mxCell id="PLWnVdBnxbxf1y3KlK_t-147" value="" style="endArrow=none;html=1;exitX=1;exitY=1;exitDx=0;exitDy=0;entryX=0.5;entryY=0;entryDx=0;entryDy=0;" parent="1" source="PLWnVdBnxbxf1y3KlK_t-139" edge="1">
                    <mxGeometry width="50" height="50" relative="1" as="geometry">
                        <mxPoint x="181.5" y="2260" as="sourcePoint"/>
                        <mxPoint x="202.5" y="2180" as="targetPoint"/>
                    </mxGeometry>
                </mxCell>
                <mxCell id="PLWnVdBnxbxf1y3KlK_t-148" value="" style="endArrow=classic;html=1;entryX=0;entryY=0;entryDx=0;entryDy=0;" parent="1" target="PLWnVdBnxbxf1y3KlK_t-140" edge="1">
                    <mxGeometry width="50" height="50" relative="1" as="geometry">
                        <mxPoint x="81.49999999999989" y="2130" as="sourcePoint"/>
                        <mxPoint x="101.5" y="2170" as="targetPoint"/>
                    </mxGeometry>
                </mxCell>
                <mxCell id="PLWnVdBnxbxf1y3KlK_t-149" value="cur" style="text;html=1;align=center;verticalAlign=middle;resizable=0;points=[];autosize=1;" parent="1" vertex="1">
                    <mxGeometry x="80.5" y="2120" width="30" height="20" as="geometry"/>
                </mxCell>
                <mxCell id="PLWnVdBnxbxf1y3KlK_t-150" value="D" style="ellipse;whiteSpace=wrap;html=1;aspect=fixed;fillColor=#FF3333;" parent="1" vertex="1">
                    <mxGeometry x="312" y="1700" width="20" height="20" as="geometry"/>
                </mxCell>
                <mxCell id="PLWnVdBnxbxf1y3KlK_t-151" value="A" style="ellipse;whiteSpace=wrap;html=1;aspect=fixed;fillColor=#FFFFFF;" parent="1" vertex="1">
                    <mxGeometry x="252" y="1700" width="20" height="20" as="geometry"/>
                </mxCell>
                <mxCell id="PLWnVdBnxbxf1y3KlK_t-152" value="B" style="ellipse;whiteSpace=wrap;html=1;aspect=fixed;fillColor=#FFFFFF;" parent="1" vertex="1">
                    <mxGeometry x="282" y="1660" width="20" height="20" as="geometry"/>
                </mxCell>
                <mxCell id="PLWnVdBnxbxf1y3KlK_t-153" value="E" style="ellipse;whiteSpace=wrap;html=1;aspect=fixed;fillColor=#FFFFFF;" parent="1" vertex="1">
                    <mxGeometry x="343" y="1740" width="20" height="20" as="geometry"/>
                </mxCell>
                <mxCell id="PLWnVdBnxbxf1y3KlK_t-154" value="C" style="ellipse;whiteSpace=wrap;html=1;aspect=fixed;fillColor=#FFFFFF;" parent="1" vertex="1">
                    <mxGeometry x="281" y="1740" width="20" height="20" as="geometry"/>
                </mxCell>
                <mxCell id="PLWnVdBnxbxf1y3KlK_t-155" value="" style="endArrow=none;html=1;entryX=0;entryY=1;entryDx=0;entryDy=0;exitX=0.5;exitY=0;exitDx=0;exitDy=0;" parent="1" source="PLWnVdBnxbxf1y3KlK_t-151" target="PLWnVdBnxbxf1y3KlK_t-152" edge="1">
                    <mxGeometry width="50" height="50" relative="1" as="geometry">
                        <mxPoint x="222" y="1770" as="sourcePoint"/>
                        <mxPoint x="272" y="1720" as="targetPoint"/>
                    </mxGeometry>
                </mxCell>
                <mxCell id="PLWnVdBnxbxf1y3KlK_t-156" value="" style="endArrow=none;html=1;exitX=1;exitY=1;exitDx=0;exitDy=0;entryX=0.5;entryY=0;entryDx=0;entryDy=0;" parent="1" source="PLWnVdBnxbxf1y3KlK_t-152" target="PLWnVdBnxbxf1y3KlK_t-150" edge="1">
                    <mxGeometry width="50" height="50" relative="1" as="geometry">
                        <mxPoint x="332" y="1730" as="sourcePoint"/>
                        <mxPoint x="382" y="1680" as="targetPoint"/>
                    </mxGeometry>
                </mxCell>
                <mxCell id="PLWnVdBnxbxf1y3KlK_t-157" value="" style="endArrow=none;html=1;entryX=0;entryY=1;entryDx=0;entryDy=0;exitX=0.5;exitY=0;exitDx=0;exitDy=0;" parent="1" source="PLWnVdBnxbxf1y3KlK_t-154" target="PLWnVdBnxbxf1y3KlK_t-150" edge="1">
                    <mxGeometry width="50" height="50" relative="1" as="geometry">
                        <mxPoint x="262" y="1830" as="sourcePoint"/>
                        <mxPoint x="312" y="1780" as="targetPoint"/>
                    </mxGeometry>
                </mxCell>
                <mxCell id="PLWnVdBnxbxf1y3KlK_t-158" value="" style="endArrow=none;html=1;exitX=1;exitY=1;exitDx=0;exitDy=0;entryX=0.5;entryY=0;entryDx=0;entryDy=0;" parent="1" source="PLWnVdBnxbxf1y3KlK_t-150" target="PLWnVdBnxbxf1y3KlK_t-153" edge="1">
                    <mxGeometry width="50" height="50" relative="1" as="geometry">
                        <mxPoint x="332" y="1820" as="sourcePoint"/>
                        <mxPoint x="382" y="1770" as="targetPoint"/>
                    </mxGeometry>
                </mxCell>
                <mxCell id="PLWnVdBnxbxf1y3KlK_t-159" value="" style="endArrow=classic;html=1;entryX=0;entryY=0;entryDx=0;entryDy=0;" parent="1" target="PLWnVdBnxbxf1y3KlK_t-151" edge="1">
                    <mxGeometry width="50" height="50" relative="1" as="geometry">
                        <mxPoint x="231.9999999999999" y="1690" as="sourcePoint"/>
                        <mxPoint x="252" y="1730" as="targetPoint"/>
                    </mxGeometry>
                </mxCell>
                <mxCell id="PLWnVdBnxbxf1y3KlK_t-160" value="cur" style="text;html=1;align=center;verticalAlign=middle;resizable=0;points=[];autosize=1;" parent="1" vertex="1">
                    <mxGeometry x="231" y="1680" width="30" height="20" as="geometry"/>
                </mxCell>
                <mxCell id="PLWnVdBnxbxf1y3KlK_t-161" value="D" style="ellipse;whiteSpace=wrap;html=1;aspect=fixed;fillColor=#FF3333;" parent="1" vertex="1">
                    <mxGeometry x="316" y="1900" width="20" height="20" as="geometry"/>
                </mxCell>
                <mxCell id="PLWnVdBnxbxf1y3KlK_t-162" value="A" style="ellipse;whiteSpace=wrap;html=1;aspect=fixed;fillColor=#FFFFFF;" parent="1" vertex="1">
                    <mxGeometry x="256" y="1900" width="20" height="20" as="geometry"/>
                </mxCell>
                <mxCell id="PLWnVdBnxbxf1y3KlK_t-163" value="B" style="ellipse;whiteSpace=wrap;html=1;aspect=fixed;fillColor=#FFFFFF;" parent="1" vertex="1">
                    <mxGeometry x="286" y="1860" width="20" height="20" as="geometry"/>
                </mxCell>
                <mxCell id="PLWnVdBnxbxf1y3KlK_t-164" value="E" style="ellipse;whiteSpace=wrap;html=1;aspect=fixed;fillColor=#FFFFFF;" parent="1" vertex="1">
                    <mxGeometry x="347" y="1940" width="20" height="20" as="geometry"/>
                </mxCell>
                <mxCell id="PLWnVdBnxbxf1y3KlK_t-165" value="C" style="ellipse;whiteSpace=wrap;html=1;aspect=fixed;fillColor=#FFFFFF;" parent="1" vertex="1">
                    <mxGeometry x="285" y="1940" width="20" height="20" as="geometry"/>
                </mxCell>
                <mxCell id="PLWnVdBnxbxf1y3KlK_t-166" value="" style="endArrow=none;html=1;entryX=0;entryY=1;entryDx=0;entryDy=0;exitX=0.5;exitY=0;exitDx=0;exitDy=0;" parent="1" source="PLWnVdBnxbxf1y3KlK_t-162" target="PLWnVdBnxbxf1y3KlK_t-163" edge="1">
                    <mxGeometry width="50" height="50" relative="1" as="geometry">
                        <mxPoint x="226" y="1970" as="sourcePoint"/>
                        <mxPoint x="276" y="1920" as="targetPoint"/>
                    </mxGeometry>
                </mxCell>
                <mxCell id="PLWnVdBnxbxf1y3KlK_t-167" value="" style="endArrow=none;html=1;exitX=1;exitY=1;exitDx=0;exitDy=0;entryX=0.5;entryY=0;entryDx=0;entryDy=0;" parent="1" source="PLWnVdBnxbxf1y3KlK_t-163" target="PLWnVdBnxbxf1y3KlK_t-161" edge="1">
                    <mxGeometry width="50" height="50" relative="1" as="geometry">
                        <mxPoint x="336" y="1930" as="sourcePoint"/>
                        <mxPoint x="386" y="1880" as="targetPoint"/>
                    </mxGeometry>
                </mxCell>
                <mxCell id="PLWnVdBnxbxf1y3KlK_t-168" value="" style="endArrow=none;html=1;entryX=0;entryY=1;entryDx=0;entryDy=0;exitX=0.5;exitY=0;exitDx=0;exitDy=0;" parent="1" source="PLWnVdBnxbxf1y3KlK_t-165" target="PLWnVdBnxbxf1y3KlK_t-161" edge="1">
                    <mxGeometry width="50" height="50" relative="1" as="geometry">
                        <mxPoint x="266" y="2030" as="sourcePoint"/>
                        <mxPoint x="316" y="1980" as="targetPoint"/>
                    </mxGeometry>
                </mxCell>
                <mxCell id="PLWnVdBnxbxf1y3KlK_t-169" value="" style="endArrow=none;html=1;exitX=1;exitY=1;exitDx=0;exitDy=0;entryX=0.5;entryY=0;entryDx=0;entryDy=0;" parent="1" source="PLWnVdBnxbxf1y3KlK_t-161" target="PLWnVdBnxbxf1y3KlK_t-164" edge="1">
                    <mxGeometry width="50" height="50" relative="1" as="geometry">
                        <mxPoint x="336" y="2020" as="sourcePoint"/>
                        <mxPoint x="386" y="1970" as="targetPoint"/>
                    </mxGeometry>
                </mxCell>
                <mxCell id="PLWnVdBnxbxf1y3KlK_t-172" value="" style="endArrow=classic;html=1;" parent="1" edge="1">
                    <mxGeometry width="50" height="50" relative="1" as="geometry">
                        <mxPoint x="156" y="1680" as="sourcePoint"/>
                        <mxPoint x="276" y="1680" as="targetPoint"/>
                    </mxGeometry>
                </mxCell>
                <mxCell id="PLWnVdBnxbxf1y3KlK_t-173" value="变色" style="text;html=1;align=center;verticalAlign=middle;resizable=0;points=[];autosize=1;" parent="1" vertex="1">
                    <mxGeometry x="180" y="1860" width="40" height="20" as="geometry"/>
                </mxCell>
                <mxCell id="PLWnVdBnxbxf1y3KlK_t-176" value="" style="endArrow=classic;html=1;" parent="1" edge="1">
                    <mxGeometry width="50" height="50" relative="1" as="geometry">
                        <mxPoint x="159" y="1880" as="sourcePoint"/>
                        <mxPoint x="279" y="1880" as="targetPoint"/>
                    </mxGeometry>
                </mxCell>
                <mxCell id="PLWnVdBnxbxf1y3KlK_t-177" value="" style="endArrow=classic;html=1;" parent="1" edge="1">
                    <mxGeometry width="50" height="50" relative="1" as="geometry">
                        <mxPoint x="339" y="1880" as="sourcePoint"/>
                        <mxPoint x="459" y="1880" as="targetPoint"/>
                    </mxGeometry>
                </mxCell>
                <mxCell id="PLWnVdBnxbxf1y3KlK_t-178" value="C、D 右旋" style="text;html=1;align=center;verticalAlign=middle;resizable=0;points=[];autosize=1;" parent="1" vertex="1">
                    <mxGeometry x="348" y="1860" width="70" height="20" as="geometry"/>
                </mxCell>
                <mxCell id="PLWnVdBnxbxf1y3KlK_t-180" value="C" style="ellipse;whiteSpace=wrap;html=1;aspect=fixed;fillColor=#FF3333;" parent="1" vertex="1">
                    <mxGeometry x="501" y="1901.49" width="20" height="20" as="geometry"/>
                </mxCell>
                <mxCell id="PLWnVdBnxbxf1y3KlK_t-181" value="B" style="ellipse;whiteSpace=wrap;html=1;aspect=fixed;fillColor=#FFFFFF;" parent="1" vertex="1">
                    <mxGeometry x="471" y="1861.49" width="20" height="20" as="geometry"/>
                </mxCell>
                <mxCell id="PLWnVdBnxbxf1y3KlK_t-182" value="D" style="ellipse;whiteSpace=wrap;html=1;aspect=fixed;fillColor=#FFFFFF;" parent="1" vertex="1">
                    <mxGeometry x="532" y="1941.49" width="20" height="20" as="geometry"/>
                </mxCell>
                <mxCell id="PLWnVdBnxbxf1y3KlK_t-184" value="" style="endArrow=none;html=1;entryX=0;entryY=1;entryDx=0;entryDy=0;exitX=0.5;exitY=0;exitDx=0;exitDy=0;" parent="1" target="PLWnVdBnxbxf1y3KlK_t-181" edge="1">
                    <mxGeometry width="50" height="50" relative="1" as="geometry">
                        <mxPoint x="451" y="1901.49" as="sourcePoint"/>
                        <mxPoint x="461" y="1921.49" as="targetPoint"/>
                    </mxGeometry>
                </mxCell>
                <mxCell id="PLWnVdBnxbxf1y3KlK_t-185" value="" style="endArrow=none;html=1;exitX=1;exitY=1;exitDx=0;exitDy=0;entryX=0.5;entryY=0;entryDx=0;entryDy=0;" parent="1" source="PLWnVdBnxbxf1y3KlK_t-181" target="PLWnVdBnxbxf1y3KlK_t-180" edge="1">
                    <mxGeometry width="50" height="50" relative="1" as="geometry">
                        <mxPoint x="521" y="1931.49" as="sourcePoint"/>
                        <mxPoint x="571" y="1881.49" as="targetPoint"/>
                    </mxGeometry>
                </mxCell>
                <mxCell id="PLWnVdBnxbxf1y3KlK_t-187" value="" style="endArrow=none;html=1;exitX=1;exitY=1;exitDx=0;exitDy=0;entryX=0.5;entryY=0;entryDx=0;entryDy=0;" parent="1" source="PLWnVdBnxbxf1y3KlK_t-180" target="PLWnVdBnxbxf1y3KlK_t-182" edge="1">
                    <mxGeometry width="50" height="50" relative="1" as="geometry">
                        <mxPoint x="521" y="2021.49" as="sourcePoint"/>
                        <mxPoint x="571" y="1971.49" as="targetPoint"/>
                    </mxGeometry>
                </mxCell>
                <mxCell id="PLWnVdBnxbxf1y3KlK_t-188" value="A" style="ellipse;whiteSpace=wrap;html=1;aspect=fixed;fillColor=#FFFFFF;" parent="1" vertex="1">
                    <mxGeometry x="438" y="1901.49" width="20" height="20" as="geometry"/>
                </mxCell>
                <mxCell id="PLWnVdBnxbxf1y3KlK_t-189" value="" style="endArrow=none;html=1;entryX=1;entryY=1;entryDx=0;entryDy=0;exitX=0.5;exitY=0;exitDx=0;exitDy=0;" parent="1" target="PLWnVdBnxbxf1y3KlK_t-182" edge="1">
                    <mxGeometry width="50" height="50" relative="1" as="geometry">
                        <mxPoint x="572" y="1981.49" as="sourcePoint"/>
                        <mxPoint x="547" y="1981.49" as="targetPoint"/>
                    </mxGeometry>
                </mxCell>
                <mxCell id="PLWnVdBnxbxf1y3KlK_t-196" value="NIL" style="rounded=0;whiteSpace=wrap;html=1;fillColor=#FFFFFF;" parent="1" vertex="1">
                    <mxGeometry x="110" y="1989.45" width="20" height="10" as="geometry"/>
                </mxCell>
                <mxCell id="PLWnVdBnxbxf1y3KlK_t-197" value="NIL" style="rounded=0;whiteSpace=wrap;html=1;fillColor=#FFFFFF;" parent="1" vertex="1">
                    <mxGeometry x="140" y="1989.45" width="20" height="10" as="geometry"/>
                </mxCell>
                <mxCell id="PLWnVdBnxbxf1y3KlK_t-198" value="NIL" style="rounded=0;whiteSpace=wrap;html=1;fillColor=#FFFFFF;" parent="1" vertex="1">
                    <mxGeometry x="172" y="1990" width="20" height="10" as="geometry"/>
                </mxCell>
                <mxCell id="PLWnVdBnxbxf1y3KlK_t-199" value="NIL" style="rounded=0;whiteSpace=wrap;html=1;fillColor=#FFFFFF;" parent="1" vertex="1">
                    <mxGeometry x="209" y="1990" width="20" height="10" as="geometry"/>
                </mxCell>
                <mxCell id="PLWnVdBnxbxf1y3KlK_t-200" value="" style="endArrow=none;html=1;exitX=0.5;exitY=0;exitDx=0;exitDy=0;entryX=0;entryY=1;entryDx=0;entryDy=0;" parent="1" source="PLWnVdBnxbxf1y3KlK_t-196" target="PLWnVdBnxbxf1y3KlK_t-83" edge="1">
                    <mxGeometry width="50" height="50" relative="1" as="geometry">
                        <mxPoint x="70" y="2010" as="sourcePoint"/>
                        <mxPoint x="126" y="1960" as="targetPoint"/>
                    </mxGeometry>
                </mxCell>
                <mxCell id="PLWnVdBnxbxf1y3KlK_t-201" value="" style="endArrow=none;html=1;exitX=1;exitY=1;exitDx=0;exitDy=0;entryX=0.5;entryY=0;entryDx=0;entryDy=0;" parent="1" source="PLWnVdBnxbxf1y3KlK_t-83" target="PLWnVdBnxbxf1y3KlK_t-197" edge="1">
                    <mxGeometry width="50" height="50" relative="1" as="geometry">
                        <mxPoint x="160" y="2010" as="sourcePoint"/>
                        <mxPoint x="210" y="1960" as="targetPoint"/>
                    </mxGeometry>
                </mxCell>
                <mxCell id="PLWnVdBnxbxf1y3KlK_t-202" value="" style="endArrow=none;html=1;entryX=0;entryY=1;entryDx=0;entryDy=0;exitX=0.5;exitY=0;exitDx=0;exitDy=0;" parent="1" source="PLWnVdBnxbxf1y3KlK_t-198" target="PLWnVdBnxbxf1y3KlK_t-82" edge="1">
                    <mxGeometry width="50" height="50" relative="1" as="geometry">
                        <mxPoint x="130" y="2040" as="sourcePoint"/>
                        <mxPoint x="180" y="1990" as="targetPoint"/>
                    </mxGeometry>
                </mxCell>
                <mxCell id="PLWnVdBnxbxf1y3KlK_t-203" value="" style="endArrow=none;html=1;exitX=1;exitY=1;exitDx=0;exitDy=0;entryX=0.5;entryY=0;entryDx=0;entryDy=0;" parent="1" source="PLWnVdBnxbxf1y3KlK_t-82" target="PLWnVdBnxbxf1y3KlK_t-199" edge="1">
                    <mxGeometry width="50" height="50" relative="1" as="geometry">
                        <mxPoint x="170" y="2060" as="sourcePoint"/>
                        <mxPoint x="220" y="2010" as="targetPoint"/>
                    </mxGeometry>
                </mxCell>
                <mxCell id="PLWnVdBnxbxf1y3KlK_t-205" value="NIL" style="rounded=0;whiteSpace=wrap;html=1;fillColor=#FFFFFF;" parent="1" vertex="1">
                    <mxGeometry x="272" y="1990" width="20" height="10" as="geometry"/>
                </mxCell>
                <mxCell id="PLWnVdBnxbxf1y3KlK_t-206" value="NIL" style="rounded=0;whiteSpace=wrap;html=1;fillColor=#FFFF66;" parent="1" vertex="1">
                    <mxGeometry x="302" y="1990" width="20" height="10" as="geometry"/>
                </mxCell>
                <mxCell id="PLWnVdBnxbxf1y3KlK_t-207" value="NIL" style="rounded=0;whiteSpace=wrap;html=1;fillColor=#FFFFFF;" parent="1" vertex="1">
                    <mxGeometry x="334" y="1990.55" width="20" height="10" as="geometry"/>
                </mxCell>
                <mxCell id="PLWnVdBnxbxf1y3KlK_t-208" value="NIL" style="rounded=0;whiteSpace=wrap;html=1;fillColor=#FFFFFF;" parent="1" vertex="1">
                    <mxGeometry x="371" y="1990.55" width="20" height="10" as="geometry"/>
                </mxCell>
                <mxCell id="PLWnVdBnxbxf1y3KlK_t-209" value="" style="endArrow=none;html=1;entryX=0;entryY=1;entryDx=0;entryDy=0;exitX=0.25;exitY=0;exitDx=0;exitDy=0;" parent="1" source="PLWnVdBnxbxf1y3KlK_t-205" target="PLWnVdBnxbxf1y3KlK_t-165" edge="1">
                    <mxGeometry width="50" height="50" relative="1" as="geometry">
                        <mxPoint x="230" y="2010" as="sourcePoint"/>
                        <mxPoint x="280" y="1960" as="targetPoint"/>
                    </mxGeometry>
                </mxCell>
                <mxCell id="PLWnVdBnxbxf1y3KlK_t-210" value="" style="endArrow=none;html=1;exitX=1;exitY=1;exitDx=0;exitDy=0;entryX=0.5;entryY=0;entryDx=0;entryDy=0;" parent="1" source="PLWnVdBnxbxf1y3KlK_t-165" target="PLWnVdBnxbxf1y3KlK_t-206" edge="1">
                    <mxGeometry width="50" height="50" relative="1" as="geometry">
                        <mxPoint x="280" y="2060" as="sourcePoint"/>
                        <mxPoint x="310" y="1990" as="targetPoint"/>
                    </mxGeometry>
                </mxCell>
                <mxCell id="PLWnVdBnxbxf1y3KlK_t-211" value="" style="endArrow=none;html=1;entryX=0;entryY=1;entryDx=0;entryDy=0;exitX=0.5;exitY=0;exitDx=0;exitDy=0;" parent="1" source="PLWnVdBnxbxf1y3KlK_t-207" target="PLWnVdBnxbxf1y3KlK_t-164" edge="1">
                    <mxGeometry width="50" height="50" relative="1" as="geometry">
                        <mxPoint x="350" y="2020" as="sourcePoint"/>
                        <mxPoint x="400" y="1970" as="targetPoint"/>
                    </mxGeometry>
                </mxCell>
                <mxCell id="PLWnVdBnxbxf1y3KlK_t-212" value="" style="endArrow=none;html=1;exitX=1;exitY=1;exitDx=0;exitDy=0;" parent="1" source="PLWnVdBnxbxf1y3KlK_t-164" edge="1">
                    <mxGeometry width="50" height="50" relative="1" as="geometry">
                        <mxPoint x="320" y="2070" as="sourcePoint"/>
                        <mxPoint x="381" y="1991" as="targetPoint"/>
                    </mxGeometry>
                </mxCell>
                <mxCell id="PLWnVdBnxbxf1y3KlK_t-213" value="NIL" style="rounded=0;whiteSpace=wrap;html=1;fillColor=#FFFFFF;" parent="1" vertex="1">
                    <mxGeometry x="482" y="1951.49" width="20" height="10" as="geometry"/>
                </mxCell>
                <mxCell id="PLWnVdBnxbxf1y3KlK_t-214" value="NIL" style="rounded=0;whiteSpace=wrap;html=1;fillColor=#FFFF99;" parent="1" vertex="1">
                    <mxGeometry x="517" y="1992.04" width="20" height="10" as="geometry"/>
                </mxCell>
                <mxCell id="PLWnVdBnxbxf1y3KlK_t-220" value="E" style="ellipse;whiteSpace=wrap;html=1;aspect=fixed;fillColor=#FFFFFF;" parent="1" vertex="1">
                    <mxGeometry x="565" y="1978.5" width="20" height="20" as="geometry"/>
                </mxCell>
                <mxCell id="PLWnVdBnxbxf1y3KlK_t-222" value="NIL" style="rounded=0;whiteSpace=wrap;html=1;fillColor=#FFFFFF;" parent="1" vertex="1">
                    <mxGeometry x="552" y="2028.5" width="20" height="10" as="geometry"/>
                </mxCell>
                <mxCell id="PLWnVdBnxbxf1y3KlK_t-223" value="NIL" style="rounded=0;whiteSpace=wrap;html=1;fillColor=#FFFFFF;" parent="1" vertex="1">
                    <mxGeometry x="582" y="2028.5" width="20" height="10" as="geometry"/>
                </mxCell>
                <mxCell id="PLWnVdBnxbxf1y3KlK_t-224" value="" style="endArrow=none;html=1;entryX=0;entryY=1;entryDx=0;entryDy=0;exitX=0.25;exitY=0;exitDx=0;exitDy=0;" parent="1" source="PLWnVdBnxbxf1y3KlK_t-222" target="PLWnVdBnxbxf1y3KlK_t-220" edge="1">
                    <mxGeometry width="50" height="50" relative="1" as="geometry">
                        <mxPoint x="510" y="2048.5" as="sourcePoint"/>
                        <mxPoint x="560" y="1998.5" as="targetPoint"/>
                    </mxGeometry>
                </mxCell>
                <mxCell id="PLWnVdBnxbxf1y3KlK_t-225" value="" style="endArrow=none;html=1;exitX=1;exitY=1;exitDx=0;exitDy=0;entryX=0.5;entryY=0;entryDx=0;entryDy=0;" parent="1" source="PLWnVdBnxbxf1y3KlK_t-220" target="PLWnVdBnxbxf1y3KlK_t-223" edge="1">
                    <mxGeometry width="50" height="50" relative="1" as="geometry">
                        <mxPoint x="560" y="2098.5" as="sourcePoint"/>
                        <mxPoint x="590" y="2028.5" as="targetPoint"/>
                    </mxGeometry>
                </mxCell>
                <mxCell id="PLWnVdBnxbxf1y3KlK_t-226" value="" style="endArrow=none;html=1;entryX=0;entryY=1;entryDx=0;entryDy=0;exitX=0.5;exitY=0;exitDx=0;exitDy=0;" parent="1" source="PLWnVdBnxbxf1y3KlK_t-213" target="PLWnVdBnxbxf1y3KlK_t-180" edge="1">
                    <mxGeometry width="50" height="50" relative="1" as="geometry">
                        <mxPoint x="457" y="2041.49" as="sourcePoint"/>
                        <mxPoint x="507" y="1991.49" as="targetPoint"/>
                    </mxGeometry>
                </mxCell>
                <mxCell id="PLWnVdBnxbxf1y3KlK_t-227" value="" style="endArrow=none;html=1;entryX=0;entryY=1;entryDx=0;entryDy=0;exitX=0.5;exitY=0;exitDx=0;exitDy=0;" parent="1" source="PLWnVdBnxbxf1y3KlK_t-214" target="PLWnVdBnxbxf1y3KlK_t-182" edge="1">
                    <mxGeometry width="50" height="50" relative="1" as="geometry">
                        <mxPoint x="467" y="2061.49" as="sourcePoint"/>
                        <mxPoint x="517" y="2011.49" as="targetPoint"/>
                    </mxGeometry>
                </mxCell>
                <mxCell id="PLWnVdBnxbxf1y3KlK_t-228" value="E" style="ellipse;whiteSpace=wrap;html=1;aspect=fixed;fillColor=#FF3333;" parent="1" vertex="1">
                    <mxGeometry x="196" y="2180" width="20" height="20" as="geometry"/>
                </mxCell>
                <mxCell id="PLWnVdBnxbxf1y3KlK_t-229" value="NIL" style="rounded=0;whiteSpace=wrap;html=1;fillColor=#FFFFFF;" parent="1" vertex="1">
                    <mxGeometry x="183" y="2230.55" width="20" height="10" as="geometry"/>
                </mxCell>
                <mxCell id="PLWnVdBnxbxf1y3KlK_t-230" value="NIL" style="rounded=0;whiteSpace=wrap;html=1;fillColor=#FFFFFF;" parent="1" vertex="1">
                    <mxGeometry x="220" y="2230.55" width="20" height="10" as="geometry"/>
                </mxCell>
                <mxCell id="PLWnVdBnxbxf1y3KlK_t-231" value="" style="endArrow=none;html=1;entryX=0;entryY=1;entryDx=0;entryDy=0;exitX=0.5;exitY=0;exitDx=0;exitDy=0;" parent="1" source="PLWnVdBnxbxf1y3KlK_t-229" target="PLWnVdBnxbxf1y3KlK_t-228" edge="1">
                    <mxGeometry width="50" height="50" relative="1" as="geometry">
                        <mxPoint x="199" y="2260" as="sourcePoint"/>
                        <mxPoint x="249" y="2210" as="targetPoint"/>
                    </mxGeometry>
                </mxCell>
                <mxCell id="PLWnVdBnxbxf1y3KlK_t-232" value="" style="endArrow=none;html=1;exitX=1;exitY=1;exitDx=0;exitDy=0;" parent="1" source="PLWnVdBnxbxf1y3KlK_t-228" edge="1">
                    <mxGeometry width="50" height="50" relative="1" as="geometry">
                        <mxPoint x="169" y="2310" as="sourcePoint"/>
                        <mxPoint x="230" y="2231" as="targetPoint"/>
                    </mxGeometry>
                </mxCell>
                <mxCell id="PLWnVdBnxbxf1y3KlK_t-233" value="C" style="ellipse;whiteSpace=wrap;html=1;aspect=fixed;fillColor=#FFFFFF;" parent="1" vertex="1">
                    <mxGeometry x="131" y="2180.55" width="20" height="20" as="geometry"/>
                </mxCell>
                <mxCell id="PLWnVdBnxbxf1y3KlK_t-234" value="NIL" style="rounded=0;whiteSpace=wrap;html=1;fillColor=#FFFFFF;" parent="1" vertex="1">
                    <mxGeometry x="118" y="2230.55" width="20" height="10" as="geometry"/>
                </mxCell>
                <mxCell id="PLWnVdBnxbxf1y3KlK_t-235" value="NIL" style="rounded=0;whiteSpace=wrap;html=1;fillColor=#FFFFFF;" parent="1" vertex="1">
                    <mxGeometry x="148" y="2230.55" width="20" height="10" as="geometry"/>
                </mxCell>
                <mxCell id="PLWnVdBnxbxf1y3KlK_t-236" value="" style="endArrow=none;html=1;entryX=0;entryY=1;entryDx=0;entryDy=0;exitX=0.25;exitY=0;exitDx=0;exitDy=0;" parent="1" source="PLWnVdBnxbxf1y3KlK_t-234" target="PLWnVdBnxbxf1y3KlK_t-233" edge="1">
                    <mxGeometry width="50" height="50" relative="1" as="geometry">
                        <mxPoint x="76" y="2250.55" as="sourcePoint"/>
                        <mxPoint x="126" y="2200.55" as="targetPoint"/>
                    </mxGeometry>
                </mxCell>
                <mxCell id="PLWnVdBnxbxf1y3KlK_t-237" value="" style="endArrow=none;html=1;exitX=1;exitY=1;exitDx=0;exitDy=0;entryX=0.5;entryY=0;entryDx=0;entryDy=0;" parent="1" source="PLWnVdBnxbxf1y3KlK_t-233" target="PLWnVdBnxbxf1y3KlK_t-235" edge="1">
                    <mxGeometry width="50" height="50" relative="1" as="geometry">
                        <mxPoint x="126" y="2300.55" as="sourcePoint"/>
                        <mxPoint x="156" y="2230.55" as="targetPoint"/>
                    </mxGeometry>
                </mxCell>
                <mxCell id="PLWnVdBnxbxf1y3KlK_t-240" value="B" style="ellipse;whiteSpace=wrap;html=1;aspect=fixed;fillColor=#FFFFFF;" parent="1" vertex="1">
                    <mxGeometry x="540" y="2140" width="20" height="20" as="geometry"/>
                </mxCell>
                <mxCell id="PLWnVdBnxbxf1y3KlK_t-241" value="A" style="ellipse;whiteSpace=wrap;html=1;aspect=fixed;fillColor=#FFFFFF;" parent="1" vertex="1">
                    <mxGeometry x="515" y="2180.55" width="20" height="20" as="geometry"/>
                </mxCell>
                <mxCell id="PLWnVdBnxbxf1y3KlK_t-242" value="D" style="ellipse;whiteSpace=wrap;html=1;aspect=fixed;fillColor=#FFFFFF;" parent="1" vertex="1">
                    <mxGeometry x="567.5" y="2100" width="20" height="20" as="geometry"/>
                </mxCell>
                <mxCell id="PLWnVdBnxbxf1y3KlK_t-249" value="E" style="ellipse;whiteSpace=wrap;html=1;aspect=fixed;fillColor=#FFFFFF;" parent="1" vertex="1">
                    <mxGeometry x="600" y="2140" width="20" height="20" as="geometry"/>
                </mxCell>
                <mxCell id="PLWnVdBnxbxf1y3KlK_t-250" value="NIL" style="rounded=0;whiteSpace=wrap;html=1;fillColor=#FFFFFF;" parent="1" vertex="1">
                    <mxGeometry x="587" y="2190.55" width="20" height="10" as="geometry"/>
                </mxCell>
                <mxCell id="PLWnVdBnxbxf1y3KlK_t-251" value="NIL" style="rounded=0;whiteSpace=wrap;html=1;fillColor=#FFFFFF;" parent="1" vertex="1">
                    <mxGeometry x="624" y="2190.55" width="20" height="10" as="geometry"/>
                </mxCell>
                <mxCell id="PLWnVdBnxbxf1y3KlK_t-252" value="" style="endArrow=none;html=1;entryX=0;entryY=1;entryDx=0;entryDy=0;exitX=0.5;exitY=0;exitDx=0;exitDy=0;" parent="1" source="PLWnVdBnxbxf1y3KlK_t-250" target="PLWnVdBnxbxf1y3KlK_t-249" edge="1">
                    <mxGeometry width="50" height="50" relative="1" as="geometry">
                        <mxPoint x="603" y="2220" as="sourcePoint"/>
                        <mxPoint x="653" y="2170" as="targetPoint"/>
                    </mxGeometry>
                </mxCell>
                <mxCell id="PLWnVdBnxbxf1y3KlK_t-253" value="" style="endArrow=none;html=1;exitX=1;exitY=1;exitDx=0;exitDy=0;" parent="1" source="PLWnVdBnxbxf1y3KlK_t-249" edge="1">
                    <mxGeometry width="50" height="50" relative="1" as="geometry">
                        <mxPoint x="573" y="2270" as="sourcePoint"/>
                        <mxPoint x="634" y="2191" as="targetPoint"/>
                    </mxGeometry>
                </mxCell>
                <mxCell id="PLWnVdBnxbxf1y3KlK_t-254" value="C" style="ellipse;whiteSpace=wrap;html=1;aspect=fixed;fillColor=#FFFFFF;" parent="1" vertex="1">
                    <mxGeometry x="558" y="2180.55" width="20" height="20" as="geometry"/>
                </mxCell>
                <mxCell id="PLWnVdBnxbxf1y3KlK_t-255" value="NIL" style="rounded=0;whiteSpace=wrap;html=1;fillColor=#FFFFFF;" parent="1" vertex="1">
                    <mxGeometry x="545" y="2230.55" width="20" height="10" as="geometry"/>
                </mxCell>
                <mxCell id="PLWnVdBnxbxf1y3KlK_t-256" value="NIL" style="rounded=0;whiteSpace=wrap;html=1;fillColor=#FFFFFF;" parent="1" vertex="1">
                    <mxGeometry x="575" y="2230.55" width="20" height="10" as="geometry"/>
                </mxCell>
                <mxCell id="PLWnVdBnxbxf1y3KlK_t-257" value="" style="endArrow=none;html=1;entryX=0;entryY=1;entryDx=0;entryDy=0;exitX=0.25;exitY=0;exitDx=0;exitDy=0;" parent="1" source="PLWnVdBnxbxf1y3KlK_t-255" target="PLWnVdBnxbxf1y3KlK_t-254" edge="1">
                    <mxGeometry width="50" height="50" relative="1" as="geometry">
                        <mxPoint x="503" y="2250.55" as="sourcePoint"/>
                        <mxPoint x="553" y="2200.55" as="targetPoint"/>
                    </mxGeometry>
                </mxCell>
                <mxCell id="PLWnVdBnxbxf1y3KlK_t-258" value="" style="endArrow=none;html=1;exitX=1;exitY=1;exitDx=0;exitDy=0;entryX=0.5;entryY=0;entryDx=0;entryDy=0;" parent="1" source="PLWnVdBnxbxf1y3KlK_t-254" target="PLWnVdBnxbxf1y3KlK_t-256" edge="1">
                    <mxGeometry width="50" height="50" relative="1" as="geometry">
                        <mxPoint x="553" y="2300.55" as="sourcePoint"/>
                        <mxPoint x="583" y="2230.55" as="targetPoint"/>
                    </mxGeometry>
                </mxCell>
                <mxCell id="PLWnVdBnxbxf1y3KlK_t-259" value="B、D左旋" style="text;html=1;align=center;verticalAlign=middle;resizable=0;points=[];autosize=1;" parent="1" vertex="1">
                    <mxGeometry x="448.62" y="2100" width="70" height="20" as="geometry"/>
                </mxCell>
                <mxCell id="PLWnVdBnxbxf1y3KlK_t-260" value="" style="endArrow=none;html=1;entryX=0;entryY=1;entryDx=0;entryDy=0;exitX=0.5;exitY=0;exitDx=0;exitDy=0;" parent="1" source="PLWnVdBnxbxf1y3KlK_t-240" target="PLWnVdBnxbxf1y3KlK_t-242" edge="1">
                    <mxGeometry width="50" height="50" relative="1" as="geometry">
                        <mxPoint x="434" y="2200" as="sourcePoint"/>
                        <mxPoint x="484" y="2150" as="targetPoint"/>
                    </mxGeometry>
                </mxCell>
                <mxCell id="PLWnVdBnxbxf1y3KlK_t-261" value="" style="endArrow=none;html=1;entryX=0;entryY=1;entryDx=0;entryDy=0;exitX=0.5;exitY=0;exitDx=0;exitDy=0;" parent="1" source="PLWnVdBnxbxf1y3KlK_t-241" target="PLWnVdBnxbxf1y3KlK_t-240" edge="1">
                    <mxGeometry width="50" height="50" relative="1" as="geometry">
                        <mxPoint x="560" y="2150" as="sourcePoint"/>
                        <mxPoint x="580.4289321881345" y="2127.0710678118653" as="targetPoint"/>
                    </mxGeometry>
                </mxCell>
                <mxCell id="PLWnVdBnxbxf1y3KlK_t-262" value="" style="endArrow=none;html=1;exitX=1;exitY=1;exitDx=0;exitDy=0;entryX=0;entryY=0;entryDx=0;entryDy=0;" parent="1" source="PLWnVdBnxbxf1y3KlK_t-242" target="PLWnVdBnxbxf1y3KlK_t-249" edge="1">
                    <mxGeometry width="50" height="50" relative="1" as="geometry">
                        <mxPoint x="654" y="2160" as="sourcePoint"/>
                        <mxPoint x="704" y="2110" as="targetPoint"/>
                    </mxGeometry>
                </mxCell>
                <mxCell id="PLWnVdBnxbxf1y3KlK_t-263" value="" style="endArrow=none;html=1;exitX=1;exitY=1;exitDx=0;exitDy=0;entryX=0.5;entryY=0;entryDx=0;entryDy=0;" parent="1" source="PLWnVdBnxbxf1y3KlK_t-240" target="PLWnVdBnxbxf1y3KlK_t-254" edge="1">
                    <mxGeometry width="50" height="50" relative="1" as="geometry">
                        <mxPoint x="664" y="2280" as="sourcePoint"/>
                        <mxPoint x="714" y="2230" as="targetPoint"/>
                    </mxGeometry>
                </mxCell>
                <mxCell id="PLWnVdBnxbxf1y3KlK_t-301" value="D" style="ellipse;whiteSpace=wrap;html=1;aspect=fixed;fillColor=#FFFFFF;" parent="1" vertex="1">
                    <mxGeometry x="414.12" y="2140" width="20" height="20" as="geometry"/>
                </mxCell>
                <mxCell id="PLWnVdBnxbxf1y3KlK_t-302" value="A" style="ellipse;whiteSpace=wrap;html=1;aspect=fixed;fillColor=#FFFFFF;" parent="1" vertex="1">
                    <mxGeometry x="354.12" y="2140" width="20" height="20" as="geometry"/>
                </mxCell>
                <mxCell id="PLWnVdBnxbxf1y3KlK_t-303" value="B" style="ellipse;whiteSpace=wrap;html=1;aspect=fixed;fillColor=#FFFFFF;" parent="1" vertex="1">
                    <mxGeometry x="384.12" y="2100" width="20" height="20" as="geometry"/>
                </mxCell>
                <mxCell id="PLWnVdBnxbxf1y3KlK_t-304" value="" style="endArrow=none;html=1;entryX=0;entryY=1;entryDx=0;entryDy=0;exitX=0.5;exitY=0;exitDx=0;exitDy=0;" parent="1" source="PLWnVdBnxbxf1y3KlK_t-302" target="PLWnVdBnxbxf1y3KlK_t-303" edge="1">
                    <mxGeometry width="50" height="50" relative="1" as="geometry">
                        <mxPoint x="324.12" y="2210" as="sourcePoint"/>
                        <mxPoint x="374.12" y="2160" as="targetPoint"/>
                    </mxGeometry>
                </mxCell>
                <mxCell id="PLWnVdBnxbxf1y3KlK_t-305" value="" style="endArrow=none;html=1;exitX=1;exitY=1;exitDx=0;exitDy=0;entryX=0.5;entryY=0;entryDx=0;entryDy=0;" parent="1" source="PLWnVdBnxbxf1y3KlK_t-303" target="PLWnVdBnxbxf1y3KlK_t-301" edge="1">
                    <mxGeometry width="50" height="50" relative="1" as="geometry">
                        <mxPoint x="434.12" y="2170" as="sourcePoint"/>
                        <mxPoint x="484.12" y="2120" as="targetPoint"/>
                    </mxGeometry>
                </mxCell>
                <mxCell id="PLWnVdBnxbxf1y3KlK_t-306" value="" style="endArrow=none;html=1;entryX=0;entryY=1;entryDx=0;entryDy=0;exitX=0.5;exitY=0;exitDx=0;exitDy=0;" parent="1" target="PLWnVdBnxbxf1y3KlK_t-301" edge="1">
                    <mxGeometry width="50" height="50" relative="1" as="geometry">
                        <mxPoint x="393.12" y="2180" as="sourcePoint"/>
                        <mxPoint x="414.12" y="2220" as="targetPoint"/>
                    </mxGeometry>
                </mxCell>
                <mxCell id="PLWnVdBnxbxf1y3KlK_t-307" value="" style="endArrow=none;html=1;exitX=1;exitY=1;exitDx=0;exitDy=0;entryX=0.5;entryY=0;entryDx=0;entryDy=0;" parent="1" source="PLWnVdBnxbxf1y3KlK_t-301" edge="1">
                    <mxGeometry width="50" height="50" relative="1" as="geometry">
                        <mxPoint x="434.12" y="2260" as="sourcePoint"/>
                        <mxPoint x="455.12" y="2180" as="targetPoint"/>
                    </mxGeometry>
                </mxCell>
                <mxCell id="PLWnVdBnxbxf1y3KlK_t-310" value="E" style="ellipse;whiteSpace=wrap;html=1;aspect=fixed;fillColor=#FFFFFF;" parent="1" vertex="1">
                    <mxGeometry x="448.62" y="2180" width="20" height="20" as="geometry"/>
                </mxCell>
                <mxCell id="PLWnVdBnxbxf1y3KlK_t-311" value="NIL" style="rounded=0;whiteSpace=wrap;html=1;fillColor=#FFFFFF;" parent="1" vertex="1">
                    <mxGeometry x="435.62" y="2230.55" width="20" height="10" as="geometry"/>
                </mxCell>
                <mxCell id="PLWnVdBnxbxf1y3KlK_t-312" value="NIL" style="rounded=0;whiteSpace=wrap;html=1;fillColor=#FFFFFF;" parent="1" vertex="1">
                    <mxGeometry x="472.62" y="2230.55" width="20" height="10" as="geometry"/>
                </mxCell>
                <mxCell id="PLWnVdBnxbxf1y3KlK_t-313" value="" style="endArrow=none;html=1;entryX=0;entryY=1;entryDx=0;entryDy=0;exitX=0.5;exitY=0;exitDx=0;exitDy=0;" parent="1" source="PLWnVdBnxbxf1y3KlK_t-311" target="PLWnVdBnxbxf1y3KlK_t-310" edge="1">
                    <mxGeometry width="50" height="50" relative="1" as="geometry">
                        <mxPoint x="451.62" y="2260" as="sourcePoint"/>
                        <mxPoint x="501.62" y="2210" as="targetPoint"/>
                    </mxGeometry>
                </mxCell>
                <mxCell id="PLWnVdBnxbxf1y3KlK_t-314" value="" style="endArrow=none;html=1;exitX=1;exitY=1;exitDx=0;exitDy=0;" parent="1" source="PLWnVdBnxbxf1y3KlK_t-310" edge="1">
                    <mxGeometry width="50" height="50" relative="1" as="geometry">
                        <mxPoint x="421.62" y="2310" as="sourcePoint"/>
                        <mxPoint x="482.62" y="2231" as="targetPoint"/>
                    </mxGeometry>
                </mxCell>
                <mxCell id="PLWnVdBnxbxf1y3KlK_t-315" value="C" style="ellipse;whiteSpace=wrap;html=1;aspect=fixed;fillColor=#FFFFFF;" parent="1" vertex="1">
                    <mxGeometry x="383.62" y="2180.55" width="20" height="20" as="geometry"/>
                </mxCell>
                <mxCell id="PLWnVdBnxbxf1y3KlK_t-316" value="NIL" style="rounded=0;whiteSpace=wrap;html=1;fillColor=#FFFFFF;" parent="1" vertex="1">
                    <mxGeometry x="370.62" y="2230.55" width="20" height="10" as="geometry"/>
                </mxCell>
                <mxCell id="PLWnVdBnxbxf1y3KlK_t-317" value="NIL" style="rounded=0;whiteSpace=wrap;html=1;fillColor=#FFFFFF;" parent="1" vertex="1">
                    <mxGeometry x="400.62" y="2230.55" width="20" height="10" as="geometry"/>
                </mxCell>
                <mxCell id="PLWnVdBnxbxf1y3KlK_t-318" value="" style="endArrow=none;html=1;entryX=0;entryY=1;entryDx=0;entryDy=0;exitX=0.25;exitY=0;exitDx=0;exitDy=0;" parent="1" source="PLWnVdBnxbxf1y3KlK_t-316" target="PLWnVdBnxbxf1y3KlK_t-315" edge="1">
                    <mxGeometry width="50" height="50" relative="1" as="geometry">
                        <mxPoint x="328.62" y="2250.55" as="sourcePoint"/>
                        <mxPoint x="378.62" y="2200.55" as="targetPoint"/>
                    </mxGeometry>
                </mxCell>
                <mxCell id="PLWnVdBnxbxf1y3KlK_t-319" value="" style="endArrow=none;html=1;exitX=1;exitY=1;exitDx=0;exitDy=0;entryX=0.5;entryY=0;entryDx=0;entryDy=0;" parent="1" source="PLWnVdBnxbxf1y3KlK_t-315" target="PLWnVdBnxbxf1y3KlK_t-317" edge="1">
                    <mxGeometry width="50" height="50" relative="1" as="geometry">
                        <mxPoint x="378.62" y="2300.55" as="sourcePoint"/>
                        <mxPoint x="408.62" y="2230.55" as="targetPoint"/>
                    </mxGeometry>
                </mxCell>
                <mxCell id="PLWnVdBnxbxf1y3KlK_t-320" value="" style="endArrow=classic;html=1;entryX=-0.042;entryY=-0.06;entryDx=0;entryDy=0;entryPerimeter=0;" parent="1" edge="1">
                    <mxGeometry width="50" height="50" relative="1" as="geometry">
                        <mxPoint x="177" y="2120" as="sourcePoint"/>
                        <mxPoint x="331.8599999999999" y="2118.8" as="targetPoint"/>
                    </mxGeometry>
                </mxCell>
                <mxCell id="PLWnVdBnxbxf1y3KlK_t-321" value="兄弟结点染成当前结点的父结点颜色" style="text;html=1;align=center;verticalAlign=middle;resizable=0;points=[];autosize=1;" parent="1" vertex="1">
                    <mxGeometry x="156" y="2100" width="210" height="20" as="geometry"/>
                </mxCell>
                <mxCell id="PLWnVdBnxbxf1y3KlK_t-323" value="兄弟结点右子节点染成黑色" style="text;html=1;align=center;verticalAlign=middle;resizable=0;points=[];autosize=1;" parent="1" vertex="1">
                    <mxGeometry x="173" y="2120" width="160" height="20" as="geometry"/>
                </mxCell>
                <mxCell id="PLWnVdBnxbxf1y3KlK_t-325" value="" style="endArrow=classic;html=1;" parent="1" edge="1">
                    <mxGeometry width="50" height="50" relative="1" as="geometry">
                        <mxPoint x="420" y="2120" as="sourcePoint"/>
                        <mxPoint x="550" y="2120" as="targetPoint"/>
                    </mxGeometry>
                </mxCell>
                <mxCell id="PLWnVdBnxbxf1y3KlK_t-327" value="case1：当前结点为新的根节点，删除没有影响，直接删除" style="text;html=1;align=center;verticalAlign=middle;resizable=0;points=[];autosize=1;" parent="1" vertex="1">
                    <mxGeometry x="75" y="1180" width="320" height="20" as="geometry"/>
                </mxCell>
                <mxCell id="PLWnVdBnxbxf1y3KlK_t-330" value="变色" style="text;html=1;align=center;verticalAlign=middle;resizable=0;points=[];autosize=1;" parent="1" vertex="1">
                    <mxGeometry x="194" y="1660" width="40" height="20" as="geometry"/>
                </mxCell>
            </root>
        </mxGraphModel>
    </diagram>
</mxfile>